<?xml version="1.0" encoding="UTF-8"?>
<svg xmlns="http://www.w3.org/2000/svg" width="263.965" height="373.742" viewBox="0 0 263.965 373.742">
  <g isolation="isolate">
    <g id="b" data-name="Layer 2">
      <g id="c" data-name="Vectors">
        <path d="M16.181,91.164c1.213,4.776,2.386,9.649,3.52,14.362,1.998,8.301,4.064,16.884,6.423,25.247,1.469,5.208,3.14,10.446,4.754,15.511,1.611,5.053,3.277,10.277,4.741,15.465.934,3.308,1.68,6.766,2.401,10.11,1.455,6.743,2.959,13.715,6.093,20.004,1.61,3.231,5.155,9.06,10.803,11.793,4.136,2.001,8.675,1.945,13.064,1.89,1.031-.013,2.067-.027,3.106-.014,11.585.136,23.229,1.875,34.488,3.557,6.744,1.007,13.716,2.048,20.614,2.737,11.118,1.11,22.449.857,33.406.612,1.684-.038,3.368-.075,5.075-.108,1.932-.038,3.928-.078,5.854.198,1.272.182,2.608.323,3.882.323,3.021,0,5.686-.799,6.279-3.764.687-3.435-.875-18.321-12.908-22.412-5.901-2.007-12.135-2.79-18.164-3.547-2.939-.369-5.979-.751-8.93-1.27-9.929-1.744-19.539-5.373-28.832-8.882-5.017-1.894-10.205-3.853-15.188-6.068-.692-.308-1.419-.618-2.166-.937-4.156-1.776-8.868-3.79-11.583-7.005-5.009-5.932-10.633-17.647-17.8-62.814-1.194-7.528-2.091-15.363-3.041-23.659-1.491-13.022-3.032-26.487-5.812-38.521l-.393-1.714c-1.873-8.198-3.995-17.49-9.437-23.787C40.511,1.616,31.813-1.395,23.729.611c-5.067,1.258-9.916,4.156-13.652,8.16C4.982,14.229,1.592,21.782.275,30.614c-1.202,8.062,1.747,17.125,4.605,24.988,3.723,10.243,7.977,22.479,11.3,35.562Z" fill="#c8b275" mix-blend-mode="difference" stroke-width="0"/>
        <path d="M151.557,90.996c-1.81-6.994-3.461-14.72-7.52-20.958-3.076-4.727-8.494-7.649-13.274-10.228l-.695-.375c-4.349-2.353-8.83-4.798-14.11-7.066-.405-.174-.854-.073-1.142.257-.289.33-.33.807-.103,1.185,2.095,3.49,4.957,8.534,7.24,13.412,1.901,4.06,3.696,7.895,5.318,10.826.796,1.438,1.576,2.856,2.349,4.261,3.111,5.655,6.05,10.997,9.434,16.62,2.001,3.327,4.142,6.676,6.212,9.915,3.879,6.068,7.89,12.343,11.206,18.806,4.744,9.246,4.658,19.812.665,29.753-2.833,7.055-8.694,13.229-17.916,18.874-.275.168-.464.434-.518.728-.05.271.018.543.189.765l.655.848c.464.601,2.143.719,5.729.755.709.007,1.322.014,1.584.041,2.196.225,4.407.484,6.571.771,3.489.463,6.886.999,10.098,1.594.68.125,1.393.314,2.147.513,1.34.354,2.727.72,4.031.75.02,0,.039,0,.059,0,1.582,0,3.175-1.461,3.792-2.096,1.535-1.58,1.363-2.421.79-4.337-1.403-4.776-3.175-9.616-4.599-14.296-2.252-7.405-4.982-15.062-7.09-22.647-.459-1.651-1.234-3.307-1.709-4.967-1.93-6.735-3.726-13.7-4.744-20.642-.995-6.785-2.271-13.899-4.311-21.75l-.34-1.312Z" fill="#c8b275" mix-blend-mode="difference" stroke-width="0"/>
        <path d="M262.675,365.372c-3.402-6.473-7.371-12.826-11.21-18.969-4.344-6.951-9.336-14.139-12.995-21.494-.212-.425-.421-.852-.628-1.28-8.634-17.875-14.692-31.535-20.514-45.762-3.963-9.683-7.377-18.469-11.258-26.859-2.47-5.34-4.945-10.282-7.721-15.471-1.19-2.224-2.549-4.732-3.772-6.937-1.732-3.121-3.284-5.237-6.478-6.947-3.07-1.643-6.483-2.581-9.908-3.127-7.751-1.237-14.629-1.763-22.428-.809-.718.088-1.607.351-1.697,1.069-.04.319.082.64.247.917,6.926,11.657,15.827,26.203,21.751,38.419,10.127,20.884,19.695,38.006,30.577,58.506,8.157,15.368,17.191,30.252,25.838,45.344,1.582,2.76,3.374,5.889,5.982,8.154,2.67,2.32,13.7,3.616,19.268,3.616,2.031,0,3.774-.36,4.874-1.231,1.792-1.419,1.817-3.821.073-7.139Z" fill="#c8b275" mix-blend-mode="difference" stroke-width="0"/>
      </g>
    </g>
  </g>
</svg>