<?xml version="1.0" encoding="UTF-8"?>
<svg id="a" data-name="Layer 1" xmlns="http://www.w3.org/2000/svg" width="249.882" height="491.526" viewBox="0 0 249.882 491.526">
  <path d="M55.969,318.36c-.251-3.236-.595-6.473-1.079-9.736-1.192-8.039-2.953-16.037-5.902-23.628-.826-2.126-1.758-4.176-2.817-6.188-7.949-15.103-14.8-30.404-19.647-46.806-2.325-7.868-4.096-15.886-4.909-24.077-.832-8.383-1-16.813-1.729-25.204-.35-4.026-1.507-8.111-.045-12.043.163-4.374-1.089-8.515-2.094-12.694-.143-.593-.474-1.191-1.021-1.501-.879-.497-.778.496-.928,1.222-.354,1.716-.708,3.433-1.037,5.154-.544,2.85-1.019,5.717-1.303,8.605-.064.65-.118,1.301-.161,1.953-.478,7.215.799,14.118,1.82,21.226,1.21,8.428,1.309,16.95,2.811,25.315,1.426,7.937,3.634,15.726,6.51,23.258,2.498,6.54,5.494,12.884,8.884,19.007,7.963,14.384,16.176,29.263,19.504,45.528,1.408,6.882,1.962,13.816.31,20.697-1.884,7.848-3.623,15.731-5.426,23.599,1.83-1.056,3.629-2.169,5.499-3.15,1.559-.818,2.457-1.917,2.624-3.751.36-3.962.878-7.897.791-11.901-.109-5.019-.274-9.951-.656-14.885Z" fill="#373737" stroke-width="0"/>
  <path d="M128.541,491.526h-3.747c-2.692-1.452-3.952-4.104-5.294-6.599-2.66-4.945-5.605-9.797-7.447-15.098-1.584-4.557-2.899-9.312-3.739-14.012-.92-5.146-2.475-10.184-2.917-15.425-.146-1.733-.642-3.504-1.425-5.03-3.56-6.936-4.668-14.59-6.571-22-.781-3.041-2.035-5.816-3.707-8.347-3.061-4.636-4.254-9.788-4.808-15.157-.334-3.241-.606-6.484-1.881-9.518-.783-1.863-.754-3.846-.348-5.639,1.827-8.071.186-16.101-.348-24.089-.291-4.351-3.416-8.165-4.493-12.56-1.967-8.028-3.928-16.063-4.477-24.314-.293-4.402-1.933-8.197-3.714-12.036-1.339-2.102-1.778-4.616-3.06-6.748-.407-.853-.834-1.699-.921-2.664-.234-2.237-2.558-3.416-2.858-5.625.213-3.659-2.294-6.62-2.551-10.215-.198-2.773-1.379-5.449-1.241-8.309.858-4.015,1.622-8.02,1.508-12.181-.08-2.937-.73-5.622-1.807-8.345-2.136-5.401-3.221-11.093-3.774-16.861-.299-3.121-2.651-5.256-3.515-8.081-.52-1.612-1.071-3.211-1.576-4.83,1.067-4.035-.058-7.706-1.924-11.226-1.814-3.422-3.182-7.035-4.024-10.779-1.304-5.794-3.433-11.502-2.859-17.579,1.014-10.735-1.544-20.794-5.726-30.507-2.134-4.956-2.822-10.279-4.441-15.36-.859-2.697.146-4.955,2.633-6.706,2.978-2.095,6.273-3.379,9.616-4.627.587-.182,1.184-.207,1.783-.074,2.821,3.482,5.982,6.449,10.736,6.979,2.684,2.079,1.685,4.079-.125,6.06-2.069,1.527-2.736,3.398-2.194,6.039,1.795,8.748,2.801,17.611,3.339,26.524.07.809.073,1.621.073,2.432.622,6.427,1.027,12.858,1.876,19.285.957,7.249,2.123,14.512,2.643,21.833.98,13.797,5.249,26.227,15.123,36.353,2.819,2.891,2.647,3.529.259,6.58-3.751,4.793-3.296,10.254-2.062,15.714.345,1.526,1.615,2.449,3.278,2.673,1.607.216,3.226.497,4.75,1.01,1.182.398,2.883.653,2.355,2.687-.255.338-.569.601-.945.793-2.974,1.055-5.929.004-8.855-.235-3.099-.253-6.191-.584-9.291-.646-1.725.881-1.752,2.08-.966,3.721,2.866,5.984,5.814,11.931,8.184,18.143,5.043,13.218,7.841,27.014,10.482,40.841.52,2.721.98,5.456,2.303,7.847,3.224,5.826,3.614,12.276,3.424,18.539-.245,8.099,1.892,15.763,2.83,23.634.116.972.412,2.314,1.587,2.187,1.591-.172,1.209-1.72,1.014-2.718-1.633-8.353-.998-16.902-2.244-25.284-.238-1.598-.605-3.284,1.284-4.271,2.026-.217,2.319,1.177,2.782,2.706,1.705,5.639,1.235,11.534,2.179,17.259.565,3.43,1.083,6.848,2.779,9.951,1.302,4.91,3.056,9.674,4.709,14.472-1.031,3.539-.253,6.679,1.126,10.132,5.123,12.823,10.266,25.641,15.948,38.217,4.841,10.714,8.219,21.968,12.755,32.788,1.05,2.504,3.239,5.373.511,8.295h-3.747c-3.125-2.204-3.745-5.726-4.791-9.04-3.414-10.813-6.432-21.778-12.067-31.746-.792-1.402-1.361-2.951-2.994-4.325-.07,4.595.882,8.741,1.818,12.855,2.162,9.499,5.05,18.755,9.756,27.357.872,1.594,1.332,3.258.033,4.899Z" fill="#101010" stroke-width="0"/>
  <path d="M100.06,491.526h-.749c-3.314-2.251-3.369-6.228-4.838-9.419-2.928-6.361-5.829-12.738-8.696-19.13-1.358-2.154-2.378-4.454-3.015-6.925-.067-1.5-.224-2.98-.566-4.45-.698-2.992-1.658-5.914-.592-9.112.395-1.187.104-2.758-.253-4.113-1.852-7.029-.936-14.299-1.869-21.412-.44-3.351.167-6.561,2.083-9.48,1.073-1.635.75-3.284.074-5.156-2.01-5.569-3.941-11.172-5.798-16.799-2.16-6.543-1.672-13.685-4.156-19.882-3.012-7.515-2.639-15.01-2.706-22.653-.008-.918-.14-1.92.157-2.709,1.696-4.509.949-8.901-.235-13.354-1.024-3.852-1.638-7.714-1.07-11.803.458-3.298-1.201-6.457-2.792-9.17-2.013-3.433-4.386-6.797-5.817-10.408-3.805-9.602-10.76-17.414-14.659-26.887-2.018-4.902-3.852-9.904-5.167-15.054-1.769-6.926-5.759-12.985-7.621-19.864-.138-.378-.24-.767-.31-1.163-2.657-8.294-3.372-17.01-5.518-25.415-.338-1.323-.669-2.659-1.279-3.897-.575-1.647-2.016-2.893-2.19-4.727-.448-2.11-1.349-4.123-1.328-6.331.232-.824.674-1.467,1.513-1.77,2.009-.159,2.422,1.432,2.976,2.793,2.814,6.915,5.292,13.728,6.262,21.404,1.317,10.423,4.055,20.712,9.882,30.049,3.711,5.948,4.584,13.539,8.284,19.594,4.602,7.531,7.545,15.796,11.62,23.532,1.478,2.806,3.554,5.142,7.074,5.458,1.765.159,2.397,1.611,3.192,2.864.809,2.698,2.439,5.048,3.288,7.736.07.389.149.773.239,1.157.767,2.27,1.197,4.593.963,6.988-.56,5.733,1.223,11.029,3.018,16.324.585,3.984,2.111,7.74,2.903,11.674-.121,1.854-1.132,2.664-2.963,2.527-1.39-.104-2.583.43-3.051,1.707-1.69,4.614-3.522,9.528-.96,14.128,2.116,3.799,2.53,7.713,2.215,11.616-.538,6.654,1.633,12.577,3.794,18.567,2.269,6.29,4.26,12.667,6.236,19.051.542,1.752.071,3.296-.741,4.805-1.219,2.264-1.342,4.705-1.579,7.224-.907,9.625.378,19.091,1.557,28.583.312,2.515.897,4.944,2.133,7.137,2.833,5.028,4.507,10.554,6.879,15.783,2.553,5.626,2.623,12.042,5.114,17.739.469,1.073-.199,1.909-.937,2.64Z" fill="#272727" stroke-width="0"/>
  <path d="M81.328,340.069c-.974-3.753-2.575-7.339-3.005-11.238-1.336-4.881-2.635-9.743-2.287-14.912.225-3.342-.342-6.648-1.459-9.833h0c-.497-1.25-.823-2.499,0-3.749,2.724,4.608,3.671,9.695,4.219,14.938,1.103,10.567,3.164,20.899,7.284,30.787,3.61,8.662,3.041,17.822,2.32,26.9-.212,2.665-.424,5.193.755,7.676,1.217,2.562,1.127,5.319,1.183,8.074.121,5.97,1.412,11.612,4.953,16.583,2.357,3.308,3.631,7.082,4.569,10.991,2.726,11.355,8.154,22.024,9.394,33.685.628,5.906,2.78,11.298,3.949,16.982,1.34,6.513,5.307,12.29,8.585,18.162,1.156,2.071,2.422,4.077,3.005,6.412h-12.741c-3.229-6.236-5.331-12.946-8.144-19.354-3.359-7.653-6.157-15.475-7.861-23.663-1.416-6.8-.638-13.673-.65-20.529-.014-7.668-.024-15.479-4.018-22.381-3.204-5.537-4.133-11.776-6.303-17.606-2.055-5.521-2.33-10.724-.651-16.266.8-2.638.313-5.431-.185-8.096-.767-4.101-.738-8.208-.586-12.339.09-2.453-.653-4.731-1.624-6.939-.219-.737-.322-1.501-.39-2.267-.081-.673.282-1.419-.312-2.017Z" fill="#131313" stroke-width="0"/>
  <path d="M157.778,334.854c2.988,11.194,6.179,22.339,8.918,33.594,4.978,20.46,5.049,41.277,4.288,62.177-.682,18.721-2.287,37.372-3.517,56.053-.106,1.608.026,3.231.047,4.847h-2.248c-2.708-2.381-1.978-5.548-1.584-8.405.699-5.068,1.178-10.145,1.552-15.24.143-1.944.072-3.868-1.44-5.209-2.107-1.869-2.049-4.371-1.337-6.406,4.362-12.456,3.409-25.518,4.765-38.316,1.517-14.322-.825-28.343-2.857-42.4-.478-3.308.175-6.679-.868-9.969-1.198-3.775-2.444-7.542-4.432-10.948-1.128-1.933-.361-4.222-1.773-6.264-.952,1.095-.174,2.216-.364,3.183-.073,2.672-1.428,4.985-2.078,7.494-1.214,1.398-2.302,3.232-4.532,2.587-1.966-.569-2.441-2.53-2.622-4.213-.843-7.859-4.281-15.32-3.579-23.4q1.564-.959,3.584-.163c-.518-3.53-1.879-6.795-2.002-10.313-.031-.9-.144-1.628.421-2.346,2.306-.992,3.163.474,3.739,2.274.892,2.789,2.469,4.509,5.684,3.898,1.91,2.145,4.445,4.111,2.234,7.484Z" fill="#262626" stroke-width="0"/>
  <path d="M154.774,351.321c.004-1.622-.037-3.246.028-4.865.043-1.072-.236-2.531,1.207-2.796,1.539-.284,2.131,1.093,2.523,2.275.508,1.533.697,3.177,1.253,4.689,3.056,8.31,5.476,16.711,6.27,25.63.66,7.414,2.991,14.721,3.223,22.118.199,6.337.615,12.706-.454,19.241-1.372,8.384-1.499,17.086-1.342,25.705.079,4.36-1.264,8.634-3.011,12.672-.757,1.75-1.1,3.105.701,4.576,2.214,1.807,2.321,4.382,2.147,7.161-.498,7.952-2.383,15.782-2.052,23.8h-5.246c-1.042-.816-1.942-1.714-1.862-3.188-1.084-11.245.168-22.404,1.865-33.452,1.181-7.687,2.167-15.394,3.328-23.074,1.231-8.141,1.958-16.242,1.301-24.42-.635-7.914-.785-15.843-2.426-23.713-1.483-7.114-.305-14.6-2.254-21.776-1.064-3.917-1.424-8.05-5.199-10.582Z" fill="#242424" stroke-width="0"/>
  <path d="M82.829,343.068c1.574,1.801,2.156,4.099,2.083,6.281-.318,9.551,2.56,19.149-.407,28.664-.249.797-.345,1.867-.017,2.584,3.54,7.734,3.273,16.607,7.684,24.158,4.498,7.699,5.737,16.269,4.986,25.198-1.088,12.936,1.678,25.212,6.351,37.261,2.616,6.743,6.571,12.907,8.352,19.996.372,1.482.957,2.835.19,4.316h-5.996c-1.128-.928-2.168-1.719-2.358-3.493-1.304-12.122-6.078-23.165-10.916-34.176-2.426-5.521-3.52-11.369-4.202-17.309-.291-2.538.246-4.971,1.248-7.306.592-1.378,1.439-2.761,1.375-4.25-.318-7.428.946-15.059-3.073-22.017-3.739-6.473-5.583-13.686-7.632-20.801-.713-2.476-.157-4.968.294-7.379.819-4.377.286-8.649-.124-13.015-.543-5.77-1.579-11.676,1.014-17.309.268-.582.546-1.114,1.147-1.404Z" fill="#191919" stroke-width="0"/>
  <path d="M82.829,343.068c-1.124,8.332-1.075,16.613.572,24.907.588,2.961-.599,5.93-1.365,8.806-.671,2.522-.403,4.829.281,7.317,2.259,8.21,6.287,15.75,8.969,23.728,2.359,7.015,3.712,14.717.281,22.127-1.304,2.817-1.321,5.73-.977,8.779,1.04,9.214,4.842,17.519,8.492,25.831,3.39,7.719,5.88,15.586,6.362,24.038.056.983.401,1.95.611,2.925h-3.747c-2.46-3.755-3.345-8.104-4.197-12.357-1.605-8.016-4.98-15.371-8.066-22.816-4.374-10.553-5.67-21.447-4.469-32.687.437-4.087.986-8.184,2.048-12.183.812-3.061-.675-5.701-1.576-8.472-2.412-7.417-5.617-14.562-7.536-22.15-.469-1.857-.838-3.732-.824-5.609.047-6.531-.231-12.989-2.205-19.301-1.183-3.782.207-7.37,1.256-10.989.83-2.866,3.878-1.781,5.336-3.392.251.499.502.999.754,1.498Z" fill="#1f1f1f" stroke-width="0"/>
  <path d="M82.076,341.57c-.106,2.604-3.231,2.592-4.036,5.039-1.543,4.693-.927,9.088.13,13.618.367,1.572.994,3.218.828,4.758-1.317,12.208,1.695,23.685,6.931,34.374,3.827,7.815,3.431,15.328,1.743,23.216-2.506,11.708-.404,22.722,4.351,33.544,3.604,8.201,7.177,16.493,8.019,25.589.313,3.382,2.318,6.36,2.267,9.818h-2.248c-1.852-7.499-3.765-14.973-6.958-22.056-2.507-5.562-5.023-11.127-7.294-16.787-1.664-4.147-.092-8.718-1.274-12.98-2.067-7.452-.584-15.127-1.376-22.662-.073-.696.124-1.587.531-2.142,4.133-5.636,1.676-11.119-.242-16.654-2.084-6.014-4.118-12.046-6.104-18.094-1.539-4.688-1.565-9.564-1.475-14.425.024-1.282.113-2.51-.711-3.569-3.406-4.377-3.312-9.222-1.987-14.262.54-2.052.987-4.129,1.452-6.2.561-2.5,1.596-3.741,4.046-1.66.841.715,1.754,1.734,2.658.033.249.5.499,1,.748,1.501Z" fill="#242424" stroke-width="0"/>
  <path d="M148.028,491.526h-1.499c-2.433-2.162-3.388-5.191-4.445-8.068-4.592-12.491-9.257-24.948-14.254-37.287-2.037-5.029-3.568-10.269-5.572-15.336-1.237-3.127-2.26-6.329-3.95-9.255-.605-1.135-.706-2.361-.642-3.622.074-1.466-.247-3.122,1.598-3.8,1.892-.696,3.03.384,3.985,1.935-1.597-5.873-1.217-6.783,3.222-7.871.567.157.972.55,1.388.931,2.184,3.595,4.863,6.935,5.76,11.2-1.077,2.101-.366,3.666.745,5.746,4.006,7.496,7.705,15.176,10.329,23.305.847,3.272,1.962,6.489,3.357,9.529,1.603,3.494,1.758,7.221,2.589,10.834.351,1.526.351,3.106-1.54,3.694-1.739.54-2.831-.418-3.637-1.862-2.739-4.909-5.191-9.981-7.304-15.166-2.937-7.207-5.701-14.486-8.972-21.561,6.765,17.018,12.648,34.363,19.085,51.503.651,1.735,1.617,3.519-.243,5.152Z" fill="#1f1f1f" stroke-width="0"/>
  <path d="M148.028,491.526c-5.87-15.782-10.991-31.846-17.568-47.359-2.013-4.748-2.106-9.973-4.004-14.832,2.6,2.78,5.05,5.663,6.538,9.24,4.16,10.006,7.979,20.161,12.893,29.838.673,1.325,1,3.92,2.779,3.329,1.727-.574.413-2.834.302-4.362-.324-4.459-2.498-8.341-3.907-12.458-.606-1.772-1.393-3.479-1.533-5.379,1.21-.556,1.751.35,2.37,1.086.176.347.352.695.53,1.041,2.811,4.219,4.005,9.105,5.434,13.844,2.397,7.953,5.599,15.678,6.977,23.931.127.758.307,1.465-.317,2.082h-10.493Z" fill="#262626" stroke-width="0"/>
  <path d="M128.541,491.526c-2.645-6.735-6.3-13.018-8.51-19.966-2.964-9.314-4.301-18.946-6.165-28.479-.144-.736-.225-1.615.653-1.937,1.25-.46,1.729.642,2.338,1.393,3.978,4.906,6.744,10.559,9.104,16.306,4.362,10.624,7.495,21.694,10.825,32.682h-8.244Z" fill="#0d0d0d" stroke-width="0"/>
  <path d="M140.533,491.526c-1.389-8.467-5.747-15.915-8.231-24.002-4.517-14.712-12.82-27.836-17.734-42.349-2.53-7.471-6.905-14.509-6.263-22.87,1.573-.595,2.504.27,3.3,1.442,2,9.835,7.823,18.139,11.038,27.505,4.891,14.244,11.099,27.987,16.259,42.134,1.706,4.679,3.603,9.29,5.307,13.971.491,1.349,1.463,2.759.071,4.169h-3.747Z" fill="#171717" stroke-width="0"/>
  <path d="M240.794,435.219c-.257.621-.723,1.071-1.281,1.691-3.171-2.834-3.806-7.094-5.869-10.561-1.167-1.962-2.346-3.76-4.276-4.996-.269-.417-.401-.881-.406-1.381.013.502.125.958.381,1.413.716,1.275,2.887,2.751.701,3.99-1.801,1.02-4.218.462-5.413-1.627-.943-1.648-1.892-2.88-3.962-2.687-1.385-.574-2.71-1.271-3.503-2.594-2.976-4.968-4.813-10.513-7.792-15.486-.385-.642-.124-1.445.296-2.104,2.121-1.799,3.46-.042,4.671,1.225,2.682,2.806,5.26,5.603,9.616,5.512,1.036-.022,1.723.858,2.096,1.863.737,1.983,2.206,3.223,4.117,4.006,3.318,5.35,6.882,10.565,9.072,16.534,1.038,1.374,1.784,2.232,1.767,4.047-.004.464-.082.833-.216,1.157Z" fill="#212121" stroke-width="0"/>
  <path d="M144.281,491.526c-.57-4.376-2.248-8.436-3.915-12.439-9.193-22.07-16.724-44.821-27.202-66.365-1.286-2.644-3.607-4.887-3.359-8.169,2.603-.786,2.812,1.942,4.239,2.885,4.438,3.483,3.921,8.971,5.504,13.61,7.858,20.46,15.72,40.919,23.572,61.382,1.16,3.023,2.274,6.063,3.41,9.095h-2.248Z" fill="#1d1d1d" stroke-width="0"/>
  <path d="M60.927,31.138c-.636-.534,3.807-6.962,4.337-7.651,1.714-2.228,3.754-4.196,6.056-5.811,11.903-8.352,28.285-7.981,40.844-1.293.983.523,3.084,1.959,3.084,1.959-.9.489-3.456,1.136-4.421.925-.386-.085-.746-.237-1.078-.449-7.888-3.281-15.916-5.647-24.592-3.723-6.253.791-11.07,3.819-14.358,9.225-.284.216-.602.367-.946.462-3.821.091-3.815,4.078-5.967,5.873-.929.518-1.787,1.466-2.958.483Z" fill="#3f3f3f" stroke-width="0"/>
  <path d="M86.568,462.287c3.669,7.701,7.427,15.361,10.347,23.396.718,1.977,1.593,3.897,2.396,5.843h-2.248c-2.746-7.815-6.568-15.167-9.8-22.773-.578-1.36-1.106-2.741-1.657-4.113.245-.815.103-1.789.963-2.352Z" fill="#2c2c2c" stroke-width="0"/>
  <path d="M158.521,491.526c-4.227-13.331-7.52-26.98-13.441-39.738.379-.845.389-2.084,1.863-1.753,1.936.887,2.031,2.93,2.523,4.537,1.061,3.459,2.31,6.815,3.959,10.027-.287,3.626,2.591,6.367,2.782,9.861,1.109,2.233,1.029,4.724,1.537,7.088.015,2.427,1.768,4.461,1.574,6.936.234,1.014.468,2.028.702,3.042h-1.499Z" fill="#535353" stroke-width="0"/>
  <path d="M120.264,114.269c-1.75.693-3.514.983-5.316.186-1.562-8.08-.405-16.098.243-24.178.758-9.449.188-18.961.209-28.445.011-4.707.705-9.294,1.708-13.868.349-1.592,1.011-2.943,2.094-4.137,3.075-3.391,3.127-7.259-.623-9.608-8.867-5.553-18.122-10.222-29.192-8.343-4.759.808-9.701.138-14.363,1.894-2.022.762-3.802,1.285-3.735,4.077.072,2.975,1.364,4.158,4.247,4.377,6.168.47,12.067,2.579,18.276,3.041,3.265.243,5.708,2.436,6.751,5.638,1.05,3.226,1.756,6.475,1.01,10.004-.953,4.51-.348,9.18-.941,13.781-.412,3.197-.915,6.426-1.019,9.673-.076,2.373-1.022,3.644-3.614,4.043-3.28.505-5.509,2.291-6.268,5.989-.504,2.456-.995,5.563-4.498,6.085-.453-.241-.847-.574-.893-1.105-.398-4.638,3.77-12.419,8.032-14.227,2.369-1.005,2.949-2.864,3.365-4.852.609-2.909.926-5.883.95-8.872-.365-5.299.788-10.647-.688-15.921-.951-3.4-2.536-4.832-6.049-4.583-2.559.181-5.009-.215-7.248-1.3-4.434-2.149-8.893-2.181-13.59-1.046-5.069,1.226-7.24-1.063-7.543-7.535-.051-.4-.08-.801-.092-1.204-.05-.623.114-1.184.491-1.68,3.481-2.756,6.043-6.432,9.709-9.091,4.918-3.568,9.87-6.525,16.02-7.494,2.466-.388,4.245.764,6.259,1.301,2.239.596,4.477,1.049,6.734,1.034,3.489-.024,6.551,1.147,9.33,2.99,5.758,3.817,12.506,6.347,16.541,12.461,1.17,3.265,3.327,6.027,3.363,9.889.033,3.544-1,5.996-3.915,7.5-3.216,1.659-4.358,4.284-4.431,7.609-.308,14.059.217,28.144-1.584,42.156-.587,4.565.787,9.158.269,13.761Z" fill="#141414" stroke-width="0"/>
  <path d="M85.073,94.158c1.95-1.554,3.069-3.655,3.53-6.022.704-3.616,2.919-5.732,6.286-6.707,2.385-.691,3.46-2.172,3.664-4.579.694-8.197,1.578-16.379,2.151-24.584.479-6.875-3.617-11.267-10.326-12.191-6.524-.898-12.863-2.904-19.616-2.381-2.507.194-3.22-.619-2.136-4.141,2.691-8.742,9.736-8.072,16.065-9.044,5.277-.81,10.679-1.574,16.015-.437,7.093,1.511,13.228,5.208,18.965,9.409,3.987,2.919,3.995,7.792.644,11.565-3.548,3.995-3.412,9.123-3.611,13.847-.377,8.969.317,17.979.032,26.956-.205,6.471-.884,12.936-1.188,19.419-.143,3.055,1.234,6.246-.6,9.188-.446-.218-.892-.436-1.338-.654-.379-.194-.671-.477-.876-.849-2.822-8.126-2.706-16.12.89-24.033.519-1.141.317-2.577.314-3.889-.024-9.613-.036-19.226.003-28.84.015-3.741.461-7.454,1.351-11.091.313-1.278.832-2.447,1.679-3.578,2.154-2.877,1.238-5.477-2.309-6.783-11.081-4.08-22.55-5.402-34.291-4.611-1.233.083-2.842.163-3.042,1.629-.252,1.852,1.566,2.062,2.834,2.31,3.912.767,7.815,1.705,11.831,1.713,7.284.014,11.421,4.016,11.441,11.173.021,7.608.153,15.206-1.23,22.759-.691,3.772-.135,7.629.475,11.413.372,2.303-.373,3.842-2.855,3.644-3.502-.279-5.592,1.524-7.295,4.222-1.795,2.845-3.94,5.46-5.58,8.408-4.49,2.946-4.732,7.428-4.532,12.166.285,6.769-4.091,11.2-10.797,9.982-4.363-.793-7.786-.049-11.145,2.415-.617.072-1.18-.067-1.682-.439-.292-3.798,3.635-10.162,6.936-11.357,1.44-.521,2.66-.022,3.955.472,4.429,1.692,5.685.945,6.799-3.683.38-1.578.699-3.202,1.056-4.761.992-4.324,3.633-6.664,7.534-8.036Z" fill="#0f0f0f" stroke-width="0"/>
  <path d="M229.707,414.307c-3.962-3.209-8.822-4.768-13.149-7.25-2.416-1.386-3.814-4.532-6.324-6.251-2.862-.547-4.32-2.7-5.448-5.043-1.39-2.887-2.307-5.968-3.169-9.058,1.571-4.258-.641-7.811-2.661-11.029-4.365-6.952-7.753-14.411-11.729-21.559-6.378-11.465-11.232-23.635-14.684-36.32-1.383-5.082-3.417-9.86-5.913-14.483-1.232-2.281-2.674-4.72-.007-7.076.324-.235.679-.407,1.066-.515,6.924,10.931,11.09,23.142,16.105,34.95,8.056,18.968,16.885,37.458,28.1,54.871,5.772,8.962,11.638,17.688,18.805,25.548,1.555,1.705,2.438,3.746,2.902,5.985.028,1.424-.558,1.479-1.361.526-.891-1.059-.575-3.046-2.534-3.299Z" fill="#262626" stroke-width="0"/>
  <path d="M203.488,386.562c1.297,5.199,3.578,9.933,6.747,14.245,2.596,5.183,5.209,10.357,7.776,15.554.757,1.534,1.951,2.517,3.463,3.193,2.24,1.56,4.006,3.29,2.267,6.289-1.508,1.097-2.884.523-3.888-.649-1.199-1.399-2.705-1.976-4.377-2.361-3.954-5.024-9.085-9.219-10.768-15.701-1.499-.027-1.751,1.698-3.027,1.506-2.084-.618-1.559-2.527-1.827-3.941-.46-2.428-.588-4.927-2.145-7.01-.607-.841-.901-1.738-.508-2.765,1.918-1.789,1.014-3.786.178-5.564-3.093-6.578-7.016-12.695-10.739-18.924-2.47-4.132-4.557-8.478-6.791-12.74-.453-.864-.732-1.873.106-2.758,3.808-1.214,2.915,2.785,4.723,4.167-7.522-11.51-12.5-24.112-18.659-36.091-3.15-6.126-6.053-12.519-8.819-18.905-1.489-3.437-1.687-7.154-2.692-10.693-.609-2.144.845-3.489,2.816-4.208,1.681.06,2.62-1.386,3.985-1.978.899-.117,1.322.395,1.543,1.171,1.613,2.442,3.226,4.885,4.839,7.327,0,0-.294.134-.294.134-.907.978-1.963,1.319-3.342,1.204-2.631-.221-2.889,1.338-2.189,3.372.446,1.297,1.077,2.515,1.714,3.73,7.668,14.616,14.654,29.543,20.769,44.885,1.791,4.492,4.685,8.467,6.996,12.722,4.401,8.104,9.247,15.958,12.145,24.79Z" fill="#151515" stroke-width="0"/>
  <path d="M175,274.077c-.458.489-.917.978-1.375,1.466.127,2.684.324,5.348,2.164,7.539,1.606,1.137,1.81,2.737,1.484,4.51-.412.455-.576,1.061-.933,1.546-1.751,2.387-2.289,2.349-3.63-.269-.22-.429-.387-.886-.61-1.315l-.07-.002c-2.607-.67-5.334-.469-7.946-1.101-3.58.531-5.533-2.403-8.149-3.887-2.71-1.538-5.333-3.217-8.374-4.069-.285-.276-.501-.601-.653-.968-2.236-2.511-3.932-5.174-4.189-8.75-.146-2.028-2.104-2.993-4.097-3.215-4.075-.454-8.101-1.328-12.192-1.586-4.958-.313-9.338-2.452-13.845-4.172-1.662-.634-3.155-1.722-2.187-3.979,1.658-1.127,3.419-.994,5.211-.423,4.171,2.792,8.701,4.114,13.795,4.154,4.878.038,9.799.939,14.501,1.977,2.793.617,5.906,2.546,8.229,5.177,1.442-.519,1.29-2.718,2.929-3.026.231-.093.538-.25.706-.145,3.747,2.331,6.479.73,9.118-2.092,1.425-1.524,3.479-2.091,5.589-2.21,1.679,2.386.959,5.486,2.368,7.952-.35,2.63,2.759,4.176,2.155,6.886Z" fill="#262626" stroke-width="0"/>
  <path d="M106.805,112.083c-.962.221-1.366.97-1.741,1.78-4.065,8.768-8.176,17.515-12.192,26.305-.784,1.715-1.392,3.609-1.595,5.491-.184,1.712-.531,3.624.308,5.227.746,1.426,3.374,3.039,1.53,4.683-1.114.993-2.047.279-2.978-.402-2.464-1.803-3.578-4.767-5.834-6.746-.887-.959-2.111-1.624-2.579-2.948-2.143-6.094.445-11.507,2.578-16.934.607-1.544,2.187-2.778,3.888-2.381,2.908.68,3.745-1.049,4.61-3.121,1.783-4.269,4.4-8.096,6.519-12.188.416-.804.953-1.464,1.901-1.672,2.391-.039,5.101-.702,5.584,2.907Z" fill="#191919" stroke-width="0"/>
  <path d="M129.571,176.525c3.433,8.083,5.617,16.57,6.848,25.189,1.654,11.584,5.333,22.555,8.817,33.615,1.833,5.82,4.003,11.543,5.113,17.574.297.537.421,1.096.212,1.698-2.994.968-3.951.357-5.44-3.412-2.141-5.419-3.812-10.991-5.435-16.579-1.152-3.966-1.814-8.116-4.26-11.607-1.355-1.761-1.446-3.953-2.033-5.98-1.128-7.305-1.862-14.661-2.951-21.968-.569-3.82-1.443-7.562-2.875-11.19-1.001-2.539-1.685-5.269.809-7.539.426-.103.825-.036,1.195.199Z" fill="#212121" stroke-width="0"/>
  <path d="M85.063,147.349c3.051,1.85,3.565,6.194,7.737,7.828-.804-2.411-2.237-4.165-1.715-6.331-.11.459,1.207,1.719,1.512,2.017.635.621,1.36,1.122,2.121,1.575,1.778,1.06,2.871,1.733,4.593,2.915,1.248.857,2.272,1.704,3.696,2.666.269.181.931,1.118,1.012,1.435.088.345-.097.652-.205.983-.212.652-.34,1.333-.349,2.019-.033,2.524,1.566,4.57,2.987,6.503.48.653.956,1.31,1.37,2.007.316.53.657,1.042.778,1.657.429,3.081,1.988,5.698,3.583,8.255,3.336,5.346,6.851,10.598,8.927,16.602,1.353,3.912,4.06,6.762,6.908,9.549,2.796,2.829,5.208,5.877,5.703,10.017-.063.382-.228.713-.497.992-.739.414-1.637.375-1.996-.271-2.051-3.683-5.967-5.621-8.296-9.023-5.222-8.314-10.611-16.516-15.492-25.056-1.765-3.089-3.409-6.106-4.62-9.431-1.173-3.224-2.935-5.951-6.376-7.373-2.705-1.118-3.684-3.919-4.89-6.303-1.187-2.345-2.559-4.434-4.715-5.962-.562-1.785-1.462-3.378-2.731-4.76.055-.937-1.149-2.353.954-2.511Z" fill="#333" stroke-width="0"/>
  <path d="M106.805,112.083c-1.828-1.189-3.869-1.49-5.995-1.434-.501.353-1.049.621-1.605.874-.995.28-2.019.321-3.042.38-1.529-.547-3.024-.746-4.718-.624-4.875.352-8.421-2.845-8.928-7.721-.115-1.106-.227-2.348.722-3.152,4.139-3.506,8.742-5.881,14.371-5.542,1.819.11,3.053,1.262,3.731,2.739,2.546,5.543,6.92,9.605,10.972,13.936.384.478.805.924,1.237,1.36.02.301,3.928,1.726,3.948,2.027-3.323.207-8.426-2.265-10.693-2.843Z" fill="#060606" stroke-width="0"/>
  <path d="M126.901,101.499c1.136-10.521,4.078-26.926,4.991-37.466.933-10.764.64-21.587-4.697-31.277-2.985-5.419-7.733-9.722-13.205-12.933-1.168-.685-2.612-.91-3.44-2.142,1.566.221,3.132.441,4.697.662,9.783,5.632,16.746,13.525,17.84,25.076,1.542,16.272,2.209,30.699-2.54,46.614-.377,1.265-2.893,9.758-3.648,11.466Z" fill="#373737" stroke-width="0"/>
  <path d="M129.571,176.525c-.344.034-.688.068-1.031.102-1.562.059-2.528-1.046-3.469-1.98-3.884-3.853-9.174-4.716-14.272-7.286.109,3.102,1.531,4.937,3.115,6.58,2.426,2.518,4.572,5.279,6.95,7.82,2.776,2.967,3.243,6.655,3.894,10.308.292,1.636-.386,2.965-2.354,3.108-1.945-.444-2.844-1.728-3.233-3.639-.478-2.349-1.375-4.715-3.108-6.299-4.079-3.728-6.199-8.565-8.383-13.42-1.283-2.088-2.873-4.029-3.689-6.338-.799-2.261-1.459-4.719,1.46-6.208,5.549,2.34,11.289,4.242,16.347,7.665,3.591,2.43,6.547,5.284,7.774,9.588Z" fill="#222" stroke-width="0"/>
  <path d="M170.477,259.239c-2.659,3.034-6.167,5.085-9.09,7.863-2.978,2.83-4.122-1.26-5.857-2.759-3.404.036-5.41-2.802-8.219-4.001-.161-2.212.608-3.911,2.69-4.886,2.307.423,4.508-.049,6.677-.798,3.801-.383,6.827,1.995,10.272,2.872,1.397.112,2.666.489,3.527,1.708Z" fill="#1d1d1d" stroke-width="0"/>
  <path d="M166.95,257.53c-3.65.209-7.149-.733-10.684-1.406-1.688.77-3.133-.712-4.756-.531-.531-.189-.991-.456-1.227-1.003.022-.562.044-1.125.065-1.687,1.903,1.828,4.111.941,5.906.179,3.18-1.35,5.43-.746,7.486,1.938.799,1.044,2.123,1.685,3.208,2.51Z" fill="#262626" stroke-width="0"/>
  <path d="M229.707,414.307c-.571-1.094-1.141-2.187-1.945-3.728,3.303,1.402,3.196,5.197,5.839,6.501,1.288,2.201,2.535,4.425,3.848,6.611,1.242,2.066,2.353,3.832,1.793,6.324-3.601-4.979-6.489-10.392-9.535-15.708Z" fill="#323232" stroke-width="0"/>
  <path d="M175.789,283.082c-4.817-1.355-5.547-3.898-2.164-7.539,3.248,1.787,3.997,4.293,2.164,7.539Z" fill="#303030" stroke-width="0"/>
  <path d="M105.45,159.272c-1.826,3.051-.708,5.843.745,8.614.732,1.397,1.433,2.81,2.149,4.216.208.739-.121.933-.792.781-.546-.821-1.023-1.699-1.648-2.454-3.037-3.664-4.909-7.577-2.897-12.411.814.418,1.629.836,2.443,1.254Z" fill="#484848" stroke-width="0"/>
  <path d="M172.1,287.555c1.708,2.277,3.433,2.113,5.172.038.022.362.13.744.052,1.083-.504,2.203-2.197,3.683-4.144,3.377-2.976-.467-.531-3.001-1.08-4.498Z" fill="#4e4e4e" stroke-width="0"/>
  <path d="M175,274.077c-3.431-1.446-2.953-4.116-2.155-6.886,1.318,2.108,3.928,3.81,2.155,6.886Z" fill="#464646" stroke-width="0"/>
  <path d="M163.578,285.901c2.802.63,6.028-.91,8.453,1.652-.502.017-1.005.034-1.507.051-1.582.036-3.281.791-4.609-.747-1.296-.033-2.85-.579-3.064,1.541-.453-.246-.907-.492-1.36-.738-.261-1.722.703-1.99,2.087-1.759Z" fill="#646464" stroke-width="0"/>
  <path d="M165.915,286.857c1.568.052,3.198-.275,4.609.747-1.868,1.799-3.708,3.426-4.609-.747Z" fill="#262626" stroke-width="0"/>
  <path d="M52.093,298.838c-1.356-5.123-2.528-10.307-5.218-14.971-.803-1.393-1.466-2.865-1.529-4.523,1.639-.588,2.144.566,2.785,1.705,3.378,6,6.09,12.241,7.812,18.947,1.684,6.557,4.438,12.847,3.957,19.872-.174,2.543,1.658,4.688,1.811,7.474.553,10.065-2.148,20.072-.3,30.125.567,3.086,1.176,6.106,2.988,8.775,1.734,2.554,1.875,5.767,2.191,8.553.694,6.124,3.292,11.544,5.161,17.207,2.227,6.748,1.286,13.54,1.266,20.337-.003,1.101-.534,2.24-.297,3.334,1.668,7.723,1.214,15.843,4.478,23.282.799,1.82,1.883,4.112-1.116,5.324-6.538-11.178-13.306-22.229-19.562-33.563-3.355-6.079-6.102-12.503-7.838-19.235-1.64-6.361-2.343-12.915-2.383-19.476-.036-6.024.406-12.075,1.11-18.055.083-.709.175-1.423.404-2.1.247-.73.653-1.405,1.18-1.968.683-.729,1.552-1.257,2.291-1.929,1.234-1.122,2.08-2.628,2.587-4.217.582-1.825.725-3.747.767-5.652.16-7.283.962-14.562.564-21.836-.185-3.37-1.031-6.752-1.886-10.05-.632-2.436-1.078-4.863-1.223-7.361Z" fill="#343434" stroke-width="0"/>
  <path d="M76.082,444.28c.699-1.431.773-2.916.139-4.355-3.272-7.413-2.961-15.672-5.513-23.254-.233-.693-.525-1.622-.256-2.187,2.348-4.922-.079-10.101.942-15.149.726-3.59-1.258-7.14-2.451-10.456-1.733-4.817-3.61-9.587-4.155-14.651-.688-6.399-5.468-11.38-5.596-17.993-.07-3.606.031-7.223-.132-10.797-.242-5.295,1.125-10.442.394-15.817-1.517-11.158-2.233-22.406-5.899-33.202-2.056-6.054-4.695-11.756-8.208-17.074-3.985-5.306-6.789-11.344-9.384-17.323-3.962-9.129-7.029-18.657-10.248-28.094-2.863-8.396-4.667-17.016-5.169-25.936-.434-7.706-1.598-15.369-1.429-23.117.39-.258.773-.247,1.149.031.689.618.728,1.474.851,2.301.036,4.94,1.15,9.713,1.986,14.556,1.89,10.951,3.38,21.897,7.057,32.537,1.659,4.801,2.409,9.999,4.578,14.747.83,1.816,2.108,3.387,2.694,5.306-.115,1.732.857,3.179,1.529,4.598,4.615,9.759,8.932,19.681,14.894,28.752,1.664,7.197,4.911,13.731,7.893,20.439,2.175,4.893,2.688,10.581,3.461,16.027.959,6.754.9,13.457.129,20.217-.468,4.103.336,8.154,1.432,12.12,1.066,3.858.142,7.956,1.41,11.778,2.135,6.436,2.523,13.302,5.171,19.646,2.164,5.183,3.081,10.635,3.409,16.397.412,7.249-.922,14.426-.272,21.537.51,5.577,1.569,11.251,3.607,16.597,1.322,2.843.768,6.225,2.543,8.943.532,1.584,1.337,3.117.937,4.882,1.175,1.912,1.442,4.278,2.994,6.001-.321.784-.642,1.568-.963,2.352-3.175-6.786-6.349-13.573-9.524-20.359Z" fill="#303030" stroke-width="0"/>
  <path d="M216.231,421.8c3.007-.115,4.498,2.503,6.751,3.747.592.246,1.149.574,1.251,1.258.8,5.359,3.846,9.926,5.292,15.059.491,1.741.772,3.43.021,5.147-1.269,1.58-1.724,3.56-2.615,5.321-.658,1.302-.804,3.329-3.063,3.164-.692-2.695-2.964-5.3-.407-8.18.44-.496.355-.967-.258-1.52-5.677-5.124-10.872-10.573-15.135-17.076-4.242-6.471-6.975-13.344-8.727-20.731-.739-3.115-1.24-6.286-1.85-9.432,0-.626.241-1.131.753-1.501,2.028,2.089,2.114,4.802,2.503,7.457.189,1.296.815,2.528,1.243,3.789,1.325-.069,2.04.835,2.638,1.781,2.555,4.041,6.765,6.67,9.185,10.828.514.883,1.229,1.639,2.417.888Z" fill="#121212" stroke-width="0"/>
  <path d="M162.76,341.692c2.944-2.711,1.374-5.721.03-8.206-4.088-7.555-6.868-15.705-10.925-23.263-1.533-2.857-2.655-5.889-3.088-9.135.308-.279.659-.353,1.045-.217,2.308,2.541,3.702,5.686,5.33,8.624,2.939,5.303,6.057,10.539,8.271,16.223,3.865,8.04,7.098,16.361,11.834,24.01,3.123,5.045,4.958,10.807,6.635,16.527.418,1.427,1.102,3.291-1.417,3.765-5.905-9.442-11.81-18.884-17.715-28.327Z" fill="#080808" stroke-width="0"/>
  <path d="M180.475,370.018c1.046-3.128-.249-5.888-1.551-8.541-4.697-9.575-9.505-19.096-14.277-28.635-1.115-2.228-2.172-4.472-2.382-7.006,1.742-.409,2.057.973,2.549,2.073,4.683,10.46,10.513,20.343,15.493,30.645,5.05,10.448,11.97,19.837,16.763,30.407.946,2.086,2.521,4.09,1.175,6.597-.375.5-.375,1,0,1.5-.251.5-.502,1-.753,1.501-5.065-9.875-12.049-18.606-17.017-28.539Z" fill="#0e0e0e" stroke-width="0"/>
  <path d="M228.234,446.55c.98-4.904-1.627-8.956-3.386-13.112-1.098-2.595-2.002-5.077-1.866-7.891,1.047-2.388-.764-4.056-1.509-5.993,2.238-2.307,2.353.516,2.857,1.379,1.18,2.019,2.408,3.657,5.658,3.376-2.908-2.373-1.633-6.048-3.851-8.426,2.469.512,2.891,2.964,4.324,4.419,2.521,2.967,3.157,6.882,5.107,10.162,1.448,2.435,3.204,5.345,2.891,8.3-.124,1.171-.832,3.281-2.154,3.456-1.505.199-2.212-1.64-2.535-2.742-.765-2.606-1.605-5.182-3.255-7.406-.385-.519-.512-1.371-1.447-.77-.97,1.769.184,3.083.81,4.546,1.244,2.906,2.941,5.712,2.401,9.098-.349,1.413-1.209,2.566-1.909,3.8-.71.777-1.42,1.554-2.13,2.331-1.268-1.507-.6-3.017-.005-4.526Z" fill="#2a2a2a" stroke-width="0"/>
  <path d="M230.368,448.745c-.181-1.34.07-2.584.821-3.718,1.588-2.369.539-4.634-.387-6.825-1.393-3.297-2.85-6.573-4.767-9.615.606-1.594,1.418-1.806,2.746-.614,2.482,2.226,4.259,4.904,5.193,8.067.642,2.175,1.579,4.19,2.602,6.185-1.881,2.353-3.534,4.925-6.21,6.521Z" fill="#131313" stroke-width="0"/>
  <path d="M238.67,438.28c-4.06-5.388-6.826-11.367-8.209-17.978,3.268.741,3.157,4.053,4.593,6.163,2.152,3.161,3.655,6.672,4.459,10.446-.281.457-.562.913-.843,1.37Z" fill="#111" stroke-width="0"/>
  <path d="M228.234,446.55c.002,1.509.003,3.017.005,4.526-.528,1.462-.932,2.985-1.616,4.37-.768,1.556-1.8,2.012-2.753.051,2.794-2.328,2.274-6.275,4.365-8.947Z" fill="#1f1f1f" stroke-width="0"/>
  <path d="M63.974,103.867c.045-.241.091-.482.136-.724,2.092-6.982,2.229-14.153,2.072-21.355-.043-1.976-.178-4.018,2.008-5.125,2.808-.723,3.51-2.18,2.346-5.023-1.743-4.26-2.106-8.888-2.792-13.409-.289-.83-.824-1.494-1.439-2.116-1.716-1.442-3.171-3.148-5.127-4.326-1.685-1.015-2.441-2.628-2.426-4.704.025-3.635.777-7.194.938-10.816.065-1.464.73-3.055,2.888-2.093h.022c.27,2.395-.804,4.916.667,7.201.437,2.541,1.198,3.74,4.46,3.135,9.77-1.811,17.078,3.002,20.071,12.544.899,2.867,1.583,5.795,1.925,8.765.535,4.652.41,9.143-2.739,13.167-2.148,2.746-3.081,6.081-3.063,9.677.024,4.561-.208,4.786-4.768,4.972-2.887.118-3.626,2.073-4.366,4.315-1.334,4.041-5.215,6.842-9.29,6.849-.646.001-1.179-.354-1.523-.933Z" fill="#272727" stroke-width="0"/>
  <path d="M63.974,103.867c5.377-1.65,9.943-3.954,9.947-10.713.001-2.6,1.834-2.439,3.762-1.83,4.74,1.498,4.943,1.361,5.131-3.719.114-3.073.786-6.134,2.443-8.547,3.806-5.54,3.066-11.316,1.827-17.26-1.227-5.888-3.225-11.093-8.951-14.404-3.7-2.14-7.273-2.121-11.149-1.599-3.885.524-5.088-.478-5.149-4.125,4.214,1.859,8.407.39,12.6-.102,2.614-.306,4.9.788,7.196,1.67,3.255,1.251,6.373,2.218,10.031,1.556,3.966-.718,7.048,2.714,6.426,6.911-.639,4.309-.849,8.605-.652,12.936,0,.385-.001.772-.006,1.157-1.43,4.714-4.058,8.768-7.034,12.616-3.119,4.034-4.899,8.585-5.448,13.636-.151,2.493-.409,4.778-3.949,4.293-1.06-.145-1.557,1.065-1.889,1.992-.803,2.239-2.007,4.314-2.473,6.698-.688,3.513-3.067,5.415-6.538,4.762-3.857-.726-6.067.728-7.697,4.081-1.275,2.623-3.379,4.842-3.796,7.888-.301,1.752-1.688,2.014-3.088,2.259-1.213.357-2.351.435-3.124-.841-.49-3.258,2.822-3.949,4.079-6.032,4.044-3.556,5.727-8.446,7.5-13.285Z" fill="#212121" stroke-width="0"/>
  <path d="M22.073,133.06c1.853-3.17,4.764-5.876,7.419-7.721,1.288.459,1.863,1.329,2.001,2.737.8,8.199,3.086,16.025,6.065,23.675,2.536,6.51,3.367,13.136,2.37,20.171-.978,6.903,1.142,13.529,3.396,20.023.896,2.582,2.026,5.082,2.711,7.738,1.566,6.509,3.516,12.906,5.458,19.308.482,1.588.713,3.463-.648,4.966-2.147.582-2.638-1.115-3.006-2.471-1.917-7.054-5.556-13.507-7.156-20.674-.13-.581-.479-1.305-1.012-1.894-5.327-5.886-5.349-13.709-7.302-20.797-.639-2.32-1.397-4.65-1.841-7.09-1.39-7.636-2.402-15.372-4.596-22.844-.374-1.275-.624-2.833-1.505-3.747-3.236-3.358-3.377-7.214-2.354-11.378Z" fill="#262626" stroke-width="0"/>
  <path d="M44.598,199.868c-1.995-6.791-4.804-13.322-6.223-20.308-.474-2.332-1.199-4.523-.595-6.936,1.933-7.718.298-15.1-2.43-22.289-3.068-8.085-4.352-16.56-5.859-24.995,1.235-1.168,2.279-1.972,3.739-2.983,4.871-1.31,9.677-3.03,14.862-2.355,1.107.306,2.563.128,2.617,1.891-.535.416-1.072.455-1.613.01-.5-.003-1.001-.005-1.501-.008-3.3,1.11-6.887,1.23-9.79,3.682-3.113,2.629-3.837,4.145-2.731,8.024,2.05,7.193,3.92,14.433,6.888,21.341,2.539,5.909,3.396,12.078,2.314,18.505-1.309,7.777,1.116,14.981,3.399,22.276,2.356,7.53,6.553,14.356,8.164,22.141.498,1.25.997,2.5,1.495,3.75,1.545,7.995,2.725,16.067,5.108,23.883.148.486-.002.987-.2,1.454-2.843,1.756-4.118-.448-4.883-2.36-3.131-7.823-5.165-15.924-6.104-24.345-.521-4.67-2.828-8.931-4.4-13.348-.828-2.326-1.697-4.624-2.257-7.031Z" fill="#1c1c1c" stroke-width="0"/>
  <path d="M22.073,133.06c1.874,9.006,6.866,17.094,7.757,26.389,1.086,11.338,4.749,22.102,7.385,33.094.173.72.334,1.527.767,2.089,6.376,8.278,8.828,18.228,11.967,27.888.152.468.427.897.644,1.345,1.171.41,1.498,1.418,1.673,2.478,1.028,6.243,3.095,12.199,4.893,18.238,2.472,8.307,4.194,16.785,4.757,25.463.396.878,1.152,1.59,1.217,2.624-.041.402-.2.749-.475,1.045-1.9.904-3.386-.113-4.891-1.051-.657-.745-.965-1.686-1.406-2.552-.256-1.316-.827-2.559-.921-3.917-3.274-9.218-3.895-19.065-6.632-28.37-1.66-5.642-3.541-11.333-5.132-16.941-1.753-6.181-4.038-12.241-5.781-18.429-1.663-5.904-2.873-12.13-5.899-17.646-1.694-5.092-2.916-10.291-3.538-15.626-.005-2.271-1.071-4.196-1.756-6.281-3.018-9.193-6.573-18.366-5.4-28.383,0,0,.37-.836.772-1.457Z" fill="#303030" stroke-width="0"/>
  <path d="M62.519,34.126c-.023.035-.052.067-.088.096-.086.069-.197.097-.303.13-1.286.402-1.721,1.543-1.473,2.769.166.823.205,1.655.162,2.492-.087,1.678-.478,3.328-.504,5.012-.045,2.923.262,5.328,3.683,6.384,2.14.66,2.458,3.294,3.825,4.863.155,1.861-1.584,2.518-2.381,3.774-1.103,4.318-.024,8.148,2.568,11.646.533,1.861,2.049,3.493,1.314,5.647-2.481,5.254-1.874,11.066-2.975,16.571-.647,3.236-.429,6.666-2.236,9.632,2.695-11.5.553-22.311-3.474-33.274-3.87-10.535-4.455-21.703-1.931-32.829.467-2.059,1.01-4.113,2.222-5.902.166-.245.758-.465,1.015-.622.321-.197.837-.674,1.202-.738.678-.118.832,1.027.587,1.547-.311.662-1.146,1.074-1.178,1.805-.014.336.132.741-.035.997Z" fill="#2d2d2d" stroke-width="0"/>
  <path d="M21.301,134.517c1.557,6.63,3.337,13.217,4.598,19.902.942,4.997,3.982,9.437,3.707,14.713-1.932.66-2.487-1.44-3.85-1.913-2.705-1.224-5.047-1.607-5.961,2.197-.231.963-.926,1.758-2.178,1.213.518-4.925-1.118-9.614-1.583-14.431.629-7.501,1.799-14.871,5.268-21.682Z" fill="#333" stroke-width="0"/>
  <path d="M48.283,120.441c-4.31.986-8.844.802-13.021,2.518-.734.302-1.439-.109-2.032-.602,4.572-3.594,9.596-4.487,15.096-2.523.5.24.485.442-.044.607Z" fill="#2d2d2d" stroke-width="0"/>
  <path d="M48.283,120.441c.012-.202.026-.405.044-.607,3.174.5,5.64-1.116,8.147-2.682-1.124,1.891-1.606,4.208-3.634,5.501-1.099.786-1.772.306-2.25-.757-.769-.485-1.538-.971-2.308-1.456Z" fill="#3c3c3c" stroke-width="0"/>
  <path d="M97.812,358.068c1.773,10.968,1.186,22.178,3.387,33.102.201.997.399,2.085-.518,2.783-1.098.836-2.143.066-3.126-.438-2.153-1.105-3.597-2.734-3.46-5.308.163-3.054-.55-5.939-1.438-8.82-2.129-6.909-.82-14.084-1.513-21.114-.335-3.396-.634-6.71-2.229-9.765-2.892-5.54-3.284-11.723-4.636-17.664-2.85-12.523-5.414-25.094-10.529-37.021-2.644-6.165-5.532-12.292-7.221-18.864-.807-3.138.326-3.406,2.802-2.362,1.554,3.065,2.515,6.431,4.648,9.199,1.067,1.384,2.501,2.498,4.123,1.295,6.068-4.502,12.987-3.297,19.736-3.145,1.672.038,3.333-.264,5.009-.175.734.039,1.845.134,2.463.563.504.35-.084.876-.22,1.242-.249.672-.001,1.804-.427,2.336-.493.616-1.265.148-1.905.303-.803.194-2.026.365-2.599,1.034-2.373,2.77-5.235,4.138-9.027,4.429-3.51.27-6.172,5.684-5.666,10.63.394,3.845,1.302,7.628,2.517,11.294,3.825,11.543,6.957,23.235,8.246,35.37.264,2.484,1.094,4.859,1.956,7.206.387,1.347,1.187,2.732-.372,3.89Z" fill="#0e0e0e" stroke-width="0"/>
  <path d="M112.801,408.303c-1.555-.805-2.083-2.431-2.997-3.749-.195-.953-.69-1.707-1.5-2.249-1.25-4.748-2.5-9.496-3.75-14.244-.48-.635-.691-1.313-.338-2.082q2.5-.059,3.847,3.944c-.889-2.427-1.103-5.001-1.458-7.524-.666-4.723.782-8.039,5.234-10.86,5.542-3.513,11.004-7.287,16.205-11.362.902-.707,1.732-1.522,2.046-2.619.787-2.752,2.449-4.761,4.586-6.64,2.454-2.157,2.223-4.535-.736-5.982-3.28-1.604-3.966-4.344-4.127-7.357-.227-4.238-.942-8.435-.917-12.693.013-2.315-.621-4.481-2.447-6.065-2.036-1.767-3.892-1.139-4.181,1.532-.309,2.852-.12,5.715.313,8.58.909,6.021-2.527,9.467-8.47,10.697-8.062,1.669-11.71,3.971-11.421,14.105.061,2.128.614,4.558-2.906,4.198-.53-.282-.902-.7-1.116-1.261-.21-.949-.497-1.884-.47-2.87-.178-3.378.084-6.727.718-10.046.761-3.984,2.587-7.114,6.931-7.865,1.129-.195,1.81-.815,2.432-1.521,1.345-1.528,3.002-2.25,4.954-2.725,4.107-.999,5.086-2.485,4.241-6.64-.58-2.852-.475-5.697-.527-8.552-.035-1.914.481-3.707,1.732-5.206,1.346-1.613,2.835-2.377,4.833-.897.787.583,1.715,1.017,2.56,1.538,2.153,1.327,4.016,1.477,6.062-.432,1.985-1.851,3.799-1.461,4.475,1.053.935,3.479,1.371,7.088-1.083,10.34-2.571,3.407-2.073,7.303-1.233,11.047.494,2.203,5.703,2.815,7.738,1.113.991-2.332.2-5.307,2.595-7.116,2.752,1.619,2.427,3.464.407,5.434.345,4.188.584,8.43,2.276,12.329,1.622,3.738,1.155,7.8,2.196,11.61,1.038,3.798,1.156,3.857,4.517,1.552.354.188.62.461.8.818.566,2.134-1.159,3.451-1.944,5.044-1.373,2.784-2.419,5.732-4.075,8.375-2.607,2.561-3.187,6.155-4.775,9.234-1.071,2.076-1.595,5.719-4.562,5.129-3.007-.598-1.251-3.962-1.533-6.092-.938-7.102,1.006-14.034,1.535-21.388-2.204.11-3.133,1.68-3.879,3.091-2.153,4.072-5.348,6.659-9.658,8.324-3.712,1.434-6.988,3.837-10.282,6.103-1.409.969-2.6,2.134-2.275,3.98.976,5.551-.009,11.223,1.199,16.777.507,2.332,1.435,4.524,1.869,6.848.552,2.955-.61,3.936-3.642,3.244Z" fill="#1f1f1f" stroke-width="0"/>
  <path d="M66.39,265.294c.386-1.972.928-4.04,1.175-6.143.513-4.367.619-8.69-1.359-12.847-2.005-4.215-2.48-8.883-3.606-13.358-3.129-12.44-6.565-24.811-9.319-37.333-1.656-7.53-2.65-15.262-3.244-22.956-.72-9.33-3.802-18.02-6.061-26.951-1.29-5.1-1.288-10.375-.013-15.531.748-3.028,2.593-3.543,4.849-1.375,3.195,3.07,5.235,6.683,4.343,11.354-.241,1.259-.371,2.546.259,3.669,4.503,8.023,3.361,16.952,4.364,25.571.861,7.396-.748,14.934,1.526,22.204.037.118.105.289.054.363-3.193,4.625,1.386,8.425,1.418,12.791.035,4.816,1.109,9.649,1.986,14.428.856,4.665,1.958,9.289,3.092,13.897,1.106,4.495,3.125,8.732,4.96,12.899,2.692,6.116,2.419,12.352,2.772,18.63.131,2.324-2.617,4.957-4.848,4.748-2.514-.235-2.299-2.179-2.346-4.058Z" fill="#0e0e0e" stroke-width="0"/>
  <path d="M55.098,122.66c1.136-.23,2.156-.689,2.991-1.514.25-.259.499-.272.749,0,.5,0,.999,0,1.499,0,2.839-1.384,5.748-1.907,8.949-1.409,3.027.471,6.031-.058,8.828-1.462,3.769-1.892,4.816-3.928,4.224-7.955-.105-.714-.259-1.432-.323-2.166-.377-4.311-1.668-8.928,4.156-10.851.057-.631.367-1.127.827-1.543,2.13-1.936,3.828-4.229,5.568-6.506,2.713-3.551,5.156-3.595,8.194-.166,2.995,3.381,5.238,7.234,6.266,11.673.834,3.602,2.215,6.859,5.015,9.384.591.914.827,1.831.014,2.753-4.568-4.349-9.32-8.541-12.274-14.274-.48-.931-1.11-1.631-2.15-1.911-3.137-.845-11.228,1.891-13.246,4.486-1.711,2.2.241,6.643,3.604,7.659,2.708.818,5.545,1.211,8.325,1.793.351,1.484-.672,2.353-1.661,2.919-5.564,3.191-8.461,8.455-11.1,13.945-1.498,3.117-1.952,6.706-4.356,9.422-.898,1.015-.561,2.058.322,2.994.898.951,1.611,1.972.565,3.28-.303.23-.639.381-1.014.448-3.685-1.042-7.356-.962-10.936.367-2.385.885-4.629.146-6.93-.243-1.801-1.189-.897-3.227-1.519-4.771-.546-1.357-.31-2.954-1.331-4.144-.127-.655.056-1.224.483-1.725.477-1.5,1.402-2.999,0-4.499-2.287-1.344-5.563-2.068-3.74-5.983Z" fill="#090909" stroke-width="0"/>
  <path d="M148.022,277.106c.002.245.005.491.008.736-.81.985-2.22,1.17-3.072,1.005-4.458-.865-8.845.956-13.247.15-1.149-.21-2.279-.191-3.301.137-7.441,2.387-14.843.914-22.198-.298-3.11-.513-6.149-.638-9.261-.479-3.25.165-6.208-.523-8.13-3.516-3.259-2.096-7.247-1.634-10.713-3.061-1.915-.789-3.049-1.387-2.347-4.017.818-3.068-.476-6.413.423-9.613.536-1.907.318-4.454,1.978-5.502,3.512-2.218,1.978-3.688.021-5.864-8.948-9.948-12.679-22.075-14.044-35.073-1.258-11.979-3.856-23.794-4.326-35.865-.087-2.239-.151-4.479-.225-6.718.921-.219,1.573.283,1.632,1.066.251,3.371,1.857,6.568,1.674,9.922-.469,8.606,2.317,16.734,3.302,25.117.593,5.046,1.657,10.002,2.527,14.997,1.121,6.442,4.535,11.802,7.788,17.23,1.243,2.074,3.915,2.498,5.715,3.989,2.727,2.392,5.148,5.105,7.852,7.54,2.349,2.115,2.236,4.35-.554,5.661-5.78,2.715-4.33,8.415-5.719,12.844-.644,2.054,2.891,4.138,5.431,3.381,1.487-.443,2.871-.703,4.366-.264,2.55.745,5.157.862,7.788.883,12.477.102,24.917.635,37.148,3.43,3.162.723,6.746-.395,9.485,2.179Z" fill="#151515" stroke-width="0"/>
  <path d="M104.554,385.811c0,.75,0,1.5.001,2.25-3.643-5.058-3.332-11.001-3.741-16.779-.322-4.562-.496-9.151-3.002-13.214-.25-1.249-.5-2.499-.75-3.748-2.076-5.726-1.205-11.85-2.405-17.712-.913-4.46-1.443-8.984-3.254-13.228-.735-1.724-.86-3.641-1.114-5.487-.283-2.057-.174-4.118,2.207-4.993,2.427-.891,3.677.643,4.763,2.49,1.074,1.827,2.127,3.693,3.733,5.124,1.496,1.333,2.865,1.283,4.051-.503,3.075-4.63,4.626-9.015,1.015-14.459-3.145-4.742-5.119-10.227-5.992-16.015-.447-2.963.095-5.175,2.991-6.444h0c3.008-1.683,6.456-1.192,9.469,1.365,1.044.886,2.015,1.896,2.738,3.021,1.406,2.188,2.651,3.294,4.687.584.862-1.147,2.2-.859,3.387-.188,1.728.978,3.393,2.031,4.7,3.569.649,1.634,2.643,2.776,1.861,4.946-.201.319-.486.545-.804.751-1.303.842-3.198-1.403-4.051.498-.807,1.797.833,3.547.93,5.416.041.789.81,1.218,1.333,1.744.766,2.08,2.199,3.331,4.451,3.578,1.357,1.7.449,2.951-.834,4.097-1.297,1.159-2.649,1.116-3.994.075-1.258-.974-2.634-1.794-3.802-2.885-.819-2.866-2.213-5.333-4.246-7.621-2.989-3.364-4.459-7.777-7.078-11.409-1.213-1.682-2.714-4.552-5.21-2.97-2.269,1.439-.269,3.89.479,5.718,1.19,2.909,3.015,5.529,5.415,7.538,3.393,2.839,4.078,6.43,3.465,10.452-.427,2.805-.774,5.556-.173,8.388.189.888.282,2.097-.217,2.815-2.751,3.957-5.553,8.252-10.499,9.372-3.577.81-5.756,3.025-5.85,5.836-.21,6.239-1.635,12.545.095,18.784.251.251.503.502.754.753,1.94.995,2.573,2.84,3.104,4.756-.638,5.947-.316,11.784,2.003,17.399.284.687.269,1.459.321,2.202.112,1.474-.197,2.853-.94,4.133Z" fill="#171717" stroke-width="0"/>
  <path d="M71.579,296.59c-.877-.81-1.544-2.299-3.048-1.571-2.858,1.383-4.17-.644-5.528-2.392-2.396-3.084-4.145-6.592-5.382-10.247-3.021-8.928-9.793-15.889-12.709-24.861-4.301-13.233-11.977-25.277-13.806-39.402-.304-2.345-.71-4.676-.873-7.043-.512-7.439-4.182-13.733-7.369-20.2-1.25-.695-1.513-2.089-1.595-3.184-.356-4.723-.935-9.511.628-14.129.623-1.84,1.535-3.675,3.734-4.232,2.757.621,2.653,3.29,3.233,5.163.435,1.405-1.297,1.951-2.7,2.432-1.788.613-2.588,5.531-1.903,8.92,1.131,5.598,4.06,10.361,7.12,14.98,2.468,3.726,3.352,7.657,3.358,11.986.012,9.027,1.922,17.53,7.052,25.147,1.698,2.521,4.107,3.884,6.861,4.835,1.4,2.861,1.983,5.928,2.289,9.063-1.318,3.622.694,8.79,2.399,11.953,3.186,5.91,5.251,9.967,7.833,16.153,2.109,5.052,5.85,8.556,9.645,12.135.256.747.511,1.495.767,2.242.502.751.59,1.502-.004,2.252Z" fill="#222" stroke-width="0"/>
  <path d="M55.839,217.865c-3.678-7.741-7.891-15.254-10.418-23.493-.76-2.479-1.828-4.826-2.521-7.362-1.742-6.379-.39-12.632-.152-18.913.259-6.846-1.986-13.014-4.528-19.098-2.273-5.441-3.464-11.194-5.329-16.747-.822-2.448.243-4.604,2.262-6.29,3.621-3.023,7.709-4.506,12.443-4.066-2.291,2.271-5.774,1.949-8.296,4.018-2.469,2.026-3.387,4.066-2.584,7.107,2.004,7.587,3.425,15.357,6.949,22.465,3.407,6.871,3.084,14.233,3.249,21.612.214,9.569,2.248,18.848,5.794,27.765,1.665,4.187,3.25,8.387,3.131,13.002Z" fill="#141414" stroke-width="0"/>
  <path d="M88.068,274.848c6.03,2.498,12.634,2.97,18.988,5.172-1.007,1.925-2.793,1-3.997,1.574-4.453,0-8.908.049-13.36-.013-4.113-.057-7.871.781-10.965,3.712-2.115,2.003-3.763,1.691-5.403-.813-1.777-2.714-3.319-5.48-4.423-8.54-.477-1.323-.67-2.343.423-3.343,6.246.75,12.491,1.5,18.737,2.25Z" fill="#080808" stroke-width="0"/>
  <path d="M82.069,242.61c-3.561-1.447-6.08-3.792-8.242-7.146-5.398-8.377-7.043-17.745-8.469-27.268-.682-4.559-1.36-9.125-2.259-13.644-.732-3.683-1.407-7.334-1.284-11.117.159-4.895-1.483-9.535-2.228-14.304,0-.75,0-1.5,0-2.249-.539-4.552-.189-9.151-.745-13.705-.159-1.303-.609-2.749.842-3.722,1.052.03,1.577.717,1.645,1.621.261,3.492,2.139,6.698,1.83,10.277-.003,1.07.408,2.098.436,3.169-1.118,10.706.846,21.2,3.281,31.447,2.192,9.222,2.579,18.804,5.845,27.774,1.271,3.491,2.365,7.06,4.617,10.096,1.446,2.758,3.248,5.289,5.101,7.784-.002.374-.119.706-.369.987Z" fill="#181818" stroke-width="0"/>
  <path d="M70.815,292.096c-3.714-1.138-7.255-2.681-8.806-6.544-2.084-5.191-4.723-10.121-6.518-15.477-1.181-3.523-3.633-6.692-5.202-10.206-1.129-2.53-1.688-4.921-.468-7.515,1.443.019,1.83,1.089,2.061,2.195,1.101,5.279,3.301,10.154,5.456,15.047.493.514.986,1.028,1.479,1.541,4.671,3.717,5.339,9.969,9.043,14.297.25.464.353,1.004.717,1.412.746,1.75,1.492,3.499,2.238,5.249Z" fill="#212121" stroke-width="0"/>
  <path d="M61.835,247.105c-.512-5.205-2.626-10.036-3.501-15.196-.585-3.451-.948-6.834-1-10.294,1.662,2.706,2.179,5.831,2.684,8.829,1.05,6.231,2.334,12.336,4.345,18.365,2.109,6.323,2.208,12.897-.276,19.293-.175-.125-.349-.251-.524-.376-1.539-4.293-1.832-8.792-2.19-13.281.095-2.45-2.303-5.059.462-7.339Z" fill="#141414" stroke-width="0"/>
  <path d="M59.589,149.634c.086,4.557.117,9.116.294,13.669.048,1.228.469,2.434-.296,3.577-.741-6.39-1.589-12.77-2.169-19.174-.216-2.381-.882-4.629-1.256-6.945-.471-2.916-1.076-6.096,2.677-7.62.002.493.005.986.007,1.479,1.203,4.256,1.463,8.615,1.448,13.009-.003.78-.054,1.482-.704,2.005Z" fill="#151515" stroke-width="0"/>
  <path d="M55.098,122.66c.456,2.489,3.289,3.492,3.74,5.983-3.363,1.56-8.357-1.895-9.741-6.74.498-.002.996-.004,1.494-.007.75.252,1.5.505,2.25.757.751.537,1.504.321,2.257.006Z" fill="#0e0e0e" stroke-width="0"/>
  <path d="M68.578,286.847c-.249-.251-.498-.502-.747-.753-2.464-3.955-4.941-7.904-5.247-12.748,0-.248-.003-.495-.007-.743-.082-1.697-1.537-3.854,1.506-4.506,0,0,.004.003.004.003.318,4.776,1.81,9.257,3.524,13.666.644,1.657,1.034,3.312.967,5.081Z" fill="#141414" stroke-width="0"/>
  <path d="M71.579,296.59c.001-.751.003-1.501.004-2.252,1.653,1.673,1.615,4.19,2.995,6,0,1.25,0,2.499,0,3.749-.999-2.499-1.999-4.998-2.998-7.497Z" fill="#191919" stroke-width="0"/>
  <path d="M52.092,287.592c-5.746-10.502-11.435-21.033-15.739-32.24-3.434-8.788-4.928-18.197-8.096-26.989-3.142-8.719-3.35-17.781-5.351-26.587-.262-1.154-.613-2.499.706-3.405.749,1.249,1.499,2.499,2.248,3.748,2.634,7.651,2.332,15.898,4.81,23.6.75,2.33,1.292,4.759,1.936,7.14h0c.668,2.781,1.651,5.457,2.936,7.999,3.625,7.172,4.087,15.349,7.357,22.656,3.267,7.301,7.054,14.286,11.217,21.101,3.042,4.978,5.269,10.401,8.035,15.542,1.816,3.375,4.009,6.593,5.305,10.258.412,1.164,1.27,2.208,1.103,3.52-.809,6.376.752,12.519,1.766,18.719.232,1.42-.183,2.813-.4,4.213-1.411,9.102-1.443,18.037,1.558,26.981,2.065,6.156,2.655,12.754,4.519,19.021,1.274,4.283,3.424,8.214,4.607,12.547,1.395,5.109,2.192,9.825-.172,15.111-1.72,3.846-.515,8.474-.231,12.781.627,9.493,2.14,18.931,1.865,28.482-2.711-2.127-1.737-5.593-2.997-8.247-.891-7.033-2.53-13.967-2.942-21.06-.355-6.103.585-12.177.623-18.294.036-5.78-1.767-10.936-3.365-16.21-1.001-3.305-2.242-6.48-2.857-9.949-1.012-5.711-3.068-11.186-3.686-17.045-.771-7.301-2.397-14.418-1.446-21.945,1.137-8.994-.449-17.899-2.482-26.775-1.542-6.728-6.231-11.751-8.365-18.085-.743-2.203-1.037-4.624-2.462-6.587Z" fill="#2c2c2c" stroke-width="0"/>
  <path d="M82.072,451.789c-1.79-7.048-1.114-14.341-2.108-21.49-.612-4.398-1.131-8.89-.947-13.416.148-3.634.206-7.177,1.689-10.624,1.113-2.586,1.055-5.497.04-8.083-4.879-12.433-8.179-25.346-11.429-38.244-1.76-6.986-1.961-14.373-1.152-21.51.467-4.122.364-8.141.455-12.22.257-11.538-4.626-21.271-9.897-31.095-6.694-12.477-15.191-24.25-18.92-37.984-2.215-8.158-5.707-15.919-7.197-24.264,4.621,9.039,7.503,18.736,10.519,28.362,2.496,7.966,7.035,14.826,11.008,22.025,4.915,8.907,9.46,18.018,14.166,27.04.77,1.476,1.285,3.094.978,4.698-1.073,5.601.838,10.843,1.792,16.19.514,2.883.291,5.581-.248,8.475-1.356,7.275-1.553,14.678.719,21.824,1.441,4.531,2.617,9.044,3.127,13.78.429,3.976,1.913,7.741,3.4,11.418,2.21,5.463,3.702,11.119,5.196,16.788.482,1.828-.024,3.487-.929,5.02-1.596,2.705-2.015,5.591-1.641,8.658.842,6.912.56,13.884,1.777,20.823.929,5.296-.233,10.916,1.669,16.219.202.562-.359,1.397-.565,2.105-.501-1.499-1.001-2.998-1.502-4.497Z" fill="#292929" stroke-width="0"/>
  <path d="M23.611,198.371c1.33,9.964,2.44,19.904,5.537,29.613,2.859,8.963,5.457,18.074,7.205,27.368-2.972-4.916-5.318-10.261-6.307-15.782-1.239-6.917-4.554-13.268-5.366-20.104-1.289-10.84-4.254-21.413-4.815-32.343,3.025.775,1.526,3.488,2.247,5.251.5,1.999,1,3.999,1.5,5.998Z" fill="#2e2e2e" stroke-width="0"/>
  <path d="M22.112,192.373c-1.562-1.402-1.202-3.627-2.247-5.251,0-.749-.001-1.498-.002-2.248-1.248-4.478-1.298-8.965-.033-13.443,1.126-3.985,2.18-4.763,6.461-4.905,1.452.048,1.742.979,1.663,2.189-.21.663-.658,1.051-1.346,1.161-3.368,1.988-4.299,5.209-4.479,8.823-.203,4.086.111,8.138.732,12.173-.25.5-.5,1-.751,1.501Z" fill="#292929" stroke-width="0"/>
  <path d="M32.605,232.859c-2.762-6.299-4.292-12.976-5.073-19.727-.429-3.706-1.507-7.288-1.673-11.013,1.215,1.662,1.555,3.653,1.935,5.583,1.652,8.376,3.215,16.77,4.811,25.157Z" fill="#292929" stroke-width="0"/>
  <path d="M74.577,304.086c1.823,1.874,1.854,4.427,1.907,6.666.144,6.09,1.093,12.068,1.839,18.079-1.977-3.133-2.709-6.722-2.875-10.262-.227-4.833-.268-9.672-.871-14.483Z" fill="#191919" stroke-width="0"/>
  <path d="M154.025,359.57c0-.252-.002-.503-.002-.755.25-2.498.501-4.996.751-7.494,2.143-3.081,3.126-3.191,4.117.236,2.055,7.104,4.594,14.088,4.348,21.772-.164,5.142-.405,10.45,1.376,15.501.327.929.575,1.945.575,2.921.009,13.787,1.576,27.511-.594,41.385-1.362,8.706-3.198,17.365-4.135,26.132-.819,7.663-.589,15.417-1.77,23.067-.318,2.057,1.77,3.952.627,6.148-.739-2.259-1.478-4.517-2.217-6.775-3.281-13.748.142-27.094,2.7-40.421,2.349-12.236,3.716-24.445,2.183-36.877-.425-3.448.285-6.963-.553-10.402-1.239-5.082-2.097-10.229-2.525-15.436.148-5.178-1.094-10.222-1.578-15.344-.198-2.091-1.945-2.674-3.302-3.66Z" fill="#1f1f1f" stroke-width="0"/>
  <path d="M145.034,333.325c-.075-1.78.244-3.616-.74-5.268-2.698-1.204-2.192-3.647-2.307-5.866-.418-2.121-1.118-4.237-.145-6.384.998-1.342,2.357-1.632,3.378-.359,1.328,1.655,2.969,3.465,1.314,5.881,1.307,4.385,1.744,9.02,4.003,13.14.711,1.296,1.004,3.163-.561,4.017-1.666.909-2.28-.937-3.027-1.973-.722-1.002-1.283-2.121-1.915-3.188Z" fill="#2f2f2f" stroke-width="0"/>
  <path d="M146.533,321.329c-1.488-1.579-.113-5.215-3.761-5.243-2.228-.653-3.498-3.252-2.327-4.793.605-.796,1.617-1.188,2.201-.406,1.256,1.684,3.026,1.195,4.619,1.493,2.501,5.235,5.003,10.469,7.504,15.704-2.26,3.294-2.938,3.2-4.99-.173-1.285-2.113-1.248-4.848-3.246-6.582Z" fill="#202020" stroke-width="0"/>
  <path d="M112.801,408.303c2.412-.375,2.246-1.964,1.629-3.641-2.187-5.942-2.824-12.076-2.421-18.356.04-.618.165-1.363-.107-1.847-2.985-5.305.416-7.548,4.401-9.789,3.905-2.196,7.547-4.858,11.818-6.383,2.244-.801,3.612-2.52,4.747-4.543,1.531-2.73,3.242-5.381,6.11-6.904,1.168-.62,2.617-1.373,3.783-.066,1.033,1.158.005,2.283-.384,3.444-2.816,8.417-3.65,17.064-3.212,26.695,2.763-2.522,3.723-5.121,4.688-7.708.957-2.565,1.662-5.273,4.176-6.889,1.604,2.41.089,4.509-.793,6.582-.476,1.119-1.286,2.123-1.793,3.263-.536,1.15-1.212,2.237-1.606,3.454-1.029,2.362-1.361,4.99-3.387,6.963-2.1,2.044-3.984,1.973-5.075-.73-.698-1.729-1.029-3.551-.708-5.492.556-3.357.403-6.726-.468-10.024-.715-2.71-2.138-3.265-4.295-1.46-2.867,2.4-5.495,5.086-7.999,7.863-1.589,1.761-1.324,3.945-.696,6.044.652,2.181.895,4.325.514,6.63-.599,3.628.185,6.907,3.32,9.285.7.531,1.224,1.242,1.558,2.081.256.81.255,1.586-.317,2.278-2.128.965-2.45,2.642-1.803,4.666.738,2.312,1.512,4.612,2.479,7.551-2.543-1.262-3.701-3.056-5.191-4.451-.604-.565-1.07-1.622-2.112-1.083-.981.508-.575,1.505-.464,2.351.129.986.24,1.975.359,2.962-1.902-4.432-3.525-9.012-6.746-12.746Z" fill="#1f1f1f" stroke-width="0"/>
  <path d="M151.837,465.224c-1.798-4.949-3.595-9.897-5.393-14.846-2.843-1.543-2.71-4.792-4.108-7.16-2.754-6.6-5.489-13.204-9.623-19.126-.707-1.013-1.471-2.344-.478-3.729-1.585-3.594-4.464-6.549-5.201-10.56-.47-1.96.537-3.271,2.203-3.763,2.926-.864,4.779-2.947,6.63-5.124,2.447-.964,3.947-2.939,5.37-5.003.807-1.171,1.739-2.214,3.352-1.795,1.8.468,2.031,1.984,2.153,3.525.079.995.249,2.031.007,2.98-2.933,11.498,1.384,22.716,1.284,34.105-.05,5.672,1.488,11.03,3.694,16.256,1.601,3.794,1.107,8.016,1.832,12.009.183,1.009-.069,2.326-1.722,2.231Z" fill="#070707" stroke-width="0"/>
  <path d="M132.235,420.364c3.046,5.784,6.124,11.551,9.118,17.361.843,1.637,1.44,3.4,2.15,5.106-.217,1.79.718,3.259,1.314,4.83.415,1.092,1.216,2.198.197,3.388-.495-.502-.99-1.004-1.486-1.506-3.688-8.664-6.666-17.656-11.929-25.59-.86-1.296-.752-2.601.637-3.589Z" fill="#303030" stroke-width="0"/>
  <path d="M136.788,403.056c-1.505,2.247-3.836,3.284-6.209,4.279-1.35.566-2.674,1.2-3.545,2.468-.251-.25-.502-.501-.753-.751-.248-.498-.497-.997-.745-1.495-1.571-.9-2.933-2.078-2.829-4.016.115-2.146,2.251-1.874,3.579-2.609,3.81-2.108,7.115-.056,10.549,1.084.259.358.243.706-.047,1.041Z" fill="#151515" stroke-width="0"/>
  <path d="M26.615,166.878c-6,1.734-5.508,7.263-6.641,11.713-.503,1.976-.101,4.182-.111,6.284-.249,0-.498,0-.747,0-.998-4.696-1.699-9.423-1.501-14.245,1.09-1.647.537-3.678,1.277-5.418.818-1.924,1.693-3.033,3.813-1.213,1.1.945,2.589,1.437,3.903,2.133.191.164.256.33.194.496-.062.167-.124.251-.188.251Z" fill="#2e2e2e" stroke-width="0"/>
  <path d="M145.014,451.048c.163-2.862-2.859-5.139-1.51-8.219.98,2.516,1.961,5.032,2.941,7.548-.455.471-.91.94-1.365,1.41-.026-.246-.048-.493-.066-.74Z" fill="#444" stroke-width="0"/>
  <path d="M132.181,43.472c-.601-3.243-1.631-6.398-3.067-9.353-1.44-2.963-3.288-5.726-5.52-8.175-3.226-3.54-7.382-6.282-11.895-7.88-.38-.135-.763-.263-1.148-.383-2.556-.86-5.289-1.153-7.773-2.207-3.469-1.472-7.219-2.055-10.972-2.068-4.729-.016-9.935.242-14.112,2.682-1.852,1.082-3.461,2.655-5.039,4.113-1.266,1.17-2.503,2.371-3.732,3.579-1.102,1.083-2.259,2.064-3.22,3.29-.845,1.078-1.593,2.226-2.362,3.358-.211.643-.72,1.588-.685,2.244.823-.049,1.644-.708,2.204-1.266.625-.623,1.133-1.352,1.687-2.039,2.042-2.531,4.696-4.463,7.36-6.284,2.589-1.769,5.154-3.555,8.074-4.757,2.718-1.119,5.663-1.681,8.594-1.251,1.318.193,2.605.566,3.836,1.073.551.227,1.052.566,1.64.691.612.129,1.252.09,1.873.075,6.415-.149,11.888,2.995,17.074,6.421,2.703,1.786,5.62,3.397,8.009,5.608,2.895,2.679,5.182,6.852,5.563,10.809.134,1.395-.037,2.844-.668,4.096-.901,1.786-2.544,2.837-4.299,3.653-4.733,2.202-4.132,9.343-3.956,13.661.646,15.811-1.677,31.609-1.467,47.431.019,1.43.186,3.097,1.396,3.86,2.045-.371,3.395-2.311,4.317-4.174,1.416-2.865,2.37-5.933,3.214-9.015,3.367-12.304,5.047-25.024,5.792-37.759.39-6.67.507-13.435-.716-20.032Z" fill="#202020" stroke-width="0"/>
  <path d="M110.552,17.682c-2.003.071-3.951-.129-5.81-.974-6.527-2.967-13.458-3.005-20.422-2.775,5.919-1.918,11.86-1.171,17.568.554,2.902.877,6.176,1.083,8.664,3.195Z" fill="#373737" stroke-width="0"/>
  <path d="M73.956,18.996c-1.201,2.959-8.475,9.307-10.616,11.432-.003-.254-.007-.508-.01-.762,1.751-2.248,4.581-7.453,10.626-10.67Z" fill="#272727" stroke-width="0"/>
  <path d="M136.788,403.056c0-.251-.002-.501-.003-.752-1.8-2.587.179-4.655,1.374-6.37,1.994-2.862,3.417-5.882,4.447-9.156,1.289-2.667,2.428-5.258,5.055-7.185,2.081-1.528,2.211-4.644,3.194-7.064.319-.786.405-1.628.793-2.369.623-1.187.993-2.732,2.695-2.751,1.807-.02,2.306,1.427,3.026,2.807,2.028,3.886,2.167,8.193,2.44,12.313.383,5.774,2.041,11.312,2.357,17.084.528,9.633,1.749,19.244.07,28.875-.166.953-.139,1.969-.643,2.828-4.395,7.488-3.227,15.941-4.164,24.024-.684,5.899-2.391,11.722-1.316,17.769.118.663.17,1.877-1.223,1.792-1.018-3.226-2.036-6.452-3.053-9.678-.316-5.053-.269-10.294-2.426-14.896-2.803-5.98-3.15-12.289-3.542-18.593-.318-5.111-.567-10.227-1.557-15.235-1.02-5.155-.661-10.137.467-15.201.408-1.833,1.227-4.66-.672-5.473-1.947-.834-2.683,2.04-3.758,3.44-1.068,1.392-2.024,2.851-3.559,3.789Z" fill="#101010" stroke-width="0"/>
  <path d="M154.89,474.903c-1.213-10.831,2.397-21.453,1.388-32.277-.301-3.235.6-6.113,2.438-8.814,2.599-3.82,3.477-8.11,3.614-12.747.389-13.167-2.149-26.046-3.403-39.051-.386-4.005-1.129-7.857-2.76-11.535-.356-.804-.599-1.774-1.652-1.795-1.074-.022-1.383.95-1.652,1.766-.583,1.776-1.047,3.593-1.643,5.364-.891,2.648-1.309,5.416-4.825,6.432-1.977.572-2.088,3.559-3.612,5.065-.517-.75-.536-1.501-.001-2.251.215-1.142.677-2.16,1.498-3,3.348-4.755,4.379-10.584,7.213-15.577.124-.218.163-.485.296-.685,1.038-1.568,1.146-4.257,3.72-4.094,2.969.188,1.998,2.947,2.448,4.702.942,3.669,1.667,7.385,2.065,11.157,1.494,11.692,3.952,23.296,3.773,35.147-.159,10.542-.085,21.083-2.838,31.463-2.683,10.119-3.702,20.558-4.487,31-.17,2.26,1.773,4.24.632,6.538-.737-2.27-1.474-4.539-2.211-6.807Z" fill="#191919" stroke-width="0"/>
  <path d="M58.837,121.145c-.25,0-.499,0-.749,0,1.261-4.438,4.143-8.083,6.003-12.235.904-2.018,2.738-2.103,4.784-1.474,3.819,1.175,5.109.409,6.397-3.283.775-2.219,1.612-4.42,2.515-6.59.596-1.433,1.519-2.717,3.313-2.433,2.673.423,3.253-1.047,3.22-3.225.677-4.999,2.521-9.358,5.941-13.241,3.265-3.706,5.545-8.137,6.8-13.001h0c.249-.51.498-.51.748,0-.07,5.927.448,11.924-6.251,15.36-3.299,1.692-3.982,5.56-5.093,8.868-.477,1.418-.93,2.844-1.393,4.267-.115,1.008-.254,2.128-1.293,2.527-4.548,1.747-4.842,5.822-5.464,9.734-.136.857-.18,1.732-.354,2.58-1.101,5.358-2.846,6.24-7.766,3.957-4.06-1.885-5.611-1.436-7.975,2.404-1.171,1.902-2.258,3.856-3.384,5.786Z" fill="#161616" stroke-width="0"/>
  <path d="M97.733,63.94c-.1.555-.317,1.191-.63,1.624-.019-.386-.123-.762-.151-1.147-.04-.563-.073-1.125-.094-1.689-.044-1.164-.044-2.33-.008-3.495.073-2.327.295-4.649.618-6.954.362-2.581-.672-4.393-2.372-5.929-1.538-1.39-3.036-.259-4.433.541-1.693.969-3.353.752-4.994-.074-5.843-2.944-11.683-5.59-18.492-3.08-2.117.78-3.739-.895-5.343-2.067.099-2.515-.353-5.085.764-7.496.061.108.15.21.178.326,1.736,7.154,1.743,7.208,9.611,6.175,3.406-.447,6.665-.148,9.865,1.065,2.458.931,5.003,1.333,7.637,1.484,6.766.388,9.443,3.452,8.512,10.182-.44,3.182-.508,6.385-.593,9.591-.007.261-.014.522-.051.78-.008.054-.017.108-.027.164Z" fill="#1c1c1c" stroke-width="0"/>
  <path d="M87.318,96.403c-.25.25-.5.5-.749.75-.249.364-.499.383-.749,0,1.568-4.197,4.826-7.439,6.403-11.702.82-2.217,3.605-1.819,5.717-1.788,2.481.036,3.546-.7,3.211-3.556-.699-5.961-.352-11.936.694-17.873.959-5.444.576-10.963.318-16.43-.21-4.46-4.346-8.086-8.853-8.031-5.426.066-10.608-1.373-15.883-2.229-2.375-.385-4.498-1.616-4.362-4.31.138-2.721,2.855-2.647,4.639-2.78,12.918-.959,25.685-.454,37.755,5.035,4.712,2.143,5.269,5.213,2.252,9.546-2.864,4.113-2.188,9.125-2.562,13.769-.41,5.084-.178,10.227-.08,15.342.18,9.369.264,18.747-2.397,27.832-1.324,4.519.603,8.619.88,12.92-.499-.001-.997-.003-1.496-.004-.251-.749-.501-1.498-.752-2.247-2.061-2.508-3.312-5.503-3.935-8.561-.89-4.363-2.991-8.104-5.326-11.668-2.968-4.53-7.739-6.014-10.213.6-.898,2.4-3.368,3.295-4.51,5.383Z" fill="#0e0e0e" stroke-width="0"/>
  <path d="M85.82,97.153c.25,0,.499,0,.749,0-.313.526-.514,1.377-.955,1.528-4.498,1.535-3.728,4.865-2.969,8.259.758,3.388,2.894,6.741-.514,10.072-3.758,3.673-8.3,4.96-13.254,4.61-2.846-.201-5.684-.464-8.541-.477,1.293-1.148,2.6-2.281,3.874-3.45,1.546-1.418,3.11-1.542,5.103-.733,7.289,2.958,11.838-.2,11.828-8.028-.002-1.61.317-3.242.141-4.825-.405-3.646,1.006-5.955,4.538-6.956Z" fill="#0b0b0b" stroke-width="0"/>
  <path d="M203.488,386.562c-1.26-.905-2.055-2.184-2.693-3.543-9.388-20.031-20.556-39.172-29.577-59.394-3.449-7.732-7.566-15.163-11.257-22.79-.834-1.724-2.242-3.836-.726-5.606,1.577-1.841,3.718-.341,5.603.079.852.19,1.706.368,2.558.551-.853,2.71-.139,5.068,1.305,7.447,2.469,4.069,4.214,8.49,5.438,13.088,4.099,15.394,9.481,30.301,17.694,43.998,3.386,5.647,6.006,11.69,9.537,17.231,1.766,2.771,2.299,5.75,2.117,8.939Z" fill="#1e1e1e" stroke-width="0"/>
  <path d="M147.275,296.592c.147-.806-.213-1.912.908-2.2.857-.22,1.222.657,1.692,1.204.404.47.772.982,1.228,1.395.614.555,1.18,1.506,2.182.972.913-.487.695-1.507.671-2.352-.021-.741-.271-1.487-.222-2.218.173-2.571,1.139-4.11,4.038-2.804-2.273.702-2.17,2.22-1.667,4.157,1.733,6.675,4.827,12.764,7.81,18.916,5.578,11.5,10.983,23.085,16.664,34.534,2.199,4.431,3.733,9.235,6.94,13.144.475.579.965,1.357.257,1.984-.928.822-1.584-.019-2.151-.672-2.042-2.347-3.013-5.456-5.371-7.581-2.284.58-2.589-1.514-3.225-2.692-5.728-10.609-11.085-21.408-16.32-32.271-3.013-6.252-6.785-12.108-9.95-18.288-.194-.379-.695-.703-1.237-.729-.248-.001-.496-.003-.744-.004-.714-1.427-1.451-2.846-1.502-4.495Z" fill="#111" stroke-width="0"/>
  <path d="M149.521,301.092c.028-.919-.927-1.827.349-3.233,2.235,4.181,4.278,8.215,6.512,12.141,7.93,13.935,13.943,28.863,22.118,42.668.503.85,1.166,1.605,1.754,2.404,2.593,7.02,7.03,13.051,10.505,19.598,3.002,5.654,7.32,10.618,8.848,17.05.393,1.656.971,3.22-1.362,3.838-2.204-7.242-6.071-13.723-10.015-20.034-5.768-9.232-10.061-19.2-15.288-28.692-3.785-6.874-7.134-13.988-10.677-20.995-3.332-7.207-7.078-14.188-11.254-20.943-.704-1.139-1.003-2.527-1.49-3.801Z" fill="#1f1f1f" stroke-width="0"/>
  <path d="M216.231,421.8c.286.993,1.397,1.8.708,3.051-5.19-5.369-11.838-9.36-14.949-16.548.002-.992-.06-1.99.023-2.976.108-1.277-.39-3.102,1.508-3.297,1.74-.179,2.035,1.582,2.417,2.836,1.991,6.53,5.427,12.163,10.292,16.935Z" fill="#1f1f1f" stroke-width="0"/>
  <path d="M148.022,277.106c-4.944-.06-9.795-.349-14.738-1.288-11.215-2.131-22.647-2.522-34.074-2.51-2.215.002-4.43-.463-6.644-.712-.749-.659-1.67-.267-2.504-.404-4.246-.694-5.399-2.235-4.84-6.563.128-.99.302-1.981.245-2.973-.265-4.642,1.927-7.572,6.305-8.776,2.803-.771,2.504-1.697.614-3.304-1.377-1.171-3.865-1.749-2.952-4.481,1.269-1.112,2.551.019,3.824-.025,4.184,2.03,8.294,4.22,12.639,5.903,2.076.781,4.37,1.331,4.656,4.131,4.19,3.67,9.498,4.745,14.65,5.822,4.578.957,9.341,1.031,14.022,1.498,3.656.365,5.958,2.391,5.699,5.923-.24,3.283,2.182,5.145,3.098,7.762Z" fill="#232323" stroke-width="0"/>
  <path d="M147.998,260.547c3.406-.511,5.637,1.308,7.532,3.796-.873,1.741-.624,3.668-.923,5.504-.139.851-.31,1.837-1.386,1.985-.921.127-1.224-.703-1.545-1.365-2.776-5.733-7.451-7.908-13.687-8.671-6.018-.737-12.208-.61-18.073-2.579-1.559-.524-3.12-.919-4.121-2.362.122-.171.245-.342.367-.513.628-.49,1.402-.717,2.107-.479,6.682,2.253,13.772,1.319,20.557,2.673,2.893-.097,5.524,1.351,8.388,1.456.285.146.546.334.784.554Z" fill="#2e2e2e" stroke-width="0"/>
  <path d="M110.554,256.102c-1.75-.999-3.5-1.998-5.25-2.997.235-.287.509-.736.834-.672,3.569.697,7.31,1.052,9.663,4.417,0,0-.005.007-.005.007-1.747-.251-3.495-.503-5.242-.754Z" fill="#2e2e2e" stroke-width="0"/>
  <path d="M99.311,110.654c.5-.002.999-.003,1.499-.005-2.974,5.459-5.523,11.109-7.836,16.879-.774,1.93-1.558,4.317-4.212,1.081-1.684-2.054-3.165-.226-3.741,1.531-1.404,4.281-3.98,8.433-1.832,13.248.197.442-.233,1.163-.371,1.755-.629.255-1.066-.043-1.451-.5-.489-1.608-.569-3.366-2.007-4.597-.698-.598-1.06-1.675-.526-2.383,3.134-4.158,2.865-10.058,6.445-13.733,4.48-4.599,7.843-10.47,14.032-13.275Z" fill="#131313" stroke-width="0"/>
  <path d="M82.062,144.402c.252.247.504.494.755.74.749.736,1.497,1.471,2.246,2.207.005.76.009,1.521.014,2.282-.166.103-.333.207-.499.311-1.441.082-2.681-.527-3.921-1.14-1.175-1.66-4.034-2.962-1.168-5.48,1.129-.291,1.957.141,2.573,1.081Z" fill="#232323" stroke-width="0"/>
  <path d="M122.505,194.608c.077-.108.289-2.068.296-2.271.025-.739-.022-1.479-.137-2.209-.228-1.449-.727-2.843-1.386-4.15-1.382-2.74-3.4-5.054-5.485-7.276-2.201-2.346-4.488-4.646-6.121-7.441-.843-1.443-1.542-2.967-2.146-4.525-.239-.616-.485-1.251-.208-1.905.212-.5.694-.747,1.22-.591.098.029.193.071.283.119,2.233,1.192,4.614,2.072,6.971,2.982s4.732,1.858,6.903,3.176c1.086.659,2.117,1.41,3.052,2.272.482.444.937.916,1.363,1.415.389.456.804.903,1.081,1.439s.316,1.126.291,1.719c-.065,1.542.112,2.985.527,4.475.421,1.51.994,2.972,1.469,4.465.116.365.226.732.326,1.102,2.174,8.048,2.834,16.34,3.279,24.625.092,1.713.348,3.423.483,5.387-.568.005-.913-.629-1.218-1.064-1.17-2.289-2.718-4.356-3.9-6.64-.96-5.157-2.605-8.685-7.212-11.449-.259-.302-.344-1.142-.426-1.529.04-1.013.119-1.323.695-2.126Z" fill="#181818" stroke-width="0"/>
  <path d="M150.284,254.59c.465.026.93.052,1.395.077.135,1.273-.757,1.167-1.571,1.169-4.209,3.367-5.221,3.215-7.883-1.825-1.905-3.606-2.947-7.595-3.803-11.544-.993-4.582-2.038-9.168-2.728-13.818.24-2.103-.789-4.422,1.07-6.246.739-.655.758.1.873.484,2.745,9.177,5.609,18.314,9.106,27.24.723,1.846,1.235,3.87,3.542,4.463Z" fill="#1b1b1b" stroke-width="0"/>
  <path d="M136.562,222.435c.074.555.12,1.121.148,1.702.128,2.714.13,5.698.073,8.547-.041,2.085-.49,5.746-3.306,5.76-1.318-.485-1.707-1.594-1.253-2.703,2.405-5.88,2.314-11.842.843-17.886.004-.262.008-.524.012-.786.18-.326.276-.736.757-.763.253.264,1.527,2.357,1.983,3.56.224.592.661,1.959.742,2.57Z" fill="#4b4b4b" stroke-width="0"/>
  <path d="M88.07,153.383c1.366.967,2.22,2.381,2.978,3.787,2.061,3.821,3.834,7.543,8.626,9.136,2.365.786,3.801,3.893,4.681,6.514,3.848,11.469,10.251,21.482,17.442,31.057.981,1.306,1.945,2.588,2.255,4.236-.152.088-.305.177-.457.265-.842.098-1.39-.347-1.871-.968-2.653-3.423-5.838-6.426-8.512-9.756-2.701-3.363-5.06-7.146-7.369-10.866-.867-1.396-1.761-1.901-3.236-1.783-1.813-.713-1.874-2.414-2.288-3.958-.37-1.382-.404-2.911-1.52-4.338-1.669,3.613-4.408,6.581-2.776,10.83.36.937.062,2.243-1.103,2.921-3.778-.346-3.389-4.128-5.099-6.182-1.006-2.057-1.483-4.291-2.156-6.457-.005-3.313-1.833-5.822-3.5-8.489-1.109-1.774-3.262-3.53-1.913-6.046,1.388-2.589,3.886-1.308,6.184-1.082-.412-3.139-4.337-5.908-.365-8.821Z" fill="#282828" stroke-width="0"/>
  <path d="M122.506,194.516c-.037.151-.075.302-.093.45-.047.39-.05.685-.01,1.075.137,1.348.82,2.486,1.662,3.516.204.25.41.44.62.684,1.29,1.499,2.439,3.143,2.761,5.138.161.998.595,1.931-.385,2.725-6.276-5.532-8.51-13.612-12.804-20.395-2.916-4.608-5.83-9.271-6.705-14.826.264-.26.527-.521.791-.781,2.821,5.044,6.458,9.618,9.78,14.333.995,1.413,1.99,2.887,2.892,4.362.39.638.863,1.221,1.205,1.889.169.33.315.784.363,1.155.028.221-.022.449-.077.675Z" fill="#3f3f3f" stroke-width="0"/>
  <path d="M88.07,153.383c-.475,3.234,1.269,5.654,2.856,8.192.721,1.153,2.164,2.618.693,3.951-1.191,1.08-2.535-.115-3.707-.76-.542-.298-1.047-.669-1.605-.929-.929-.433-1.944-.747-2.704.221-.63.802-.22,1.672.248,2.417.921,1.467,1.836,2.944,2.859,4.34,1.443,1.968,2.3,4.086,2.107,6.562-1.16.515-1.923.005-2.384-1.019-1.639-3.645-4.298-6.567-6.716-9.669-2.384-3.057-2.244-4.993.8-7.179,1.542-1.107,2.318-2.391,2.037-4.083-.426-2.567.764-4.257,2.513-5.789,0,0,.01-.006.01-.006,1.474.87,2.288,2.267,2.992,3.751Z" fill="#232323" stroke-width="0"/>
  <path d="M133.068,217.855c3.349,4.28,2.266,9.045,1.576,13.8-.309,2.128-2.011,4.065-.914,6.389.428,1.411-.402,1.886-1.568,2.112-.432-.04-.808-.206-1.13-.496-.806-1.068-.557-2.38-.822-3.572,1.057-4.542.826-9.167,1.032-13.777.123-2.763-2.688-2.463-3.371-4.175-1.269-2.337-2.426-4.734-3.67-7.085-.521-.984-1.192-1.892-.16-2.931,0,0,.01-.007.01-.007,3.44,2.845,5.927,6.573,9.016,9.743Z" fill="#282828" stroke-width="0"/>
  <path d="M127.061,208.104c-.67-2.878-2.548-4.324-3.812-6.876-.614-1.24-1.781-3.846-.846-6.051.053,1.099.098,1.386.236,1.704.155.355,1.153,1.575,1.426,1.942.563.754,1.103,1.525,1.621,2.31,1.024,1.551,1.958,3.16,2.814,4.809.872,1.68,1.545,3.451,2.388,5.14.881,1.763,1.984,3.482,2.947,5.224-.252.254-.505.509-.757.763-1.754-3.158-3.408-6.383-6.018-8.965Z" fill="#575757" stroke-width="0"/>
  <path d="M82.018,144.349c-.003-.01-1.377-.428-1.492-.45-.274-.053-.563-.116-.763-.311s-.247-.569-.023-.735c-.222-1.016-.854-1.893-1.551-2.666-1.136-1.259-3.721-3.405-1.127-4.781.681-.361,1.471-.514,2.096-.965,1.14-.822,1.431-2.369,1.889-3.615.541-1.471,1.097-2.938,1.695-4.387,2.045-4.956,4.638-10.409,9.134-13.604,2.033-1.445,4.759-2.534,7.297-2.198-.201.275-.541.547-.78.832-1.733,2.061-3.294,4.245-4.931,6.381-.958,1.238-1.988,2.377-3.109,3.467-1.018.991-2.347,1.664-3.387,2.68-.938.917-1.765,1.949-2.452,3.067-1.003,1.629-1.705,3.422-2.252,5.25-.517,1.724-1.056,3.555-1.263,5.345-.13,1.131-.139,2.281.02,3.41.165,1.178.719,2.169,1,3.278Z" fill="#0f0f0f" stroke-width="0"/>
  <path d="M135.319,235.138c.712-1.837,1.334-4.58,1.504-5.985,1.891,7.042,3.331,14.21,5.913,21.057.347.921.659,1.855,1,2.778,1.247,3.381,3.226,4.743,6.55,2.361.186.171.244.337.176.5-.067.161-.133.242-.198.242-1.149,1.285-1.824,2.811-2.266,4.455-.242.018-.483.039-.724.061-2.177.741-3.874-.914-5.854-1.175-.36-.169-.707-.354-1.047-.558-1.957-.906-2.967-2.401-3.285-4.568-.375-2.562-.94-5.12-1.603-7.609-1.038-3.894-.723-7.7-.166-11.56Z" fill="#0e0e0e" stroke-width="0"/>
  <path d="M150.264,256.093c.007-.247.014-.495.022-.742.465-.228.93-.456,1.394-.683,1.721-.122,3.032,1.05,4.586,1.457-2.006.993-4.007,1.006-6.002-.031Z" fill="#212121" stroke-width="0"/>
  <path d="M52.092,287.592c1.71,1.199,1.841,3.244,2.415,4.949,2.21,6.56,7.147,11.624,9.548,18.154,1.22,3.316,1.136,6.553,1.768,9.801,1.376,7.076,1.021,14.13-.046,21.181-.402,2.656.343,5.208.437,7.802.225,6.225,1.068,12.472,2.734,18.319,1.665,5.842,2.639,11.949,4.867,17.544,3.747,9.408,4.9,19.011,3.53,28.84-.778,5.586-.031,10.964.673,16.348.567,4.339,1.208,8.63,1.057,13.011-2.884-9.243-4.233-18.604-3.497-28.367.694-9.208.445-18.553-3.401-27.167-3.315-7.425-4.057-15.369-5.749-23.125-.662-3.033-.808-6.176-1.267-9.258-.846-5.686-1.309-11.306-.547-17.117,1.033-7.887-1.223-15.541-2.492-23.297-1.128-6.896-4.833-12.476-7.235-18.696-1.129-2.923-2.094-5.875-2.793-8.921Z" fill="#2e2e2e" stroke-width="0"/>
  <path d="M147.265,312.38c-.947,1.041.052,2.4-.669,3.753-2.156-.789-2.387-3.671-4.766-4.462-.766,1.808.184,3.095.941,4.416-.078,2.039.181,4.034.766,5.988.748,2.184.221,4.437.355,6.655.064,1.055-.097,2.035-1.418,2.232-1.116.166-1.997-.284-2.5-1.242-.7-1.333-1.213-2.769-1.123-4.302.514-8.722-1.994-16.405-7.607-23.138-1.297-1.556-2.907-3.251-1.952-5.692-.292-1.729-1.329-3.084-2.251-4.497-.957-1.297-1.732-2.756-3.101-3.694-1.465-1.003-2.982-1.73-4.459-.018-.818.949-2.104,1.501-2.852.657-2.412-2.725-5.657-4.337-8.326-6.691,4.284.415,8.466,1.46,12.767,1.906,3.591.372,5.952,3.252,7.847,6.305,1.277,2.057,2.106,4.585,4.884,5.271,3.141,1.14,3.48,4.309,4.724,6.752.952,1.868,1.602,3.917,2.987,5.517,1.009,1.166,1.514,3.203,3.994,2.264,1.065-.403,1.242,1.249,1.758,2.022Z" fill="#101010" stroke-width="0"/>
  <path d="M226.036,428.587c3.427,3.448,5.918,7.445,6.598,12.315.2,1.428.558,3.295-1.444,4.126.215-4.939-3.074-8.77-4.206-13.285-.267-1.064-.629-2.104-.948-3.156Z" fill="#070707" stroke-width="0"/>
  <path d="M69.321,76.94c-1.586-1.122-2.115-2.946-3.003-4.532-1.88-4.426-4.102-8.816-1.431-13.717,1.627-1.723,3.666-2.242,5.953-2.035-1.752,6.564,1.051,12.482,2.642,18.569.187.715.563,1.38.754,2.095.218.815.595,1.781-.34,2.35-.759.462-1.399-.193-1.977-.636-.883-.676-1.733-1.394-2.597-2.094Z" fill="#121212" stroke-width="0"/>
  <path d="M70.84,56.656c-1.53,1.008-4.888.841-5.517,2.614-.206.58-.524.244-.988-.111-.145-.111-.421-.885-.244-.993,1.243-.764,2.487-1.527,3.73-2.292,1.06.053,2.111.141,3.019.782Z" fill="#0d0d0d" stroke-width="0"/>
  <path d="M97.062,65.663c-.02,5.23-1.697,9.934-5.608,13.352-4.025,3.518-5.091,8.416-7.133,12.889-.83-4.662,1.42-8.431,3.678-12.121,2.919-4.769,6.033-9.419,9.063-14.121Z" fill="#1c1c1c" stroke-width="0"/>
  <path d="M61.835,247.105c.501,2.249,1.003,4.497,1.504,6.746.887,5.44.359,10.836-.566,16.209-.136.791-.768,1.253-1.676,1.034-1.633-4.283-2.057-8.902-2.835-13.313-2.018-11.448-5.415-22.548-7.67-33.917.058-5.988-2.433-11.328-4.345-16.801-.824-2.357-1.781-4.639-1.649-7.196,3.883,9.377,7.538,18.743,9.278,28.903,1.116,6.513,1.917,13.717,7.959,18.334Z" fill="#262626" stroke-width="0"/>
  <path d="M33.348,184.128c2.929,5.845,3.78,12.359,5.791,18.504,1.041,3.181,2.407,6.263,3.255,9.501,3.203,12.23,8.125,23.955,10.005,36.605.787,5.296,1.246,10.965,4.384,15.739.453.689.214,1.444-.194,2.121-2.84-.693-2.962-3.339-3.65-5.409-1.173-3.53-2.004-7.175-2.738-10.827-1.436-7.135-5.413-13.496-6.299-20.795-3.968-13.476-8.087-26.911-11.261-40.606-.39-1.684-.955-3.432.709-4.832Z" fill="#333" stroke-width="0"/>
  <path d="M33.348,184.128c.774,7.469,3.117,14.565,5.187,21.723,2.244,7.761,4.538,15.508,6.81,23.261-.452.764-1.005,1.319-1.997.962-1.097-.561-1.484-1.629-1.823-2.688-2.564-8.02-4.645-16.191-7.491-24.124-.125-.349-.014-.736.051-1.101.275-1.091-.124-2.032-.463-3.069-2.423-7.407-4.488-14.903-5.009-22.731.755-2.615-1.915-4.648-1.234-7.253-.255-.743-.511-1.487-.766-2.23-.001-.249-.003-.498-.007-.747,2.146-.146,1.959,2.041,2.998,3.001,1.14,5.025,1.737,10.186,3.742,14.996Z" fill="#3f3f3f" stroke-width="0"/>
  <path d="M43.899,229.864c.482-.251.964-.502,1.446-.753,1.664,6.495,3.34,12.987,4.978,19.488,1.271,5.047,2.221,10.156,4.093,15.033.444,1.157,1.008,1.903,1.879,2.758.823.807,1.769,2.041,1.044,3.207-3.44-3.197-5.109-7.81-6.283-12.241-.603-2.278-1.102-4.588-1.589-6.893-.23-1.088-.456-2.173-.737-3.25-.268-1.028-1.13-3.867-1.13-3.867-3.222-3.947-5.169-8.245-3.702-13.48Z" fill="#404040" stroke-width="0"/>
  <path d="M62.584,273.345c2.903,3.774,3.777,8.384,5.247,12.748-2.291-1.465-3.575-3.706-4.708-6.074-1.42-2.968-2.868-5.922-4.304-8.882,1.256.735,2.226,1.959,3.766,2.208Z" fill="#191919" stroke-width="0"/>
  <path d="M61.098,271.094c1.775-3.695,2.33-7.621,2.245-11.677-.039-1.854-.004-3.71-.003-5.566,1.54,4.681.384,9.503.743,14.246-.502,1.502-1.004,3.004-1.506,4.505-.493-.503-.986-1.005-1.48-1.508Z" fill="#1c1c1c" stroke-width="0"/>
  <path d="M64.109,58.25c.178-.145.421-.115.612-.005.15.086.27.217.373.357.101.137.189.287.225.453.091.424-.316.942-.461,1.326-.296.782-.468,1.606-.519,2.44-.099,1.624.251,3.231.684,4.786.445,1.597.99,3.17,1.297,4.802-.027-.142-.234-.349-.315-.472-.121-.185-.239-.372-.355-.561-.219-.356-.428-.719-.626-1.087-.384-.715-.727-1.452-1.013-2.212-.553-1.47-.888-3.023-.921-4.596-.024-1.12.104-2.24.367-3.328.142-.589.314-1.181.541-1.745.028-.069.066-.121.111-.158Z" fill="#1e1e1e" stroke-width="0"/>
  <path d="M103.791,282.813c-2.243,3.145-2.101,6.872-1.14,10.006,1.417,4.623,3.022,9.254,5.848,13.293,2.662,3.804,2.764,7.648.133,11.466-.94,1.364-1.512,2.822-2.022,4.374-1.234,3.752-2.67,4.103-5.533,1.511-2.149-1.946-3.817-4.25-5.231-6.772-.618-1.102-1-2.997-2.839-2.182-1.547.686-1.056,2.32-.848,3.673.888,5.78,3.055,11.298,3.476,17.175.453,6.323.949,12.642,1.427,18.963-2.314-3.654-2.095-7.872-2.593-11.914-1.133-9.217-4.236-17.899-7.166-26.619-1.473-4.383-2.418-8.882-3.571-13.338-1.157-4.473.229-8.326,2.591-12.008,1.53-2.385,3.378-3.928,6.495-3.063,1.585.44,2.896-.323,3.948-1.548,1.651-1.922,4.527-3.023,7.024-3.017Z" fill="#141414" stroke-width="0"/>
  <path d="M108.304,282.344c2.472,1.377,5.079,2.534,7.168,4.523.738.702,1.506,1.125,2.651.778,5.459-1.653,6.98-.867,8.919,4.445-.584-.461-1.18-.908-1.751-1.384-3.428-2.855-4.059-2.654-5.036,1.665-.164.724-.154,1.624-1.035,1.777-.869.151-1.229-.705-1.644-1.299-1.067-1.527-2.055-3.112-3.163-4.608-2.822-3.808-6.677-5.402-11.355-5.148,0-.25,0-.5,0-.751h5.246Z" fill="#141414" stroke-width="0"/>
  <path d="M104.554,385.811c-.771-1.146-.743-2.45-.747-3.749-1.206-4.949-1.596-9.984-1.484-15.059.037-1.695-.292-3.2-1.508-4.438-.25-1.748-.499-3.496-.748-5.245,1.35-.685.864-1.867.856-2.964-.015-1.993-.18-4.031.158-5.974,1.153-6.621,6.997-11.117,13.801-10.825,3.507.15,6.616-3.77,5.909-7.863-.625-3.617-.56-7.226-.43-10.835.146-4.046,2.293-5.063,5.679-2.94,2.971,1.862,4.594,4.453,4.741,8.011.124,2.991.566,5.972.61,8.962.071,4.847.144,9.394,5.697,11.787,2.759,1.189,2.591,3.921.559,5.903-2.782,2.715-4.775,5.766-6.662,9.198-1.533,2.788-5.028,4.786-8.046,6.4-4.558,2.438-8.036,6.305-12.59,8.732-2.393,1.275-2.24,4.08-1.95,6.444.425,3.459.784,6.938,1.842,10.306.383,1.219.974,3.219-.538,3.676-1.822.55-2.238-1.538-2.69-2.885-.752-2.242-1.117-4.622-2.459-6.645Z" fill="#242424" stroke-width="0"/>
  <path d="M99.312,356.568c-1.646-2.293-1.576-4.944-1.483-7.561.171-4.844-.519-9.716.617-14.535.622-2.637,1.862-4.073,4.805-4.196,4.939-.206,10.9-6.671,11.037-11.639.038-1.371-.073-2.75.028-4.114.399-5.368-.011-10.217-4.782-14.062-3.101-2.499-4.591-6.462-5.875-10.283-.612-1.82-1.188-3.82.635-5.154,1.849-1.353,3.912-.537,5.595.561,1.106.721,2.093,1.845,2.744,3.006,3.751,6.694,8.864,12.613,11.412,19.992-.128.133-.255.267-.38.404-4.521.782-6.685,3.881-6.342,8.632.21,2.916,1.543,5.563.964,8.754-.615,3.396-2.486,4.86-5.282,5.396-1.901.364-3.345,1.172-4.572,2.462-.657.69-1.253,1.339-2.175,1.654-5.24,1.792-6.403,3.619-6.645,9.314-.118,2.79-1.33,5.533-.303,8.372,0,.999,0,1.998.001,2.997Z" fill="#1c1c1c" stroke-width="0"/>
  <path d="M129.294,296.587c6.997,7.996,10.703,17.308,11.274,27.914.097,1.799-.034,4.885,1.654,4.83,2.312-.076.957-2.984,1.28-4.64.164-.843.034-1.743.037-2.617,1.094,1.888.631,3.972.756,5.983-.005,2.756-.009,5.512-.014,8.268-.492.705-1.195,2.003-1.858,1.506-2.709-2.027-7.026-1.133-8.766-4.663-1.621-3.288-1.258-6.8,1.063-9.456,3.172-3.63,2.092-7.379,1.283-11.245-.176-.842-.63-1.71-1.622-1.869-1.112-.179-1.413.757-1.828,1.526-.864,1.6-2.046,3.453-3.972,2.072-1.917-1.375-5.57-1.731-4.537-5.61,0,0,.002,0,.002,0,.945.807,1.898,1.606,2.834,2.423.888.775,1.846,1.398,3.023.714,1.251-.728,1.709-1.775.887-3.136-1.36-.023-2.159-.9-2.658-1.985-.405-.881-.761-1.503-1.836-1.016-1.887-1.134-4.857-9.08-3.955-10.7.776-1.394,2.077-1.342,3.239-.748,1.312.671,2.482,1.622,3.713,2.452Z" fill="#1c1c1c" stroke-width="0"/>
  <path d="M124.044,308.585c.332,1.559,1.409,2.613,2.524,3.611,2.556,2.289,4.408,1.851,5.616-1.313.299-.783.12-1.934,1.175-2.141,1.165-.229,1.732.806,2.288,1.608,2.829,4.078,2.394,11.609-.867,15.511-2.425,2.902-1.54,7.116,2.082,8.098,2.522.684,4.203,4.035,7.419,2.367-.265,2.688-1.062,4.263-3.896,1.984-.563-.453-1.308-.734-2.014-.949-5.304-1.612-6.442-2.863-5.977-8.347.265-3.123-.22-6.42,2.94-9.112,1.784-1.52,1.129-5.015-.16-7.406-.891-1.652-1.982-.669-2.36.512-1.144,3.576-3.19,2.721-5.435,1.279-.525-.337-1.025-.716-1.568-1.02-1.673-.936-3.16-2.883-5.366-1.576-2.224,1.318-2.34,3.711-2.342,5.969-.002,3.453,1.764,6.745.763,10.345-.463,1.665-.903,3.304-2.563,3.838-3.803,1.225-6.979,3.672-10.573,5.188-3.306,1.395-5.04,3.609-5.526,6.879-.475,3.194-1.169,6.39-.892,9.662-1.318-5.351-.658-10.546,1.355-15.594.302-.759.993-1.713,1.69-1.905,4.014-1.108,6.712-4.548,10.623-5.803,3.648-1.171,5.612-3.579,4.704-7.296-1.24-5.072-.438-9.706.812-14.581.749-2.92,1.364-3.009,3.314-1.13.607.585,1.483.89,2.235,1.323Z" fill="#1f1f1f" stroke-width="0"/>
  <path d="M160.02,377.563c-1.006-3.944-2.038-7.881-3.002-11.835-.262-1.075-.164-2.395-1.567-2.638-1.37-.236-1.975.947-2.431,1.921-2.1,4.49-4.144,9.007-6.14,13.544-.611,1.39-1.229,2.711-2.602,3.506.905-3.381,3.172-6.238,3.749-9.746,1.999-4.248,3.998-8.496,5.997-12.744,2.501-2.634,3.719-1.501,4.083,1.489.669,5.497,2.225,10.893,1.912,16.504Z" fill="#1b1b1b" stroke-width="0"/>
  <path d="M61.829,142.892c3.229.627,6.163-.846,9.069-1.678,3.267-.936,6.473-.237,8.926,1.675-1.192,1.219-1.919,2.552-1.389,4.1.522,1.522.862,3.127.62,4.77-.404,2.732-2.427,4.181-4.871,2.961-4.226-2.11-9.093-3.435-11.571-8.088-.725-1.148-1.716-2.243-.783-3.739Z" fill="#0f0f0f" stroke-width="0"/>
  <path d="M61.829,142.892c.503.998,1.006,1.997,1.509,2.995,2.974,4.141,7.084,6.943,11.345,9.58.958,1.296,1.945,2.548,3.159,3.638,1.59,1.428.911,3.022-.169,4.283-1.143,1.335-2.61,1.252-3.926.055-.825-.75-1.716-1.474-2.32-2.401-1.817-2.794-4.439-4.142-7.648-4.533-2.255-1.309-.47-3.809-1.369-5.051-.606,3.121,2.194,6.757-.607,10.195-1.598-3.847-.789-8.138-2.214-12.017-.777-4.978-1.164-9.976-.743-15.014,2.784,2.111,1.411,5.722,2.984,8.271Z" fill="#232323" stroke-width="0"/>
  <path d="M87.318,96.403c1.673-3.141,3.812-5.986,5.428-9.195,1.481-2.941,5.469-2.749,8.311.164,3.353,3.438,5.305,7.767,6.841,12.25,1.246,3.638,2.278,7.349,3.404,11.027-3.201-2.041-4.376-5.332-5.151-8.751-.93-4.105-2.98-7.641-5.375-10.957-2.721-3.767-5.813-3.631-8.175.378-1.332,2.26-3.161,3.766-5.283,5.084Z" fill="#0b0b0b" stroke-width="0"/>
  <path d="M73.144,156.288c-.455-.332-.894-.679-1.311-1.041-3.149-2.739-6.585-5.569-8.495-9.36.255.507,1.13.917,1.557,1.294.628.554,1.22,1.147,1.845,1.705,1.614,1.441,3.439,2.646,5.398,3.565,1.453.682,3.677,1.89,4.835.086.674-1.05.415-2.426.076-3.627-.673-2.385-.785-5.788,2.458-6.04.669-.052.208.93.161,1.226-.101.639.092,1.33.539,1.802.331.351.77.576,1.156.866.734.551,1.264,1.324,1.781,2.082.18.264.365.54.414.857.099.638-.349,1.17-.51,1.754-.184.666-.235,1.407-.301,2.093-.169,1.759-.163,4.606-1.978,5.608-.957.528-2.148.164-3.143-.288-1.536-.698-3.088-1.567-4.483-2.583Z" fill="#161616" stroke-width="0"/>
  <path d="M89.564,246.359c2.466,1.659,4.956,3.283,7.385,4.994.884.623,2.048,1.315,1.569,2.661-.381,1.069-1.538,1.13-2.528,1.263-1.476.198-2.98.267-4.424.601-2.462.57-3.796,2.276-4.117,4.74-.144,1.107-.091,2.238-.16,3.357q-.377,6.179,5.277,8.622c-2.877.111-5.72-.079-8.464-1.037-2.88-1.006-4.048-2.71-2.429-5.697,1.201-2.215,1.912-4.511,1.36-7.154-.527-2.522,1.391-3.369,3.333-4.195,4.298-1.827,4.463-3.101,1.135-6.284-1.881-1.799-3.626-3.741-5.432-5.618,0-.245,0-.49.001-.735,3.422-.05,5.467,2.201,7.494,4.484Z" fill="#1a1a1a" stroke-width="0"/>
  <path d="M100.814,362.566c1.608.654,2.097,2.005,2.18,3.575.28,5.306.543,10.614.812,15.921-1.623-3.529-1.971-7.29-2.069-11.107-.073-2.819-.105-5.649-.923-8.389Z" fill="#1f1f1f" stroke-width="0"/>
  <path d="M126.296,305.584c3.309-1.714,3.429,1.352,4.494,3.001-.667.788-.948,2.232-2.263,2.009-1.297-.22-1.246-1.574-1.487-2.619-.187-.811-.492-1.595-.744-2.391Z" fill="#101010" stroke-width="0"/>
  <path d="M43.899,229.864c1.361,4.386,2.507,8.991,3.702,13.48-3.241.764-5.353-1.2-6.863-3.446-5.645-8.398-8.313-17.739-7.934-27.879.213-5.686-2.5-10.338-5.129-15.002-2.788-4.946-5.266-9.965-4.736-15.847.221-2.444.36-5.131,3.589-5.828,1.158-.25,1.434-1.03.782-1.941-.79-1.103-1.027-2.238-.701-3.525.257-.256.514-.512.772-.769,1.262,2.089,1.929,4.372,2.212,6.78-2.679,3.997-3.794,8.144-1.654,12.818,2.156,4.709,4.775,9.132,7.701,13.387,3.103,9.153,6.036,18.356,8.259,27.771Z" fill="#212121" stroke-width="0"/>
  <path d="M76.82,235.113c-5.06-5.128-6.881-11.872-8.034-18.51-2.274-13.097-4.057-26.282-6.598-39.339-.818-4.202-.473-8.417-.352-12.635,1.72-.026,1.786,1.26,1.817,2.433.042,1.602.383,3.142.731,4.689-.132,4.744,1.825,9.111,2.576,13.702.405,2.475.683,4.985,1.062,7.46.349,2.275,1.297,3.737,3.2,4.767,1.81,5.094,2.757,10.412,3.891,15.664,1.341,6.208,2.867,12.381,3.939,18.648-.287,1.369-1.02,2.416-2.233,3.12Z" fill="#222" stroke-width="0"/>
  <path d="M63.331,172.134c-1.456-2.311-.023-5.196-1.493-7.504-.011-.993-.023-1.986-.034-2.978.292-5.17-.193-10.299-.947-15.45,2.995,2.566,1.657,6.479,3.221,9.44,2.168,1.394,1.272,3.806,1.84,5.722.415,1.402.678,2.875.912,4.335.204,2.198.564,4.378.829,6.573-.158,1.488-.885,2.847-2.35,2.922-1.941.099-1.267-2.044-1.977-3.06Z" fill="#343434" stroke-width="0"/>
  <path d="M76.82,235.113c.011-1.05.108-2.079.716-2.985,2.299.23,2.87,2.061,3.535,3.808.458,2.583,2.636,3.41,4.583,4.442,1.968,1.043,4.096,1.728,6.128,2.632,1.382.615,2.779,1.19,2.712,3.075-.185.586-.577.935-1.19,1.028-1.247-.251-2.494-.502-3.74-.753-2.835-.931-5.171-2.696-7.494-4.484-2.545-1.636-4.046-4.084-5.25-6.762Z" fill="#2e2e2e" stroke-width="0"/>
  <path d="M142.781,385.06c0,.75,0,1.501.001,2.251-.818,5.471-3.404,10.233-5.997,14.993-1.517,1.267-2.939,2.238-4.778.286-.861-.913-7.366.116-7.941,1.121-1.024,1.791.958,2.564,1.47,3.846-3.195-1.417-7.389-9.045-6.181-12.063.936-2.338.646-4.321-.083-6.478-1.301-3.849-.567-6.896,2.938-9.451,2.586-1.885,4.638-4.495,6.988-6.717,1.395-1.319,2.992-2.355,5.039-1.561,1.918.743,1.597,2.553,1.868,4.121.685,3.951.921,7.897.418,11.889-.106.842.04,1.738.199,2.585.179.961.232,2.233,1.294,2.523,1.357.37,1.965-.982,2.44-1.884.919-1.744,1.565-3.631,2.325-5.458Z" fill="#1b1b1b" stroke-width="0"/>
  <path d="M102.32,70.394c2.039-7.321.972-16.142,1.993-24.802.281-2.383.405-4.716-.525-7.004-.652-1.604-.59-3.104,1.459-3.449,3.12-.526,6.259-.361,9.189.926,2.175.956,2.414,2.811,1.33,4.696-1.711,2.973-1.425,6.15-1.645,9.395-.744,10.966-.293,21.944-.784,32.901-.082,1.831.206,4.556-2.003,5.252-2.425.764-3.582-1.851-4.934-3.327-2.676-2.921-4.082-7.995-4.079-14.588Z" fill="#0b0b0b" stroke-width="0"/>
  <path d="M93.39,247.138c.289-.881,1.239-1.438,2.171-1.531.97-.097,1.93.202,2.857.503,5.058,1.642,10.063,3.447,15.005,5.412,1.2.477,2.396.964,3.589,1.46,1.113.463,2.51,1.39,3.699,1.553.48.066.819-.187,1.274-.196.588-.011,1.209.243,1.812.292,1.26.101,2.528-.105,3.782.109.398.068.796.205,1.189.3.409.099.818.194,1.228.288.827.189,1.655.373,2.481.563,1.66.383,3.316.799,4.927,1.357.692.24,1.375.506,2.043.806.687.308,1.346.682,2.013,1.031.244.128.089.341-.09.45-.745.454-.594.316-1.59.316-2.882,0-5.897-.573-8.769-.848-13.169-1.263-26.18-4.925-37.653-11.758.009-.036.02-.072.031-.107Z" fill="#363636" stroke-width="0"/>
  <path d="M139.78,259.852c.524-.272,1.049-.544,1.574-.816,1.974.524,3.947,1.049,5.921,1.573.435.416.869.832,1.899,1.817-3.606-.988-6.5-1.781-9.394-2.575Z" fill="#494949" stroke-width="0"/>
  <path d="M64.854,166.138c-.259-3.499-.518-6.998-.777-10.497,2.247-1.179,3.831.369,5.398,1.477,1.092.773,1.92,1.935,2.812,2.97,1.037,1.203,1.771,2.85,3.758,2.613.655-.078,1.126-.603,1.144-1.296.048-1.774-1.381-2.514-2.507-3.47-.566-.48-1.071-1.034-1.603-1.554.368.023.735.052,1.103.067,1.931.082,3.595,2.058,5.629,1.015,2.421-1.242.769-3.528,1.153-5.303.344-1.592,2.013-2.874,1.106-4.774.999.75,1.999,1.5,2.998,2.25-.272,2.917-1.709,5.639-1.022,8.759.342,1.553-1.457,2.083-2.696,2.671-1.482.704-2.269,1.91-1.104,3.272,3.417,3.992,5.68,8.716,8.572,13.037.571,2.066,1.035,4.173,2.248,5.999,1.184,3.892,3.497,7.445,3.499,11.69,0,1.782,2.026,2.006,2.568,3.366.565.76.673,1.744,1.38,2.471,3.464,3.56,4.482,8.17,4.884,12.837.193,2.233.752,4.166,1.784,6.062-.207,2.374-.692,4.644-2.553,6.356-.377.508-.87.846-1.484.998-1.733.16-3.472-.042-5.216.031-3.695.156-5.497-1.156-5.814-4.826-.414-4.791-1.034-9.722,3.043-13.633,1.781-1.709,1.343-3.92.29-5.839-3.451-6.288-5.582-12.962-7-20.003-.98-4.868-4.547-8.587-8.029-11.937-2.56-2.464-5.088-4.973-7.664-7.425-.878-.836-1.646-2.084-3.059-.783-1.273.863-.379,3.553-2.841,3.398Z" fill="#202020" stroke-width="0"/>
  <path d="M130.321,209.886c-2.731-4.102-6.083-8.227-7.681-13.005,2.435,1.001,4.821,3.308,6.064,5.91.964,2.019,1.185,4.822,1.618,7.095Z" fill="#0c0c0c" stroke-width="0"/>
  <path d="M141.262,258.387c-4.801,0-9.505-.877-14.229-1.58-3.898-.872-4.646-4.725-6.552-7.331-1.848-2.526-3.83-4.983-5.573-7.602-.104-1.885-1.765-3.262-1.728-5.197.005-1.635-.013-3.294,1.934-3.962,1.834-.629,2.824.605,3.883,1.767,2.429,2.666,4.889,5.275,8.6,6.216,1.015.257,1.907.385,2.828-.131.635-.285,1.365-.385,1.876-.926.476-.531.952-1.063,1.427-1.595.71-.865,1.073-1.636,1.589-2.907,1.176,6.045,2.459,12.073,3.468,18.145.339,2.041.931,3.748,2.475,5.103Z" fill="#040404" stroke-width="0"/>
  <path d="M124.041,208.119c1.503,2.905,2.427,6.18,5.248,8.246.818,1.104,1.415,2.311,1.705,3.662.417,1.943-.067,3.389-2.198,3.862-1.526.338-3.486.151-3.696,2.323-.228,2.356,1.154,4.078,3.088,5.082,1.965,1.02,3.735,1.929,3.352,4.564,0,1.25,0,2.501-.001,3.751.165,1.426-.699.832-1.337.687-2.625-2.571-6.209-3.942-8.183-7.439-1.949-3.453-2.082-7.151-2.614-10.818-.203-1.398.82-2.571,1.867-3.52,1.74-1.576,1.975-3.419.858-5.403-3.127-5.556-7.032-10.558-11.196-15.356-1.502-1.73-2.858-2.275-3.906.618-.444,1.226-.812,3.606-3.302,2.152-.583-.606-.737-1.399-.96-2.164-1.102-4.16-.348-8.4-.573-12.598.04-.679.179-1.373.722-1.787.844-1.639,2.06-1.177,3.066-.098.58.623,1.016,1.4,1.421,2.16,4.391,8.231,10.399,15.24,16.64,22.075Z" fill="#1f1f1f" stroke-width="0"/>
  <path d="M102.943,184.144c.178,1.037.093,2.103.36,3.122.135.514.248.936-.329,1.149-.129.048-.257.098-.383.153-.403.175-.795.39-1.131.675-.521.441-.845,1.037-.899,1.72-.101,1.281.52,2.576,1.012,3.722,1.391,3.241,1.639,6.997,4.521,9.538.541,1.751.355,3.524.18,5.297-.536,1.162-1.136,2.358-2.69,2.027-1.409-.301-1.321-1.705-1.513-2.73-.538-2.871-1.746-5.411-3.532-7.677-.584-.741-1.023-1.531-1.183-2.473-.124-.728-.138-1.471-.26-2.199-.242-1.45-.919-2.825-1.922-3.901-.308-.33-.586-.624-.66-1.085-.077-.481.019-.958.298-1.36-.404-1.668-.812-3.335-1.206-5.006-.168-.711-.289-1.44-.238-2.169s.287-1.46.765-2.012c.555-.64,1.062-1.331,1.438-2.092.402-.815.614-1.703.742-2.599.094-.66.03-1.327.047-1.991.006-.239.022-.477.059-.714.058-.371.174-.747.423-1.028.335-.377.878-.553,1.373-.497.548.062.918.418,1.239.84.743.974,1.315,2.056,1.674,3.227.382,1.248.566,2.543.809,3.823.053.281.11.562.171.841.24,1.085.587,2.144.805,3.235.011.054.021.107.03.161Z" fill="#2f2f2f" stroke-width="0"/>
  <path d="M94.812,190.124c.249.251.498.501.747.752.759,2.997,2.925,5.993.006,8.993-.947-.688-1.643-1.646-1.727-2.758-.357-4.7-1.955-9.137-2.772-13.735,2.085,1.785,1.627,4.982,3.746,6.748Z" fill="#232323" stroke-width="0"/>
  <path d="M130.786,239.609c.251,0,.502,0,.752,0,.255.01.509.02.764.03-.253.493-.507.985-.76,1.478-3.819.881-6.686-1.236-9.301-3.369-4.803-3.917-7.627-9.285-9.757-14.996-.993-2.663-1.75-5.268-5.41-3.043-.233.142-.664-.254-.934-.528-.839-2.713-.54-5.496-.336-8.233.176-2.37.42-4.713.006-7.073-.211-1.206.156-2.28.571-3.41,1.223-3.331,3.337-3.762,5.813-1.116,3.235,3.458,5.79,7.359,7.854,11.617,1.277,2.633,1.401,5.129.291,7.912-2.729,6.846,1.13,15.623,8.021,18.53,1.119.472,1.855,1.206,2.426,2.201Z" fill="#111" stroke-width="0"/>
  <path d="M131.54,235.858c-.767-1.226-1.879-1.842-3.27-2.275-3.221-1.002-5.883-5.131-5.642-8.374.141-1.9,1.154-2.963,2.989-3.267q4.765-.79,3.674-5.577c5.709,5.925,4.111,12.694,2.25,19.493Z" fill="#242424" stroke-width="0"/>
  <path d="M35.64,202.093c-4.707-1.517-5.794-6.143-8.088-9.66-1.405-2.155-2.163-4.709-2.54-7.355-.79-5.547-.475-6.315,4.58-9.19,2.016,8.735,4.032,17.47,6.047,26.205Z" fill="#191919" stroke-width="0"/>
  <path d="M79.831,236.589c-1.182-1.273-1.86-2.805-2.294-4.462-2.944-9.649-4.262-19.64-6.236-29.494-.29-1.448-.795-2.854-1.2-4.279-2.054-1.735-1.707-4.302-2.283-6.553-.267-1.673.171-3.176,1.967-3.394,1.851-.225,2.493,1.366,2.835,2.885,1.261,5.599,3.513,10.904,4.837,16.484.462,1.95,1.032,3.951,2.557,5.322,2.474,2.225,3.963,4.83,4.64,8.133.834,4.07,4.099,5.423,7.824,5.947,6.021.952,6.112,1.022,6.39,4.896-1.485,3.435-4.681,4.123-7.826,4.885-3.736-.106-7.494.376-11.212-.372Z" fill="#040404" stroke-width="0"/>
  <path d="M68.627,191.606c.491,2.249.982,4.499,1.474,6.748-1.848.52-2.305-1.073-2.425-2.095-.958-8.134-3.922-15.903-4.345-24.125.63.55.642,1.891,1.585,1.826.907-.062.541-1.166.669-1.834,1.921-.187,2.211,1.245,2.485,2.593,1.135,5.595,2.33,11.194.557,16.887Z" fill="#282828" stroke-width="0"/>
  <path d="M68.627,191.606c-.867-6.516-1.384-13.087-3.041-19.48-.244-1.996-.488-3.992-.732-5.988.989-1.645.653-3.476.735-5.248.786-.651,1.507-.431,2.201.163,2.966,6.108,7.071,11.544,10.351,17.475,1.47,2.659,2.777,5.236,2.871,8.352.143,4.789,2.78,8.397,5.847,11.77,1.084,1.192,2.333,2.26,3.102,3.705,1.165,2.192,1.604,4.326.078,6.663-1.96,3.004-2.575,6.475-2.601,10.008-.02,2.743.281,5.412,3.147,6.948.825.442,1.731,1.127,1.232,2.388-4.413.009-6.807-2.75-8.357-6.383-1.233-2.891-2.408-5.635-5.094-7.644-2.083-1.558-2.236-4.357-2.937-6.739-1.749-5.942-3.514-11.879-5.398-18.239-.642,1.03-1.022,1.64-1.403,2.25Z" fill="#0c0c0c" stroke-width="0"/>
  <path d="M79.831,236.589c3.667-1.448,7.494-.41,11.234-.727-.264,2.764-2.46.864-3.346,1.497,1.512.231,3.261-.317,5.044-.16,1.958.724,4.886-.11,5.509,2.731.561,2.561.494,5.263-1.964,7.142-.742-.243-1.484-.486-2.225-.73-2.084-1.647-4.653-2.25-7.046-3.213-3.232-1.302-5.787-3.275-7.206-6.54Z" fill="#131313" stroke-width="0"/>
  <path d="M96.308,247.072c.009-.622-.126-1.29.051-1.859,1.311-4.204-.088-6.619-4.545-7.103.228-1.985,2.128-1.637,3.255-2.385,1.598-1.061,4.185-1.412,3.529-4.335.194-2.503.89-4.39,4.021-3.306-.176-.946-.862-1.74-1.06-2.723,1.13-1.588,1.874-3.341,2.245-5.254-1.223-3.744-.47-7.204,1.503-10.49-.059-1.782.283-3.62-.733-5.269-.963-1.245-1.18-2.484.026-3.714,1.132-1.635,1.37-3.399.937-5.335-.246-1.098-.325-2.351.899-2.968,1.198-.604,2.309.096,2.963.967,4.99,6.642,11.135,12.409,14.975,19.927,1.331,2.606,1.352,4.696-1.372,6.372-1.774,1.092-2.276,2.746-2.07,4.82.556,5.592,1.992,10.539,8.051,12.591,1.197.405,1.678,1.403,1.804,2.601-.422-.267-.81-.657-1.27-.782-8.963-2.436-10.227-9.988-11.57-17.455-.147-.816-.049-1.801.283-2.555.871-1.98,1.707-3.862.616-6.058-2.277-4.584-4.502-9.225-8.231-12.83-1.278-1.235-2.656-.514-3.079,1.177-.389,1.557-.659,3.183-.692,4.784-.092,4.49-.034,8.983-.035,13.474.692.413,1.247.94,1.476,1.745.296,2.868.693,5.728,1.262,8.563.144,1.644,1.059,3.103,1.151,4.762-1.269,2.058.279,3.113,1.352,4.585,1.391,1.908,4.391,3.074,3.413,6.294-2.32,2.057-4.551,1.15-6.708-.285-1.024-.681-1.805-1.697-2.866-2.34-2.212-1.341-3.323-.857-3.975,1.662-.393,1.52.116,3.724-2.611,3.512-.999-.264-1.997-.527-2.996-.791Z" fill="#181818" stroke-width="0"/>
  <path d="M99.304,247.863c1.112-1.812.573-3.865.849-5.8.486-3.407,1.618-3.912,4.649-2.396,2.154,1.078,3.609,2.993,5.588,4.25,1.427.906,3.041.941,4.657.939,4.511.839,8.481,7.416,6.758,11.196-7.849-1.772-15.165-5.007-22.501-8.189Z" fill="#191919" stroke-width="0"/>
  <path d="M121.805,256.052c-.287-4.919-3.903-7.827-6.757-11.196-1.505-2.885-4.382-4.633-6.088-7.352-.851-1.357-1.734-2.714.844-3.146,2.068-.586,2.439,1.372,3.281,2.38,1.19,1.423,2.051,3.122,3.494,4.356,3.139,3.548,4.97,7.951,7.677,11.788.923,1.308,1.549,2.827,2.776,3.926-1.743-.252-3.485-.504-5.228-.755Z" fill="#111" stroke-width="0"/>
  <path d="M101.558,225.36c3.055,1.409,3.221,4.203,3.597,6.811-2.462,1.834-2.796-7.017-5.843-.811-.312.625-.666,1.168-1.499.749-.425-3.769-3.626-3.094-5.997-3.749-7.666-4.121-6.692-11.27-3.881-17.969,1.829-4.359,1.239-7.163-2.072-10.192-4.16-3.805-6.987-8.415-6.829-14.374.048-1.809-.681-3.43-1.646-4.905-3.402-5.201-4.799-11.549-9.31-16.143-.687-.7-.681-2.082-.995-3.148,1.663-.813,2.394.592,3.225,1.47,7.523,7.947,14.527,16.252,17.673,27.058,1.207,4.145,3.02,8.034,5.03,11.819,1.534,2.888,1.687,5.392-.574,8.038-3.274,3.832-2.856,8.536-2.201,13.021.444,3.038,2.868,4.357,5.885,3.418,1.632-.508,3.195.451,4.686-.346.25-.249.5-.499.75-.748Z" fill="#111" stroke-width="0"/>
  <path d="M100.808,226.108c-1.806.989-3.849,1.185-5.793,1.231-3.216.076-5.583-1.457-6.033-4.876-.564-4.284-.282-8.563,2.136-12.27,1.619-2.482,2.051-5.102.685-7.411-4.211-7.116-5.506-15.633-10.249-22.324-4.564-6.438-7.828-13.967-14.47-18.828-.499-.247-.997-.494-1.495-.741.282-1.891,1.455-2.635,2.743-1.18,3.988,4.505,9.218,7.558,13.378,11.855,5.089,5.256,7.284,11.725,8.437,18.723.697,4.233,2.276,8.154,4.587,11.762,1.875,2.928,1.764,5.416-.887,7.983-3.935,3.811-3.166,8.657-2.137,13.336.464,2.108,2.098,3.043,4.313,2.418,1.647-.465,3.21-.077,4.785.32Z" fill="#181818" stroke-width="0"/>
  <path d="M105.305,209.617c-.501,3.497-1.002,6.993-1.503,10.49-1.644-.872-1.428-2.451-1.499-3.927-.297-6.241-1.495-12.113-6.739-16.31-.002-2.998-.004-5.996-.006-8.993,3.92,4.934,4.447,11.257,6.875,16.802.539,1.231.16,3.897,2.871,1.94Z" fill="#2a2a2a" stroke-width="0"/>
  <path d="M106.805,221.613c.001-.749.003-1.499.004-2.248,1.151-1.7,1.134-5.068,3.343-4.922,2.329.153,2.403,3.413,3.176,5.441,1.739,4.564,3.821,8.96,6.385,13.103,2.728,4.408,7.412,6.108,11.83,8.131-2.334,1.751-6.183,1.219-9.194-1.405-1.579-1.377-2.984-2.952-4.501-4.404-2.03-1.944-3.221-1.477-3.547,1.298-3.359-.493-3.857-3.537-5.196-5.831-.508-3.119-2.535-5.857-2.301-9.163Z" fill="#090909" stroke-width="0"/>
  <path d="M109.802,230.612c1.17,2.246,2.612,4.287,4.5,5.994.759,1.496,1.518,2.992,2.278,4.488-3.222-1.276-4.362-4.646-6.775-6.736-.719-1.428-1.456-2.85-1.499-4.503.859-.461,1.089.325,1.497.757Z" fill="#1c1c1c" stroke-width="0"/>
  <path d="M104.688,200.628c.116,1.387.206,2.779.266,4.177.019.442-.072,1.121-.672.997-.62-.128-1.009-1.147-1.143-1.67-.649-2.528-1.566-4.978-2.591-7.375-.453-1.06-.928-2.11-1.41-3.156-.219-.476-.425-.955-.661-1.423-.242-.481-.488-.969-.594-1.501-.144-.722-.021-1.473.196-2.176.286-.927.766-1.839,1.543-2.447.471-.368,1.066-.602,1.662-.561.417.029.829.203,1.128.497.333.326.396.782.473,1.225.775,4.463,1.425,8.913,1.802,13.413Z" fill="#363636" stroke-width="0"/>
  <path d="M104.552,198.374c-1.216-3.139-1.517-6.419-1.496-9.748.002-1.001.004-2.002.006-3.003,1.045,4.187,1.536,8.438,1.49,12.752Z" fill="#282828" stroke-width="0"/>
  <path d="M97.812,232.109c.5-.25.999-.499,1.499-.749,1.035,2.105.224,3.613-1.696,4.509-1.874.875-3.863,1.503-5.801,2.239-2.75-.159-5.596.437-8.785-.961,2.983-1.098,5.727.146,8.036-1.286,2.589-.639,4.779-1.997,6.747-3.753Z" fill="#191919" stroke-width="0"/>
  <path d="M109.802,230.612c-.499-.252-.998-.505-1.497-.757-.56-2.736-2.675-5.19-1.5-8.242.999,3,1.998,5.999,2.997,8.999Z" fill="#111" stroke-width="0"/>
  <path d="M165.74,338.119c-.416-1.909-1.16-3.761-1.923-5.56-4.473-10.541-10.939-20.234-13.405-31.631-.843-1.533-1.63-3.086-1.92-4.836-1.459-4.252-1.421-4.365,2.667-5.93,1.831-.701,3.565-1.527,5.723-1.11,1.304.252,2.711-.488,3.106-2.111.359-1.478-.595-2.315-1.619-3.077-5.704-4.248-12.186-5.867-19.201-5.616-2.606.093-4.413,1.355-3.768,4.093.258,1.094-.031,1.92-.38,2.719.316.894.625,1.791.947,2.683.255,1.052.51,2.103.805,3.316-.091-.373-1.123-1.077-1.414-1.361-1.411-1.378-2.903-2.672-4.307-4.056-.078.028-.153.048-.234.084-1.187.952-.827,2.158-.283,3.385,1.076,2.428,1.877,4.978,2.384,7.585.454,2.336,2.282,4.141,3.646,6.023,1.669,2.304,3.321,4.62,4.956,6.948,3.27,4.656,6.47,9.361,9.594,14.117,1.375,2.092,2.734,4.194,4.079,6.306.865,1.359,1.724,2.721,2.576,4.088.729,1.169,1.665,2.053,2.418,3.187.922,1.405,1.583,2.965,2.573,4.328,2.971.465,3.478-1.287,2.98-3.572Z" fill="#040404" stroke-width="0"/>
  <path d="M163.578,285.902c-3.282-1.333-5.967-3.59-8.679-5.767-2.051-1.646-4.23-2.572-6.869-2.292-5.061.536-10.048-.291-15.106-.312-5.288-.022-10.563.433-15.849.497-8.251.099-16.433-.894-24.516-2.422-1.162-.22-2.564-.773-3.739-.764-.251.002-.502.004-.753.006-.622,2.232,1.219,2.446,2.521,2.848,3.078.951,6.205,1.726,9.408,2.207.751.113,1.652-.022,2.317.42.737.49.401,1.405.874,2.02.66.858,1.805.361,2.682.374,1.304.02,2.571.448,3.806.825,1.973.603,3.98,1.101,6.02,1.419,1.938.302,3.967.157,5.857.681,2.309.641,4.048,2.4,5.41,4.297,1.243,1.732,2.258,3.627,3.612,5.275.354.431.746.855,1.255,1.083.937.419,1.889-.068,1.928-1.094.034-.926-.581-1.834-.924-2.657-.561-1.346-1.207-2.655-1.929-3.922-.103-.181-.211-.376-.19-.583.076-.743,1.527-.649,1.592-1.392-1.405-1.189-2.685-2.525-3.814-3.979-.343-.442-.68-1.058-.365-1.52.198-.291.578-.383.924-.453.606-.123,1.212-.245,1.824-.33.757-.104,1.602-.126,2.202.348.451.357.671.924.87,1.463.681,1.841,1.363,3.682,2.044,5.523.271-1.717.542-3.434.813-5.151.093-.591.193-1.2.506-1.71.667-1.087,2.086-1.419,3.36-1.487,4.257-.228,8.388,1.361,12.277,3.108,1.483.666,2.954,1.359,4.425,2.052.354.167.72.342.977.638.386.444.45,1.139.152,1.647-.527.896-1.776.94-2.816.953-3.139.039-6.222.776-9.275,1.509-.492.118-1.035.273-1.294.707-.234.394-.157.892-.054,1.338.221.957.524,1.895.906,2.8.256.606.726,2.122,1.317,2.458.224.128.792.003,1.073.067.394.091.752.275,1.088.496.614.403,1.114.959,1.657,1.447,1.015.912,2.032,1.484,3.333.621,1.199-.795,1.092-2.071.872-3.183-.179-.906-.623-1.822-.635-2.73-.026-1.996.599-3.489,3.098-2.692,1.107.407,2.192,1.588,3.384.801,1.455-.961.235-2.47.335-3.73.254-1.111,1.151-1.458,2.087-1.759Z" fill="#0b0b0b" stroke-width="0"/>
</svg>