<?xml version="1.0" encoding="UTF-8"?>
<svg xmlns="http://www.w3.org/2000/svg" width="123.389" height="184.847" viewBox="0 0 123.389 184.847">
  <g isolation="isolate">
    <g id="b" data-name="Layer 2">
      <g id="c" data-name="Vectors">
        <path d="M85.77,120.279c-9.654-21.361-20.751-41.93-33.927-62.881-3.662-5.823-9.158-13.326-16.802-22.937-7.393-9.296-11.705-14.465-21.452-21.291-5.006-3.504-9.106-3.618-11.545-.315-4.073,5.514-.974,14.413.072,17.009,1.56,3.87,3.763,7.461,5.894,10.934.881,1.437,1.793,2.922,2.643,4.402,4.673,8.138,7.796,17.01,9.282,26.373,2.694,16.968.046,35.485-7.522,50.938-1.711,3.494-3.702,6.851-5.951,10.026-.843,1.191-1.731,2.371-2.29,3.719-1.464,3.533.807,6.692,2.798,9.482,2.604,3.644,5.87,6.971,8.901,10.251,5.306,5.743,10.799,11.227,17.362,15.519,5.697,3.726,11.835,6.776,18.242,9.075,6.295,2.259,13.187,4.264,19.902,4.264.513,0,1.023-.011,1.529-.031,15.186-.623,25.476-10.964,25.025-25.147-.393-12.388-6.483-26.827-12.16-39.389Z" fill="#c8b275" mix-blend-mode="difference" stroke-width="0"/>
        <path d="M111.971.867c-.148-.532-.605-.858-1.169-.867-.547.014-.996.383-1.116.917-1.948,8.651-5.771,16.884-9.468,24.847-.656,1.414-1.312,2.825-1.956,4.236-1.194,2.617-2.367,5.271-3.544,7.936-4.017,9.09-8.17,18.49-13.426,26.864-4.026,6.414-8.137,10.645-12.57,12.937l-.454.235.245.449c.257.472,25.792,47.474,33.509,75.062,2.321,8.298,5.031,12.498,8.061,12.498.142,0,.285-.009.428-.027,6.807-.876,12.121-23.69,12.634-54.248.776-46.196-.191-64.875-4.314-83.276-2.931-13.082-5.555-22.883-6.859-27.561Z" fill="#c8b275" mix-blend-mode="difference" stroke-width="0"/>
      </g>
    </g>
  </g>
</svg>