<?xml version="1.0" encoding="UTF-8"?>
<svg xmlns="http://www.w3.org/2000/svg" width="91.457" height="141.928" viewBox="0 0 91.457 141.928">
  <g isolation="isolate">
    <g id="b" data-name="Layer 2">
      <g id="c" data-name="Vectors">
        <path d="M74.527,141.881c.121.032.245.047.368.047.281,0,.56-.081.8-.238,3.246-2.12,11.865-7.41,14.681-20.08,3.136-14.112-1.002-20.496-6.581-29.13l-1-1.552c-1.962-3.061-3.834-6.256-5.646-9.347l-.57-.972c-2.76-4.706-5.988-10.774-9.267-16.528-3.361-5.896-6.31-11.142-9.018-16.038-.538-.973-1.086-1.946-1.636-2.921-2.211-3.924-4.498-7.982-6.164-12.167-.273-.686-.534-1.382-.797-2.082-.888-2.366-1.807-4.812-3.218-6.964-2.268-3.46-5.294-4.146-8.799-4.941l-.744-.169c-8.141-1.875-15.943-7.376-23.163-13.042-.615-.482-1.22-1.009-1.83-1.541C9.81,2.36,7.604.441,4.67.036c-.98-.137-1.83.112-2.521.736C-.255,2.937-.052,9.136.058,12.467c.018.533.032.972.03,1.276-.053,6.999.66,14.04,1.333,20.091l.486,5.008c2.487,25.709,5.272,48.169,12.493,72.726,2.902,9.867,11.564,14.387,15.406,14.188,10.445-.534,16.215-6.805,19.644-18.68.035-.123.124-.15.197-.144.06.002.165.025.194.161.923,4.187,4.829,12.116,10.569,18.185,6.779,7.166,11.883,13.318,13.194,15.86.189.368.526.639.923.744Z" fill="#c8b275" mix-blend-mode="difference" stroke-width="0"/>
      </g>
    </g>
  </g>
</svg>