<?xml version="1.0" encoding="UTF-8"?>
<svg xmlns="http://www.w3.org/2000/svg" width="125.976" height="190.981" viewBox="0 0 125.976 190.981">
  <g isolation="isolate">
    <g id="b" data-name="Layer 2">
      <g id="c" data-name="Vectors">
        <path d="M62.388,10.726c-1.535-1.704-3.123-3.466-4.387-5.431-.736-1.145-1.333-2.389-1.91-3.592-.183-.381-.366-.763-.554-1.143-.187-.379-.575-.596-.995-.555-.43.043-.781.344-.893.767-.263.995-.812,1.96-1.365,2.854-.854,1.379-1.769,2.577-2.72,3.561-2.127,2.197-5.043,3.789-8.433,4.601-3.38.811-7.083.916-9.93.917-1.677,0-3.231-.098-3.247-.099l-1.968-.125,1.67,1.047c4.234,2.656,8.044,4.127,11.729,5.55,1.623.627,3.302,1.275,4.988,2.015,9.465,4.151,24.546,9.207,28.943,10.658.116.038.235.057.353.057.3,0,.59-.123.806-.352.3-.319.386-.771.224-1.178-2.624-6.579-5.016-10.687-9.48-16.28-.905-1.134-1.884-2.221-2.831-3.272Z" fill="#c8b275" mix-blend-mode="difference" stroke-width="0"/>
        <path d="M85.619,72.043c-15.868,0-26.905-1.631-39.686-3.52-6.355-.939-12.928-1.911-20.724-2.781-2.341-.262-22.932-2.489-24.955-.278-.211.231-.295.52-.236.813.212,1.051,1.042,1.754,1.811,2.406,7.007,5.942,12.102,15.232,15.145,27.611,1.876,7.634,3.25,15.494,4.578,23.096,1.923,11.003,3.912,22.381,7.461,33.296,3.113,9.571,8,21.444,18.243,28.366,9.53,6.439,22.391,9.93,36.112,9.93,2.5,0,5.028-.116,7.57-.351,13.856-1.282,30.8-15.405,34.335-31.466,3.825-17.38-8.662-31.96-20.353-59.255-7.335-17.126-18.845-27.615-18.944-27.716l-.147-.15h-.21Z" fill="#c8b275" mix-blend-mode="difference" stroke-width="0"/>
      </g>
    </g>
  </g>
</svg>