<?xml version="1.0" encoding="UTF-8"?>
<svg xmlns="http://www.w3.org/2000/svg" version="1.1" viewBox="0 0 524.4 840">
  <defs>

  </defs>
  <g class="cls-2">
    <g id="Legs">
      <path d="M255.64,435.99c.06-1.81.16-3.56-.57-5.28-.61-1.42-2.01-2.04-2.88-3.27-26.66-37.86-50.92-53.05-51.97-53.99-.53-.47-1.15-.93-1.85-1.08-2.71-.61-3.7,3.6-4.11,5.45-.45,2.01-.61,4.04-.78,6.08-.47,5.5-1.04,11-1.74,16.47-1.27,9.95-2.77,19.76-2.94,29.82-.1,5.62.03,11.25.38,16.86,1.05,16.92,2.38,46.24,8.21,73.88,5.83,27.65-.06,51.32-.06,51.32,0,0-10.23,32.88,2.22,86.11,0,0,12.9,62.91,12.88,75.05s18.97,5.11,18.66-1.21c0,0-1.18-13.08.15-28.29s4.01-50.29,5.45-59.15,4.25-25.73,1.51-45.65c0,0-2.7-14.28.72-24.19s4.07-28.77,4.07-28.77l1.13-19.42s1.18-25.23,2.77-32.77c1.59-7.54,5.52-29.37,5.52-29.37,0,0,2.73-12.77,3.24-28.62Z"/>
      <path d="M266.08,435.58c-.06-1.81-.16-3.56.57-5.28.61-1.42,1.99-2.06,2.88-3.27,7.91-10.92,16.96-21.01,26.51-30.53,4.39-4.37,8.96-8.54,13.57-12.67,2.24-2.02,4.6-4.14,6.88-6.21,1.23-1.12,2.46-2.24,3.68-3.37.94-.87,1.88-2,3.18-2.3,2.71-.61,2.91,3.68,3.32,5.53.45,2.01.42,4.5.59,6.54.47,5.5,1.07,11.93,1.76,17.41,1.27,9.95,3.22,20.67,3.39,30.73.1,5.62.58,8.79.56,14.49-.08,18.17,1.35,29.48-8.57,73.87-6.73,30.09-.78,51.35-.78,51.35,0,0,9.45,34.02-.88,85.93,0,0-10.59,60.87-10.43,75.19.07,5.98-18.97,5.11-18.66-1.21,0,0,.38-10.72-.12-25.97-.94-28.47-4.26-51.48-6.82-60.73-4.22-15.23-6.55-27.39-3.8-47.3,0,0,1.98-17.15-.32-23.26-5.12-13.66-5.49-27.38-5.49-27.38l-.51-20.8s-.96-21.12-3.78-32.77c-1.81-7.5-4.51-29.37-4.51-29.37,0,0-1.73-12.77-2.23-28.62Z"/>
    </g>
    <g id="Abdomen">
      <path d="M208.69,282.9c-.45-2.95-1.02-5.89-1.49-8.82-.92-5.74-1.85-11.47-2.77-17.21-.45-2.77-.89-5.54-1.34-8.31,0,0-1.25-6.16,2.32-4.87s14.2,8.32,29.38,7.49c4.68-.26,9.4-1,13.81-2.65,2.23-.83,4.38-1.9,6.33-3.26,1.54-1.07,2.65-2.72,4.32-3.63,1.81-.98,4.02.13,5.49,1.23,1.83,1.37,3.45,3.02,5.39,4.25,2.11,1.34,4.35,2.47,6.69,3.34,4.13,1.54,8.55,2.27,12.95,2,14.38-.87,21.55-6.98,21.55-6.98,0,0,4.03-3.17,3.35,2.4-1.05,8.73-2.13,17.45-3.2,26.17-1.5,12.21-3.01,24.41,1.26,36.28,3.92,10.89,8.18,21.61,10.5,32.97.92,4.53,2.11,15.17,2.19,16.77,0,0,.63,5.78-19.88,8.14-24.44,2.81-29.12,13.33-44.6,12.38-6.27-.39-12.24-2.52-17.84-5.27-4.46-2.19-8.67-2.98-13.27-4.84-5.2-2.1-11.65-1.47-17.2-1.95-4.81-.42-7.85.03-12.37-1.8-1.76-.71-4.74-2.26-4.51-4.62,0,0,.48-6.79.48-6.79,0,0,.8-16.92,8.43-38.38,2.73-7.67,4.6-15.76,4.82-23.92.09-3.39-.28-6.77-.79-10.14Z"/>
    </g>
    <g id="Arms">
      <path d="M197.49,208.15s8.64-51.48.78-56.82c0,0-2.57-2.53-10.53,1.36s-12.55,5.32-15.47,12.29-4.68,11.56-7.42,33.02c0,0-1.32,11.61-2.1,15.5s-2.57,11.34-2.76,30.45c-.19,19.1.08,26.5-.54,32.26s-2.81,18.28-1.91,35.04c0,0,.81,26.99,1.17,32.02,0,0,2.26,23.59,3.16,34.92s1.39,21.03,1.66,22.78,9.82,3.27,14.21.26c0,0,1.07-.35,1.26-2.7s2.42-21.61,3.01-25.1,4.12-26.12,4.62-31.44,4.11-26.24,4.16-37.99-.23-28.33-.23-28.33c0,0-.08-3.04,1.86-13.1s4.53-38.46,4.29-44.49-.31-8.29.78-9.91Z"/>
      <path d="M320.46,208.43s-5.77-31.96-.1-56.76c0,0,1.03-5.03,9.22-1.19,0,0,9.69,2.8,17.05,12.06,5.44,6.67,5.71,29.8,5.71,29.8,0,0-.62,18.13.51,42.28.32,6.92.64,13.84.95,20.77.4,8.9.9,17.7,2.7,26.46.9,4.38,1.72,8.76,2.22,13.21,1.04,9.33.24,18.73-.35,28.06-.62,9.74-.3,19.51.03,29.25.41,12.35.21,24.69.97,37.03.09,1.45,0,3.07-.71,4.37-.5.92-1.43,1.48-2.42,1.75-1.73.47-3.58.67-5.36.82-2.29.19-5.11.14-6.92-1.5-.61-.56-1.04-1.28-1.25-2.08-1.64-6.03-10.38-40.31-10.38-40.31,0,0-6.03-23.61-9.01-41-2.98-17.4-.36-30.43-.71-34.47,0,0,0-5.44-.31-9.7-.44-6.24-.85-12.48-1.26-18.72-.28-4.15-.64-8.3-.8-12.46-.17-4.17.27-8.23.47-12.39.14-2.95.25-5.89.24-8.84-.01-2.11.04-4.37-.48-6.43Z"/>
    </g>
    <g id="Breast">
      <path d="M263.61,164.82c9.28-.33,18.54-2.67,26.96-6.57,4.99-2.31,9.75-5.21,13.88-8.86,1.98-1.75,4.08-4.93,6.55-5.2,2.22-.24,3.77.68,3.69,3.04-.88,27.76-2.54,38.77,1.54,51.54.7,2.18,3.07,10.62,2.55,12.76-1.13,4.7-.75,9.7-1.3,14.48-.76,6.56-3.45,13.27-8.85,17.36-6.18,4.68-14.67,5.68-22.13,4.4-6.87-1.17-14.63-4.14-18.85-10.1-1.31-1.85-2.87-3.92-5.42-3.66-4.09.41-5.67,3.09-8.51,5.72-10.81,10.01-30.83,9.48-42.68,1.54-5.4-3.62-8.97-9.15-10.41-15.46-.25-1.11-.45-2.23-.6-3.36-1.01-7.57-.21-15.31,1.68-22.68,1.45-5.63,3.32-10.82,3.97-16.64,1.15-10.24-.03-19.91-1.73-29.99-.25-1.45-.47-2.91-.68-4.37-.43-3.04,2.91-4.54,5.07-4.03,2.48.59,4.21,2.82,5.83,4.62,3.04,3.37,7.2,5.63,11.26,7.55,4.43,2.09,9.08,3.67,13.82,4.9,1.04.27,2.08.52,3.13.75,6.94,1.56,14.1,2.5,21.23,2.25Z"/>
    </g>
    <g id="Head">
      <path d="M230.4,54.1s1.07,6.05,1.28,7.33.45,3.8-.45,4.26-2.37.48-2.78,5.59,2.4,13.15,2.94,14.36c0,0,.27.92.43,1.06,0,0,.21.3.37.41s.86.82,1.03,1.41,4.43,17.02,6.5,19.25l.89,1.26s.02,0,0,.26,0,5.52-.16,6.93-.85,7.37-.85,7.37c0,0,0,2.68-4.48,5.32s-20.18,11.25-20.18,11.25c0,0-.89,1.68,3.84,5.12,4.15,3.03,17.43,14.47,44.99,15.97,19.71,1.07,38.85-16.77,38.85-16.77,0,0,3.82-3.91,1.73-5.01-2.09-1.1-15.48-8.04-15.48-8.04,0,0-3.17-1.82-3.57-2.34-1.92-2.45-2.01-5.93-2.18-9.65s-.23-6.57-.23-6.57c0,0,4.23-4.91,6.09-10.61,1.86-5.7,2.43-8.35,3.63-14.06,0,0,1.54-.54,2.04-2.41s1.74-5.64,1.87-7.62c.21-3.23-.03-8.97-.03-8.97,0,0-.06-2.74-1.87-3.01,0,0-1.11.33-1.04-1.89s1.52-13.44-.19-19.55c-1.07-6.95-11.01-20.17-29.72-21.59,0,0-18.07-1.16-29.18,14.74,0,0-4.65,4.89-4.01,16.23"/>
    </g>
  </g>
</svg>