<?xml version="1.0" encoding="UTF-8"?>
<svg xmlns="http://www.w3.org/2000/svg" width="110.405" height="187.7" viewBox="0 0 110.405 187.7">
  <g isolation="isolate">
    <g id="b" data-name="Layer 2">
      <g id="c" data-name="Vectors">
        <path d="M.627,145.574c.167.116.527.315,1.037.593,1.613.88,4.616,2.52,7.629,4.981.499.408,1.777,1.5,3.607,3.065,18.234,15.591,39.656,33.488,43.48,33.487l.422-.021.117-.335c.131-.379-.143-.596-.522-.897-1.426-1.131-5.765-4.571-2.326-12.421,1.693-3.867,16.564-36.145,18.392-40.11,2.243.677,12.606,3.42,18.289,3.623,4.045.166,6.321-6.741,7.557-9.741l.226-.544c7.727-18.498,11.133-38.193,11.74-59.982.512-18.375.154-36.338-13.136-49.816-7.237-7.34-17.657-11.902-23.224-13.969C57.581-2.576,38.435-.808,25.145,9.385c-9.598,7.362-14.676,18.107-16.474,31.937-1.85,14.228,1.079,27.936,3.776,36.929,1.079,3.596,2.011,5.925,2.834,7.98,2.101,5.246,3.258,8.136,3.564,24.41.224,11.891-4.395,22.571-11.279,29.303-.865.846-2.025,1.914-3.323,2.673h0c-1.863,1.092-2.722,1.324-3.113,1.327-.23.001-.929.006-1.099.549-.169.545.407.948.597,1.081Z" fill="#c8b275" mix-blend-mode="difference" stroke-width="0"/>
      </g>
    </g>
  </g>
</svg>