<?xml version="1.0" encoding="UTF-8"?>
<svg xmlns="http://www.w3.org/2000/svg" width="126.107" height="193.13" viewBox="0 0 126.107 193.13">
  <g isolation="isolate">
    <g id="b" data-name="Layer 2">
      <g id="c" data-name="Vectors">
        <g>
          <path d="M91.161,143.583c-.614-4.088-1.221-8.126-1.833-12.034-2.442-15.599-3.53-25.85-7.747-36.643-2.251-5.761-4.698-11.61-8.385-16.577-3.552-4.786-7.956-8.918-11.601-13.662-7.877-10.255-14.66-21.326-20.598-32.805-2.978-5.756-5.743-11.621-8.324-17.564-1.28-2.948-2.526-5.912-3.707-8.902-.85-2.153-1.901-4.856-4.509-5.336-.468-.086-.948-.078-1.415.011-1.629.31-2.944,1.465-4.081,2.772-2.164,2.488-4.125,5.148-5.935,7.904C1.269,28.651-1.665,48.937.814,69.682c1.37,11.465,3.85,22.753,6.042,34.078,3.221,16.648,2.956,34.965,9.576,50.75,5.359,12.778,15.458,21.668,27.637,27.778,6.622,3.321,13.594,6.012,20.724,7.997,5.13,1.427,10.864,2.845,16.708,2.845,2.221,0,4.458-.205,6.683-.692,6.1-1.336,9.128-4.979,9.293-10.67.104-3.583-.542-7.107-1.167-10.516-1.619-8.831-3.757-18.408-5.148-27.669Z" fill="#c8b275" mix-blend-mode="difference" stroke-width="0"/>
          <path d="M123.451,8.102c-.118-.823-1.3-.832-1.434-.011-.841,5.169-4.735,35.875-11.035,62.39-5.119,21.542-19.14,29.439-19.988,29.945-.021.012-.03.032-.028.056,1.056,15.771,6.562,51.426,8.923,62.968.931,4.554,1.537,7.761,1.928,9.976.19,1.077,1.7,1.159,2.006.109,2.7-9.273,9.3-33.385,17.188-72.566,8.427-41.861,4.279-80.073,2.44-92.867Z" fill="#c8b275" mix-blend-mode="difference" stroke-width="0"/>
        </g>
      </g>
    </g>
  </g>
</svg>