<?xml version="1.0" encoding="UTF-8"?>
<svg xmlns="http://www.w3.org/2000/svg" width="59.347" height="227.496" viewBox="0 0 59.347 227.496">
  <g isolation="isolate">
    <g id="b" data-name="Layer 2">
      <g id="c" data-name="Vectors">
        <g mix-blend-mode="difference">
          <path d="M.865,37.726c.39.274.849.41,1.32.41.553,0,1.121-.187,1.61-.555,9.672-7.282,26.122-11.565,38.133-14.692,11.951-3.111,17.241-4.605,17.415-7.402.12-1.917-2.415-3.177-4.635-4.062-3.577-1.424-6.611-2.574-9.049-3.499-8.399-3.185-10.615-4.108-11.043-6.3-.158-.811-.774-1.426-1.618-1.591-.699-.137-1.414.143-1.925.64-5.501,5.345-17.231,18.013-21.312,22.503C4.7,28.744.654,33.585.113,35.329c-.293.946-.005,1.864.752,2.397Z" fill="#c8b275" mix-blend-mode="difference" stroke-width="0"/>
          <path d="M38.904,135.729c-.731.112-1.249.754-1.204,1.492.216,3.546.358,7.555.423,11.914.163,10.942-1.871,17.32-7.683,29.798-5.59,12.002-12.228,18.426-12.294,18.489l-.307.293-.003.424c-.075,11.544,3.179,20.493,3.317,20.868l.171.463.471.146c.076.024,7.709,2.382,16.412,4.521,8.114,1.994,13.848,2.926,15.425,3.167.238.172.509.192.623.192.03,0,.049-.001.054-.002.965-.08.935-.993.915-1.597-.015-.455-.05-1.249-.119-2.606-.167-3.276-.488-8.856-.953-16.583-1.092-18.153-9.914-54.945-13.656-69.92-.179-.715-.855-1.167-1.593-1.059Z" fill="#c8b275" mix-blend-mode="difference" stroke-width="0"/>
        </g>
      </g>
    </g>
  </g>
</svg>