<?xml version="1.0" encoding="UTF-8"?>
<svg xmlns="http://www.w3.org/2000/svg" width="145.529" height="201.879" viewBox="0 0 145.529 201.879">
  <g isolation="isolate">
    <g id="b" data-name="Layer 2">
      <g id="c" data-name="Vectors">
        <path d="M144.929,44.609c-1.27-11.815-7.212-22.462-15.507-29.396-8.597-7.186-20.312-12.276-32.988-14.331-.358-.059-.717-.114-1.078-.167-12.864-1.885-25.589-.019-35.828,5.255-10.308,5.31-16.189,13.262-20.437,24.818-3.606,9.812-4.774,21.524-3.376,33.873.708,6.263,2.011,12.583,3.872,18.783,1.143,3.808.628,5.87,1.498,8.043.559,1.396,1.041,2.601,1.468,3.925l.049.124c.079.167,1.999,5.433-.675,9.444-.886,1.329-2.325,3.926-4.146,7.213-4.438,8.012-9.545,18.821-14.399,23.437l-.997.949c-6.469,6.158-11.144,10.606-15.235,13.125-.313.192-.634.383-.955.574-2.287,1.361-6.352,2.768-6.192,4.99.169,2.34,3.155,4.543,9.983,7.369,3.596,1.488,8.474,3.288,14.123,5.371,17.458,6.44,41.367,15.259,52.756,24.244,8.813,6.953,13.01,9.627,15.483,9.627.5,0,.929-.109,1.312-.314,1.678-.898,1.84-3.266,1.557-6.796l-.036-.457c-.658-8.202-2.503-17.498,1.095-29.437,3.175-10.537,7.353-22.14,8.553-24.885.013-.03.035-.044.068-.042.687.046,3.197-.141,3.764-.079.686.076,1.242.135,1.336.138,3.487.12,6.743-.25,9.676-1.101,10.711-3.103,12.644-11.38,15.673-20.641l.057-.175c3.771-11.592,6.477-23.503,8.085-35.586,1.662-12.487,2.794-25.315,1.442-37.897Z" fill="#c8b275" mix-blend-mode="difference" stroke-width="0"/>
      </g>
    </g>
  </g>
</svg>