<?xml version="1.0" encoding="UTF-8"?>
<svg xmlns="http://www.w3.org/2000/svg" width="53.768" height="178.22" viewBox="0 0 53.768 178.22">
  <g isolation="isolate">
    <g id="b" data-name="Layer 2">
      <g id="c" data-name="Vectors">
        <path d="M36.171,96.288c-9.459-41.363-1.048-61.046,3.47-71.621l.628-1.476c3.114-7.387,9.405-15.452,12.948-19.68.65-.776.761-1.925.138-2.722-.502-.642-1.313-.928-2.125-.726-6.093,1.493-12.297,2.633-18.556,3.12-2.068.161-4.144.265-6.218.209-1.791-.048-3.438-.305-5.177-.68-1.677-.114-3.053,1.216-3.915,2.667C2.381,30.619-.074,48.63.002,60.385c.056,8.584,1.265,16.888,3.596,24.679,2.518,8.419,6.756,16.121,10.57,22.545,1.227,2.067,2.496,4.123,3.767,6.182,4.976,8.062,9.922,16.397,12.524,25.605,1.574,5.565,1.909,12.226,2.813,17.894,1.014,6.352,2.062,12.921,4.014,19.145.443,1.412,1.083,1.784,1.635,1.784.125,0,.246-.02.358-.05,3.278-.888,3.235-22.433,3.193-26.743-.104-10.762-1.062-32.235-6.3-55.139Z" fill="#c8b275" mix-blend-mode="difference" stroke-width="0"/>
      </g>
    </g>
  </g>
</svg>