<?xml version="1.0" encoding="UTF-8"?>
<svg xmlns="http://www.w3.org/2000/svg" width="222.986" height="248.543" viewBox="0 0 222.986 248.543">
  <g isolation="isolate">
    <g id="b" data-name="Layer 2">
      <g id="c" data-name="Vectors">
        <g mix-blend-mode="difference">
          <path d="M197.621,200.603c-.787-5.825-3.668-4.856-10.701-4.431-1.925.116-4.32.261-7.224.333-15.711.393-53.12.363-77.908-5.219l-3.217-.723c-25.339-6.819-40.646-7.894-41.238-15.733-.276-3.662,2.507-7.218,5.488-10.713,3.732-4.375,9.979-10.499,19.071-28.869,7.819-15.798,7.101-24.786,6.406-33.478-.814-10.184-1.583-19.803,10.298-40.17,8.629-14.792,11.389-27.581,8.203-38.01-2.423-7.931-9.286-15.073-16.438-19.164-14.124-8.079-32.906-.342-42.284,11.849-6.671,8.672-11.759,17.648-15.033,28.124-3.275,10.48-3.923,36.203-3.993,38.374,0,.007,0,.011-.003.018-.634,1.963-6.448,20.775-9.975,32.477-3.661,12.146-13.4,57.438-16.763,75.846-3.325,18.198-2.72,31.592-.343,37.366,2.502,6.077,4.647,10.464,9.491,11.583,2.05.473,5.402.897,10.956,1.601,6.427.814,16.14,2.045,30.03,4.161,9.509,1.448,19.023,2.718,28.335,2.718,15.17,0,29.797-1.512,42.945-3.198,20.647-2.647,44.228-12.355,60.624-14.12,6.699-.721,12.264-6.965,13.564-14.687,1.035-6.149.195-12.343-.256-15.67l-.036-.265Z" fill="#c8b275" mix-blend-mode="difference" stroke-width="0"/>
          <path d="M221.211,18.432c-3.416-9.167-7.44-15.093-15.361-18.192l-.721-.239-.462.545c-.95,1.12-2.491,10.074,5.901,21.862,5.999,8.426,11.06,21.107,11.06,21.107l.563-3.575c.07-.693,2.276-12.769-.98-21.508Z" fill="#c8b275" mix-blend-mode="difference" stroke-width="0"/>
        </g>
      </g>
    </g>
  </g>
</svg>