<?xml version="1.0" encoding="UTF-8"?>
<svg xmlns="http://www.w3.org/2000/svg" version="1.1" viewBox="0 0 524.4 840">
  <defs>

  </defs>
  <g>
    <g id="Legs">
      <path d="M185.13,464.78s.76-10.83,6.09-9.06c3.3,1.09,17.13,9.13,63.22,5.66,0,0,4.01-.46,3,3.13s-15.78,49.23-15.78,49.23c0,0-4.51,13.15-6.04,28.3-1.53,15.15-5.85,31.88-9.73,41.12s-8.09,18.09-8.51,39.3c-.42,21.21-3.55,36.3-9.75,50.67-5.51,12.79-16.94,64.16-16.94,64.16l-1.58,16.65s-3.77,4.84-13.33,3.27c-9.56-1.56-11.76-8.86-11.76-8.86,0,0,1.11-15.85.73-24.05-.38-8.2-4.47-58.29-3.44-72.28.35-4.79-1.1-19.31,2.77-33.18,2.13-7.63,17.34-55.57,17.34-55.57,0,0,7.53-20.06,2.44-44.42-4.33-19.99,1.27-54.07,1.27-54.07Z"/>
      <path d="M343.88,464.7c-.14-1.54-.32-3.07-.55-4.59-.43-2.85-1.73-11.09-5.63-9.19-3.12,1.52-15.53,14.41-61.62,10.93,0,0-4.01-.46-3,3.13s18.39,48.55,18.39,48.55c0,0,8.3,14.16,11.12,32.66,1.92,12.58,3.46,25.32,6.83,37.62,2.65,9.66,8.26,21.31,8.05,36.53-.3,21.22,1.83,38.21,8.03,52.58,5.51,12.79,15.94,64.16,15.94,64.16l1.58,16.65s4.77,4.84,14.33,3.27c9.56-1.56,9.47-7.75,9.47-7.75,0-15.74.57-31.48,1.53-47.19.92-15.14,2.8-30.18,3.99-45.29.16-2.03.31-4.05.44-6.08.31-4.79-.46-26.56-11.3-51.78-10.09-23.49-9.78-35.85-9.78-35.85,0,0-1.67-22.94-2.88-38.33-2.04-10.68-3.2-21.51-3.94-32.36-.62-9.09-.16-18.56-1-27.69Z"/>
    </g>
    <g id="Buttocks">
      <path d="M198.88,376.09s.31-7.66,2.37-8.58c24.03-10.67,52.76,7.49,66.68,7.52,16.15.04,29.61-14.81,55.55-11.49,0,0,3.2.23,3.85,4.44s2.04,21.35,2.53,21.96.69,8.54,1.79,14.03c1.09,5.49,3.62,17.42,3.62,17.42,0,0,1.26,4.48,2.93,14.51,3.6,21.61-63.13,18.94-63.13,18.94,0,0-2.14,1.02-6.74-4.96,0,0-3.13-4.51-6.71,2.33,0,0-.36,2.26-4.88,2.35-1.84.04-71.88,4.08-67.01-16.56,2.36-9.98,3.94-21.03,4.8-25.71.86-4.68,4.35-36.2,4.35-36.2Z"/>
    </g>
    <g id="Back">
      <path d="M194.02,152.73c3.37-1.49,7.33-4.27,10.99-4.74,10.34-1.34,37.03,6.32,64.11,6.33,23.29,0,40.55-7.92,50.18-6.03,3.58.7,8.17,3.68,11.49,5.18,1.44.65,3.31,1.39,5.61,2.08l5.98,1.8s3.21,1.85-.18,6.33-13.94,39.37-7.16,59.78c0,0-2.01,2.74-1.5,11.08.51,8.34-2.49,30.16-6.18,42.4-3.68,12.24-5.86,31.78-4.35,42.42,1.52,10.64.08,25.7.08,25.7,0,0,1.14,11.63-5.81,12.28-34.89,3.27-38.02,9.83-48.79,9.84-12.6,0-29.99-9.18-60.82-9.26-3.69,0-7.73-2.22-7.9-8.07,0,0-.81-2.34-.24-9.38.57-7.04,1.48-11.54,1.95-14.51s2.51-17.52,1.96-22.37c-.55-4.85-.5-22.76-2.79-31.39-2.29-8.63-6.72-27.12-6.54-32.67s-.17-11.05-.53-12.97-.56-1.93-.56-1.93c-1.46-1.4,4.07-35.04-1.02-57.71-.31-1.4-4.99-11.11,2-14.19Z"/>
    </g>
    <g id="Arms">
      <path d="M142.35,389.64c.23.75,1.31,7.06,6.95,6.64.64-.05,5.95-.71,9.06-1.33.68-.14,2.35-.14,3.57-1.12.8-.64,1.83-2.5,1.79-4.57-.08-3.68,1.32-9.07.58-13.15-.74-4.08,1.42-34.2,1.42-34.2,0,0,2.49-20.18,1.71-26.02l-1.37-16s-.61-5.03,3.26-9.45c3.32-3.79,6.04-11.06,6.75-13.06.13-.37.28-.74.43-1.11,1.47-3.46,8.89-21.59,9.51-36.23,0,0,1.09-11.29,1.28-17.34,0,0,.13-2.73,1.37-3.48,1.48-1.59-.07-1.96-.78-6.05-.71-4.12,4.2-40.49-3.21-52.22,0,0-2.52-5.16-8.5-2.21s-14.82,7.22-17.21,12.47c-2.37,5.2-11.03,15.28-10.58,35.34,0,.38.03.77.06,1.16.13,1.66.42,6.94-.93,10.29-1.63,4.03-9.35,18.72-9.93,26.15-.52,6.73-5.72,29.62-6.7,33.9-.1.42-.2.83-.33,1.24-.8,2.66-4.14,14.49-4.44,26.33,0,0-.27,8.78,1.55,15.91.2.78.37,1.57.48,2.37.21,1.53.55,4.34.85,7.72.45,5.15,1.29,15.6,2.81,22.45,1.34,6.03,8.62,29.28,10.55,35.55Z"/>
      <path d="M348.11,163.47c.71-1.9,2.89-2.79,4.71-1.9,5.53,2.7,16.17,9.43,19.61,22.28,4.72,17.65,4.83,20.08,5.16,25.34.33,5.25-.46,6.53-.46,6.53,0,0-.46,2.38,1.59,5.52,1.99,3.93,6.32,11.43,9.56,30.19,0,0,3.31,17.62,5.68,25.21,2.37,7.59,3.83,16.94,3.4,22.82-.43,5.88-.88,11.16-1.45,12.95-.57,1.79-.02,4.63-.02,4.63,0,0,1.66,11.91.15,21.56-1.51,9.66-2.29,15.69-5.04,25.78-2.75,10.09-7.04,28.35-7.04,28.35,0,0-.28,5.54-6.23,5.23-5.52-.29-14.05.9-14.52-14.65-.32-10.67-1.31-22.8-1.74-27.12-.44-4.32-3.69-37.95-3.7-38.09s-.86-27.97-.86-27.97c0,0-.09-4.04-2.74-8.74s-7.51-13.72-10.17-22.76c-2.66-9.04-4.71-31.54-4.71-31.54,0,0-.42-1.86-1.12-2.82-.7-.96-.94-7.95-.68-12.83.24-4.66,1.92-24.67,10.64-47.97Z"/>
    </g>
    <g id="Head">
      <path d="M268.73,23.06s.1,0,.3,0c2.01-.02,13.99.38,25.27,12,12.36,12.74,5.47,30.49,5.47,30.49l-.69,1.68s-1.62,3.09,1.01,4.95c0,0,1.73.69,1.25,3.97s-2.19,11.69-4.77,16.24c0,0-1.97,3.13-1.93,5.67s-1.34,10.67-3.76,12.09c0,0-.69.88.18,9.42,0,0,1.27,9.71,4.82,13.51l11.82,6.97c2.19,1.29,1.42,4.51-1.1,4.85-42.72,5.71-71.74.24-86.74-1.4-1.99-.22-2.49-2.89-.71-3.82l9.8-5.13s7.92-2.89,9.33-11.38c0,0,1.91-5.36,3.1-13.92,0,0,.2-.8-.68-4.01s-1.35-3.29-1.12-10.95c0,0-1.86-3.8-3.07-8.92s-.68-4.9-1.41-7.43-2.2-6.44.69-8.22c2.39-1.64.3-5.56.3-5.56,0,0-1.63-3.71-1.56-9.73.08-6.02,2.1-27.99,34.32-31.38"/>
    </g>
  </g>
</svg>