<?xml version="1.0" encoding="UTF-8"?>
<svg xmlns="http://www.w3.org/2000/svg" width="66.098" height="224.943" viewBox="0 0 66.098 224.943">
  <g isolation="isolate">
    <g id="b" data-name="Layer 2">
      <g id="c" data-name="Vectors">
        <path d="M48.242,197.666c.463,1.618.81,3.279,1.24,4.914,1.758,6.688,3.37,13.63,5.972,20.047.276.68.584,1.379,1.139,1.863,1.502,1.309,2.657-.518,3.18-1.82,5.742-14.305,10.424-34.728.739-48.359-2.109-2.968-4.952-5.279-7.24-8.104-2.566-3.168-4.703-6.675-6.156-10.491-1.63-4.278-2.707-8.832-3.749-13.236l-.457-1.926c-3.206-13.39-7.267-26.777-11.194-39.723-.75-2.472-1.5-4.942-2.244-7.415-2.843-9.441-5.184-19.192-7.448-28.623-1.142-4.758-2.323-9.678-3.555-14.5-2.083-8.158-4.737-16.379-8.605-26.658-2.799-7.437-3.861-13.867-4-22.93-.006-.364-.27-.661-.628-.704-.354-.04-.682.181-.774.532C3.824,2.991-.423,30.589.034,43.199c.302,8.324,1.928,16.728,2.823,24.854.511,4.639,1.04,9.436,1.446,14.16,1.098,12.784,2.845,23.124,6.337,34.501,1.39,4.528,2.988,8.989,4.75,13.259,4.425,10.719,8.362,18.059,13.752,28.11,4.245,7.917,9.043,16.679,12.839,24.964,1.023,2.233,3.605,8.549,4.747,10.706.662,1.25,1.128,2.566,1.513,3.912Z" fill="#c8b275" mix-blend-mode="difference" stroke-width="0"/>
      </g>
    </g>
  </g>
</svg>