<?xml version="1.0" encoding="UTF-8"?>
<svg xmlns="http://www.w3.org/2000/svg" width="58.301" height="198.921" viewBox="0 0 58.301 198.921">
  <g isolation="isolate">
    <g id="b" data-name="Layer 2">
      <g id="c" data-name="Vectors">
        <path d="M48.676,195.271c4.797-11.445,7.725-21.701,8.952-31.354,1.3-10.229,1.354-25.198-5.769-38.426-1.234-2.292-2.486-4.579-3.739-6.869-8.466-15.469-17.985-31.152-17.899-49.313.036-7.539,1.184-15.024,2.324-22.476,1.63-10.659,3.144-21.422,2.268-32.223-.329-4.051-.897-7.95-1.691-11.588C32.69,1.045,31.862-.051,30.809.002c-1.072.06-1.842,1.365-2.061,3.49-.652,6.354-5.288,27.289-11.816,29.892-1.57.624-2.751.139-4.643-1.486-.366-.314-.87-.4-1.31-.224-.433.172-.732.571-.781,1.039-.396,3.828-.912,7.754-1.576,12-.714,4.569-1.928,9.058-3.103,13.398-.621,2.295-1.263,4.669-1.832,7.051C.006,80.574-.699,95.184.605,108.588c2.712,27.871,16.406,51.547,31.342,74.063.669,1.009,1.335,2.041,2.006,3.079,2.403,3.72,4.686,7.792,7.452,11.241.454.567.95,1.116,1.568,1.497,2.457,1.515,4.817-1.084,5.703-3.198Z" fill="#c8b275" mix-blend-mode="difference" stroke-width="0"/>
      </g>
    </g>
  </g>
</svg>