<?xml version="1.0" encoding="UTF-8"?>
<svg xmlns="http://www.w3.org/2000/svg" version="1.1" viewBox="0 0 524.4 840">
  <defs>

  </defs>
  <g>
    <g id="Legs">
      <path d="M256.89,444.05s1.75-10.99-4.44-9.83c-10.19,1.91-20.35,4.49-30.78,2.98-7.72-1.12-15.54-3.53-22.27-7.52-1.35-.8-2.65-2.14-4.06-2.78-1.14-.52-2.36.37-3.01,1.39-1.09,1.7-1.29,4-1.39,5.95-.67,12.75-.56,27.73.29,40.47.98,14.67,2.84,29.42,4.83,43.99.96,7,2.5,13.92,3.15,20.96.56,6.15.71,12.34.61,18.51-.03,1.77-.04,3.54-.14,5.3-.89,16.05-8.45,35.79-8.83,66.61,0,0-1.78,9.29,6.84,55.83s9.51,62.79,9.51,62.79c0,0,.31,8.24,0,13.52,0,0,.03,6.48,8.99,6.53,8.96.04,12.24-3.11,11.7-7.19-.54-4.08-1.63-14.3-1.19-22.74s3.01-49.35,3.01-49.35c0,0,1.52-13.19,3.02-18.52s6.16-24.03,6.18-30.47c.02-6.44.66-12.72-.78-28.75-.56-6.16-.9-12.42-.31-18.6.39-4.09,1.79-7.97,3.01-11.86s2.01-8.21,2.75-12.41c2.01-11.4,1.13-23,1.63-34.51.02-.55.05-1.1.09-1.65.28-3.7,1.09-22,4.81-38.18,3.71-16.18,7.18-45.95,6.77-50.46Z"/>
      <path d="M268.1,442.34s-.37-8.85,7.63-7.55,34.51,7.42,55.45-8.88c0,0,4.11-3.86,3.83,9.34s-.43,34.89-1.78,43.65c0,0-2.2,27.86-4.63,39.34s-5.27,34.92-4.44,40.61c.84,5.69.05,11.9,4.36,34.07,4.31,22.18,4.57,47.1-3.49,86.54-8.06,39.44-12.14,64.91-12.51,69.77-.36,4.86-.44,14.85-.44,14.85,0,0-1.9,3.64-9.04,2.97s-12.87-.75-11.98-7.78,1.17-13.19,1.17-24.21c0-11.02-1.56-37.49-3.01-50.87-1.44-13.38-6.11-30.96-6-48.29s3.55-26.76,2.31-36.2c0,0,.39-2.06-2.11-15.32s-4-24.23-4.51-47.56c-.51-23.32-4.76-49.56-4.76-49.56,0,0-6.92-36.8-6.07-44.91Z"/>
    </g>
    <g id="Buttocks">
      <path d="M278.7,351.88c-9.1,2.14-21.26,2.97-33.51-1.26-10.94-3.77-41.58-5.58-45.74,2.68,0,0-.92,10.78-1.05,13.18-.13,2.4-1.61,20.2-2.1,24.01-.49,3.81-1.1,10.04-1.38,11.14-.52,2.06-1.04,16.3,7.11,22.1,7.1,5.05,15.96,6.59,24.48,6.97s16.18.06,24.21-1.09c.68-.1,1.37-.26,2.05-.32,0,0,4.36-.4,6.15-2.22,0,0,1.92-1.73,3.84-1.69s3.98,3.88,6.61,3.92c2.89.04,5.65.93,8.48,1.39,9.57,1.56,19.62.66,28.96-1.77,7.96-2.07,17.86-5.12,23.86-11.05,2.67-2.64,3.1-6.93,2.75-10.51-.55-5.63-2.68-24.27-2.68-24.27,0,0-2.56-22.98-2.55-24.94l-1.13-7.89c-34.05-6.88-39.03-.59-48.35,1.6Z"/>
    </g>
    <g id="Back">
      <path d="M201.83,207.21c.15-.81.4-1.61.58-2.42.03-.14.06-.28.09-.42.67-3.04,1.04-6.14,1.19-9.25.22-4.48-.05-8.97-.72-13.4-.12-.8-.26-1.6-.4-2.4-3.33-18.05-15.42-27.99-3.77-32.3,7.56-2.79,18.61.47,25.97,2.57,9.79,2.8,27.8,6.03,37.98,6.15,13.78.16,28.86-1.87,47.86-8.43,1.21-.42,2.41-.84,3.62-1.24,3.64-1.23,7.03-1.52,10.79-.57,0,0,6.05,2.09-.2,17.27-2.95,7.16-6.76,23.84.96,44.12,0,0-.26.89-1.1,6.11-1.92,12.04-2.81,24.23-4.81,36.26-1.2,7.25-2.46,14.49-3.56,21.76-.92,6.09-2.06,12.12-2.03,18.3.05,9.7,2.62,18.87,5.83,27.94,5.34,15.13,5.73,25.09,5.73,25.09,0,0-22.58-3.24-37.4.62-23.17,6.05-31.21,5.78-52.36-.35-12.31-3.57-35.02-.46-35.02-.46,0,0,2.44-11.45,3.93-15.91,2.66-7.95,6.2-15.61,8.22-23.77,1.77-7.18,1.55-14.6.47-21.88-1.51-10.16-3.44-20.26-5.41-30.34-.93-4.78-1.85-9.56-2.73-14.35-.54-2.96-1.46-6.08-1.67-9.09-.17-2.51-.39-5.03-.65-7.53-.32-3.09-.28-5.4-1.31-8.36-.08-.22-.08-.47-.1-.7-.05-.57-.08-1.14-.1-1.71-.01-.45.03-.89.11-1.33Z"/>
    </g>
    <g id="Arms">
      <path d="M201.1,211.07s-2.5-1.08-1.7-15.36c.8-14.28-10.69-40.97-10.69-40.97,0,0-2.84-5.45-9.35,1.95,0,0-7.19,4.71-8.84,24.27-1.64,19.56-.45,32.78-1.95,47.28-1.5,14.5-2.56,39.83-2.56,39.83,0,0-.88,8.97-1.91,12.99s-3.21,18.63-2.12,26.34c0,0,1.87,27.76,1.71,32.17s-.69,32.64-.17,39.09l-.18,18.23s1.77,3.45,6.47,3.33,9.24-.06,9.92-4.98c.67-4.92,3.25-15.42,3.25-15.42l5.21-21.26s4.38-18.48,6.09-28.42c1.71-9.94,3.99-23,4.16-27.02s.23-15.52-.34-27.75c-.28-10.88,2.57-31.01,2.86-36.87.29-5.86.53-9.31.29-14.66-.24-5.35-.78-9.7-.14-12.77Z"/>
      <path d="M326.41,206.67c.15-.17.21-.39.26-.61.31-1.42.36-2.87.4-4.31.06-1.94.04-3.87,0-5.81-.23-10.54,1.65-31.22,7.47-41.62,0,0,1.93-3.79,6.65-1.36s7.9,3.7,10.46,10.06c3.37,8.34,5.25,17.02,6.5,25.92,2.14,15.29,4.94,30.5,6.32,45.94.82,9.19.55,18.8.14,28.05,0,0,.36,13.75,1.4,22.58,1.04,8.83,1.09,19.62.84,33.43-.25,13.81-2.21,38.4-2.21,38.4l-2.86,24.98s-.66,9.7-.7,11.26-1,4.5-7.19,3.8c-6.19-.7-9.38-.71-10.27-8.96s-3.27-23.16-3.27-23.16l-4.31-30.51s-2.89-17.33-2.9-32.26c0,0-.15-11.07-.03-19.25s.29-11.07-.94-17.32c-1.23-6.25-4.2-25.58-4.65-36.47-.18-4.34-.42-8.7-.5-13.04,0-1.39-.06-2.79-.08-4.19s.05-2.79-.14-4.15c-.06-.42-.07-1.09-.4-1.4Z"/>
    </g>
    <g id="Head">
      <path d="M262.69,23.12c-5.47-.15-10.89,1.08-15.8,3.67-1.61.85-3.18,1.8-4.67,2.85-5.27,3.7-10.33,11.94-10.91,18.35-.04.47-.07.93-.09,1.4-.14,3.34.2,6.66.87,9.94l.5,2.82s.39,1.37-.94,2.11-2.46,1.1-2.71,4.3c0,0-.54,2.53.6,7.01,1.06,4.17,1.77,6.85,2.34,7.97.08.15.14.29.18.45.24.9,1.21,4.28,2.87,7.19.09.15.15.31.2.48.08.31.22.92.36,1.85.22,1.45.83,8.22,4.32,13.64,0,0,1.81,2.14,1.33,6.49-.37,3.34.16,6.89-1.34,10.1-1.4,3.02-4.37,4.63-7.27,5.97,0,0-10.94,5.59-12.68,6.69s-14.96,6.83-4.74,7.67c11.56.95,34.42,6.34,47.57,6.24,13.15-.1,46.2-6.9,46.2-6.9,0,0,8.58-1.25,3.37-4.04s-22.9-11.95-22.9-11.95c0,0-5.94-3.03-6.01-9.33-.04-3.98-.07-6.87-.09-8.45,0-.7.33-1.35.91-1.74.45-.31.99-.89,1.41-2.01.85-2.29,3.8-10.45,3.62-14.3-.02-.35.08-.69.24-1,1.02-1.97,4.55-9.17,5.41-15.94.85-6.63.53-9.44-1.89-10.52-.92-.41-1.46-.54-1.13-2.41,1.11-6.37,2.03-13.27-.11-19.36l-.04-.09c-2.33-6.11-7.34-11.32-12.94-14.58-2.95-1.72-6.18-2.97-9.51-3.72-.03,0-.07-.02-.1-.02-2.1-.47-4.25-.74-6.4-.8Z"/>
    </g>
  </g>
</svg>