<?xml version="1.0" encoding="UTF-8"?>
<svg xmlns="http://www.w3.org/2000/svg" version="1.1" viewBox="0 0 238 509.1">
  <defs>
    <style>
      .cls-1, .cls-2 {
        mix-blend-mode: difference;
      }

      .cls-3, .cls-2 {
        isolation: isolate;
      }

      .cls-2 {
        fill: #c8b275;
        stroke-width: 0px;
      }
    </style>
  </defs>
  <g class="cls-3">
    <g id="Male_Body_Area" data-name="Male Body Area">
      <path id="Head" class="cls-2" d="M191.3,53.5c-.9-8.8-5.4-16.8-11.6-22-6.4-5.4-15.2-9.2-24.6-10.7-.3,0-.5,0-.8-.1-9.6-1.4-19.1,0-26.8,3.9-7.7,4-12.1,9.9-15.3,18.5-2.7,7.3-3.6,16.1-2.5,25.3.5,4.7,1.5,9.4,2.9,14,.9,2.8.5,4.4,1.1,6,.4,1,.8,1.9,1.1,2.9h0c0,.2,1.5,4.2-.5,7.1-.7,1-1.7,2.9-3.1,5.4-3.3,6-7.1,14.1-10.8,17.5l-.7.7c-4.8,4.6-8.3,7.9-11.4,9.8-.2.1-.5.3-.7.4-1.7,1-4.7,2.1-4.6,3.7,0,1.7,2.4,3.4,7.5,5.5,2.7,1.1,6.3,2.5,10.5,4,13,4.8,30.9,11.4,39.4,18.1,6.6,5.2,9.7,7.2,11.6,7.2s.7,0,1-.2c1.3-.7,1.4-2.4,1.2-5.1v-.3c-.5-6.1-1.9-13.1.8-22,2.4-7.9,5.5-16.5,6.4-18.6s0,0,0,0c.5,0,2.4,0,2.8,0,.5,0,.9,0,1,0,2.6,0,5-.2,7.2-.8,8-2.3,9.4-8.5,11.7-15.4h0c2.8-8.8,4.8-17.7,6-26.7s2.1-18.9,1.1-28.3h.1Z"/>
      <path id="Chest" class="cls-2" d="M172.1,193.8c-.9-1.5-2.9-4.6-3.9-6-3.4-5.2-5.7-10.2-6.1-16.5v-.3c0-.6-.3-1.3-.8-1.7-.3-.2-.7-.3-1.1-.2-.6.2-.8.7-.9.9-1.2,2.5-1.3,5.2-1.5,7.9,0,.9-.1,1.8-.2,2.6,0,.4,0,.8-.3,1-.4.6-1.6.3-2.5-.2-3-1.7-5.6-4.1-8-6.4-1.2-1.1-2.4-2.3-3.7-3.3-11.1-9.3-25.9-14-40.4-12.8-1.4.1-2.7.3-3.9,1-2.4,1.4-2.1,4-1.5,6.3,4.3,15.9,5.3,36.7-5.3,50.1-1.2,1.5-2.4,3.3-2.4,5.2,0,3.6,3.9,7.2,6.1,9.4,8.2,8.1,15.5,13.1,24.8,19.9.4.3.7.5,1.1.8,3.6,2.5,8.4,5.6,13.7,7.3,2.9.9,5.8,1.4,8.7,1.4s6.9-.7,10.4-1.9c2.6-1,5-2.2,7.4-3.5.3-.1.5-.3.8-.5,1-.6,2.1-1.2,3.1-1.3,2.7-.1,5.5,2.6,5.5,2.7l.4.4.5-.3c.2-.1.6-.3,1-.6,3.7-2.1,11.5-7.1,12.4-14.8,1-7.9-1.3-16.8-4-25.2-2.5-7.8-5.1-13.9-9.6-21.5h.2Z"/>
      <g id="Back" class="cls-1">
        <path class="cls-2" d="M55.2,166.8c.3.2.6.3,1,.3s.8-.1,1.2-.4c7.2-5.4,19.5-8.6,28.5-11,8.9-2.3,12.9-3.4,13-5.5,0-1.4-1.8-2.4-3.5-3-2.7-1.1-4.9-1.9-6.8-2.6-6.3-2.4-7.9-3.1-8.2-4.7,0-.6-.6-1.1-1.2-1.2s-1.1.1-1.4.5c-4.1,4-12.9,13.5-15.9,16.8-3.8,4.2-6.8,7.8-7.2,9.1-.2.7,0,1.4.6,1.8h0Z"/>
        <path class="cls-2" d="M83.6,240c-.5,0-.9.6-.9,1.1.2,2.6.3,5.6.3,8.9,0,8.2-1.4,12.9-5.7,22.3-4.2,9-9.1,13.8-9.2,13.8l.2.6s2.4,14.6,2.5,14.9v1.1c0,0,5.8,1.8,12.3,3.4,6.1,1.5,10.3,2.2,11.5,2.4.2.1.4.1.5.1s0,0,0,0c.7,0,.7-.7.7-1.2v-1.9c0-2.4-.4-6.6-.7-12.4-.8-13.6-7.4-41-10.2-52.2,0-.5-.6-.9-1.2-.8h-.1Z"/>
      </g>
      <path id="Buttocks" class="cls-2" d="M84.6,427.9c-7.1-30.9-.8-45.6,2.6-53.5l.5-1.1c2.3-5.5,7-11.5,9.7-14.7s.6-1.4,0-2-1-.7-1.6-.5c-4.6,1.1-9.2,2-13.9,2.3-1.5.1-3.1.2-4.6.2s-2.6-.2-3.9-.5c-1.3,0-2.3,1.2-2.9,2.3-11.2,18.9-13,32-13,40.8s.9,12.6,2.7,18.4c1.9,6.3,5,14,7.9,18.8.9,1.5,1.9,3.1,2.8,4.6,3.7,6,7.4,12.2,9.4,19.1,1.2,4.2,1.4,7.1,2.1,11.4.8,4.7,1.5,9.7,3,14.3.3,1.1.8,1.3,1.2,1.3s.2,0,.3,0c2.4-.7,2.4-16.8,2.4-20,0-8-.8-24.1-4.7-41.2h0Z"/>
      <g id="Arms" class="cls-1">
        <path id="Arm_2" data-name="Arm 2" class="cls-2" d="M160.8,317.8c-.6-4.4-2.7-3.6-8-3.3-1.4,0-3.2.2-5.4.2-11.7.3-39.7.3-58.2-3.9l-2.4-.5c-19.6-5.6-30.3-5.9-30.4-11.8,0-2.3,1.1-3.1,3-6.6s8.2-9.2,15-22.9c5.8-11.8,5.3-18.5,4.8-25-.6-7.6-1.2-14.8,7.7-30,6.4-11,8.5-20.6,6.1-28.4-1.8-5.9-6.9-11.3-12.3-14.3-10.6-6-24.6-.3-31.6,8.9-5,6.5-8.8,13.2-11.2,21s-2.9,27-3,28.7h0c-.5,1.5-4.8,15.5-7.5,24.3-2.7,9.1-10,42.9-12.5,56.7-2.5,13.6-2,23.6-.3,27.9,1.9,4.5,3.5,7.8,7.1,8.7,1.5.4,4,1,8.2,1.5,4.8.6,12.1,1.5,22.4,3.1,7.1,1.1,14.2,1.7,21.2,1.7,11.3,0,22.3-1.1,32.1-2.4,15.4-2,33-7.3,45.8-9.9s8.7-5.8,9.6-11.6c.8-4.6.1-9.2-.2-11.7v-.4Z"/>
        <path id="Arm_1" data-name="Arm 1" class="cls-2" d="M178.4,181.7c-2.6-6.8-5.6-11.3-11.5-13.6l-.5-.2-.3.4c-.7.8-1.9,7.5,4.4,16.3,4.5,6.3,8.3,15.8,8.3,15.8l.4-2.7c0-.5,1.7-9.5-.7-16.1h0Z"/>
      </g>
      <g id="Stomach">
        <path id="Stomach_Lower" data-name="Stomach Lower" class="cls-2" d="M177.2,344.5h-.9c0,.1-3.7.7-6.7-.5l-.5-.2c-3-1.2-5.3-2.2-12.6.2-1.2.4-2.9,1-4.8,1.7-9.4,3.4-25.2,9.1-39.5,8.6-.5,0-1.1.2-1.4.6-.4.5-.5,1.2-.2,1.7,3.2,6.7,14.5,29,25,36.1,4.6,3.1,10.9,5.7,17.2,5.7s4.8-.4,7.1-1.3c6.2-2.4,10.1-8.2,12.2-16.7,5-20.6,5.1-34.9,5.1-35v-.9h0Z"/>
        <path id="Stomach_Upper" data-name="Stomach Upper" class="cls-2" d="M148.1,311.1c7.4-1.3,10.3-3.6,13-5.7s4.1-2.7,10.2-5.3c1.7-.8,2.7-8.9,2.7-9,.7-4.8,0-8.9-.8-13.1-.6-3.2-.5-6.4-.6-9.6,0-1-.8-4.9-.7-6,.2-1.9-3.2-5.3-5.3-5.1-.8,0-1.8.8-3.4,1.9-5.8,4.2-17.8,11.5-38.6-1.2-7.9-4.8-14.6-10.2-20-14.5-7-5.6-11.2-9-13.5-7.5-1.8,1.2-2.2,4.8,1.3,19.1,7.4,29.3,8.4,46.6,8.5,51.2,0,1.3,1,2.3,2.2,2.5,5.7.8,21.8,3,34.5,3s7.5-.2,10.3-.7h.2Z"/>
      </g>
      <g id="Legs">
        <path class="cls-2" d="M154.9,469.1c-.5-3.1-.9-6.1-1.4-9-1.8-11.7-2.6-19.3-5.8-27.4-1.7-4.3-3.5-8.7-6.3-12.4-2.7-3.6-5.9-6.7-8.7-10.2-5.9-7.7-11-15.9-15.4-24.5-2.2-4.3-4.3-8.7-6.2-13.1-1-2.2-1.9-4.4-2.8-6.6-.6-1.6-1.4-3.6-3.4-4h-1.1c-1.2.2-2.2,1.1-3,2.1-1.6,1.9-3.1,3.8-4.4,5.9-8.8,13.4-11,28.5-9.1,44,1,8.6,2.9,17,4.5,25.5,2.4,12.4,2.2,26.1,7.2,37.9,4,9.5,11.5,16.2,20.6,20.7,4.9,2.5,10.2,4.5,15.5,6,3.8,1.1,8.1,2.1,12.5,2.1s3.3-.2,5-.5c4.6-1,6.8-3.7,6.9-8,0-2.7-.4-5.3-.9-7.9-1.2-6.6-2.8-13.8-3.8-20.7h.1Z"/>
        <path class="cls-2" d="M179,367.9c0-.6-1-.6-1.1,0-.6,3.9-3.5,26.8-8.2,46.6-3.8,16.1-14.3,22-14.9,22.4h0c.8,11.8,4.9,38.4,6.7,47,.7,3.4,1.1,5.8,1.4,7.5.1.8,1.3.9,1.5,0,2-6.9,6.9-24.9,12.8-54.2,6.3-31.3,3.2-59.8,1.8-69.4h0Z"/>
      </g>
    </g>
  </g>
</svg>