<?xml version="1.0" encoding="UTF-8"?>
<svg id="Male_Body_Model" data-name="Male Body Model" xmlns="http://www.w3.org/2000/svg" version="1.1" viewBox="0 0 238 509.1">
  <defs>
    <style>
      .cls-1 {
        fill: #646464;
      }

      .cls-1, .cls-2, .cls-3, .cls-4, .cls-5, .cls-6, .cls-7, .cls-8, .cls-9, .cls-10, .cls-11, .cls-12, .cls-13, .cls-14, .cls-15, .cls-16, .cls-17, .cls-18, .cls-19, .cls-20, .cls-21, .cls-22, .cls-23, .cls-24, .cls-25, .cls-26, .cls-27, .cls-28, .cls-29, .cls-30, .cls-31, .cls-32, .cls-33, .cls-34, .cls-35, .cls-36, .cls-37, .cls-38, .cls-39, .cls-40, .cls-41, .cls-42, .cls-43, .cls-44, .cls-45, .cls-46, .cls-47, .cls-48, .cls-49, .cls-50, .cls-51, .cls-52, .cls-53, .cls-54, .cls-55, .cls-56, .cls-57, .cls-58, .cls-59, .cls-60, .cls-61, .cls-62, .cls-63, .cls-64, .cls-65, .cls-66, .cls-67, .cls-68, .cls-69, .cls-70, .cls-71, .cls-72, .cls-73 {
        stroke-width: 0px;
      }

      .cls-2 {
        fill: #242424;
      }

      .cls-3 {
        fill: #222;
      }

      .cls-4 {
        fill: #292929;
      }

      .cls-5 {
        fill: #3c3c3c;
      }

      .cls-6 {
        fill: #343434;
      }

      .cls-7 {
        fill: #181818;
      }

      .cls-8 {
        fill: #545454;
      }

      .cls-9 {
        fill: #1e1e1e;
      }

      .cls-10 {
        fill: #505050;
      }

      .cls-11 {
        fill: #151515;
      }

      .cls-12 {
        fill: #252525;
      }

      .cls-13 {
        fill: #1d1d1d;
      }

      .cls-14 {
        fill: #1c1c1c;
      }

      .cls-15 {
        fill: #2f2f2f;
      }

      .cls-16 {
        fill: #565656;
      }

      .cls-17 {
        fill: #282828;
      }

      .cls-18 {
        fill: #434343;
      }

      .cls-19 {
        fill: #474747;
      }

      .cls-20 {
        fill: #424242;
      }

      .cls-21 {
        fill: #1a1a1a;
      }

      .cls-22 {
        fill: #131313;
      }

      .cls-23 {
        fill: #363636;
      }

      .cls-24 {
        fill: #0d0d0d;
      }

      .cls-25 {
        fill: #5a5a5a;
      }

      .cls-26 {
        fill: #0c0c0c;
      }

      .cls-27 {
        fill: #161616;
      }

      .cls-28 {
        fill: #515151;
      }

      .cls-29 {
        fill: #101010;
      }

      .cls-30 {
        fill: #3d3d3d;
      }

      .cls-31 {
        fill: #303030;
      }

      .cls-32 {
        fill: #050505;
      }

      .cls-33 {
        fill: #575757;
      }

      .cls-34 {
        fill: #212121;
      }

      .cls-35 {
        fill: #3f3f3f;
      }

      .cls-36 {
        fill: #0f0f0f;
      }

      .cls-37 {
        fill: #0e0e0e;
      }

      .cls-38 {
        fill: #4c4c4c;
      }

      .cls-39 {
        fill: #080808;
      }

      .cls-40 {
        fill: #2c2c2c;
      }

      .cls-41 {
        fill: #141414;
      }

      .cls-42 {
        fill: #404040;
      }

      .cls-43 {
        fill: #121212;
      }

      .cls-44 {
        fill: #555;
      }

      .cls-45 {
        fill: #171717;
      }

      .cls-46 {
        fill: #2e2e2e;
      }

      .cls-47 {
        fill: #4f4f4f;
      }

      .cls-48 {
        fill: #383838;
      }

      .cls-49 {
        fill: #262626;
      }

      .cls-50 {
        fill: #272727;
      }

      .cls-51 {
        fill: #111;
      }

      .cls-52 {
        fill: #2d2d2d;
      }

      .cls-53 {
        fill: #232323;
      }

      .cls-54 {
        fill: #3a3a3a;
      }

      .cls-55 {
        fill: #484848;
      }

      .cls-56 {
        fill: #333;
      }

      .cls-57 {
        fill: #464646;
      }

      .cls-58 {
        fill: #606060;
      }

      .cls-59 {
        fill: #4a4a4a;
      }

      .cls-60 {
        fill: #5f5f5f;
      }

      .cls-61 {
        fill: #353535;
      }

      .cls-62 {
        fill: #313131;
      }

      .cls-63 {
        fill: #202020;
      }

      .cls-64 {
        fill: #1f1f1f;
      }

      .cls-65 {
        fill: #3e3e3e;
      }

      .cls-66 {
        fill: #5e5e5e;
      }

      .cls-67 {
        fill: #1b1b1b;
      }

      .cls-68 {
        fill: #191919;
      }

      .cls-69 {
        fill: #090909;
      }

      .cls-70 {
        fill: #494949;
      }

      .cls-71 {
        fill: #393939;
      }

      .cls-72 {
        fill: #0a0a0a;
      }

      .cls-73 {
        fill: #414141;
      }
    </style>
  </defs>
  <g id="male-body">
    <path class="cls-23" d="M189.1,46c-.5-3.2-2.2-5.8-4-8.3-2.7-3.7-6.2-6.9-10-9.4-3.7-2.4-8.2-4.8-12.5-5.9-7-1.8-14.3-2.7-21.5-1.8-9.7,1.2-19,5.8-24.8,13.9-.5.8-1.1,1.6-1.5,2.4-.6,1-1.1,2-1.6,3.1-.2.3-1.5,3-1.3,3.2,1.8,1.7,3.1.2,3.9-1,1.6-2.2,3.5-4.3,5.4-6.3,1.5-1.5,2.7-3.3,4.2-4.8,3.3-3.2,7.5-5.2,11.9-6.4.3,0,.6-.2.9-.2,5.3-1.2,10.9-1.3,16.3-.4,4.9.8,9.8,2.4,14.2,4.6,4,2,8.9,4.6,10.8,8.9,1.9,4.5,4.8,9.3,2.3,13.9-2.8,5.3-2.6,10.5-2.9,16-.5,8.8,1.3,17.7-.7,26.5.3,9-1.5,17.3-6.6,24.8-.6,1.4-1.7,2.3-2.9,3.1-1,.7-2.1,1.4-1.4,2.9h2.2c5.6-2.1,8.2-6.6,9.7-11.9,2.4-8.1,3.3-16.5,4.4-24.8,1.8-13.2,1.9-24.3,5.6-37.2.2-.8,0-3.6-.3-4.9h.2Z"/>
    <path class="cls-56" d="M211.1,311.2c-.1.2-.3.3-.5.5-.4.2-.8.3-1.1.4-.8.3-1.6.4-2.5.5-1.7.2-3.4,0-5.1.1-1.1.5-1.9.2-2.3-1-.3-1.1.3-1.8,1.2-2.5,1.6-1.2,3.6-1.6,5.6-1.4s2,.4,2.9.9c.5.2.9.5,1.3.9.2.2.4-.3.6,0,.3.3.2.5.2.8s0,.5-.2.7h0Z"/>
    <path class="cls-65" d="M211.4,310.4s-1.9-.6-2.1-.6c-.8-.2-1.5-.4-2.3-.6-1.6-.3-3.3-.1-4.7.7-1.4.8-2.4,1.7-.3,2.8-.5.3-1,.5-1.5.8-2.8,0-2-3-3.6-4,.7-3,3.3-2.3,5.3-2.7,2.4-.5,4.9,0,7-1.5.7,0,1,.4,1.3,1s.7,1.2.9,1.8c.2.7,0,1.6,0,2.3h0Z"/>
    <path class="cls-14" d="M118.1,508.7h-4.5c-2.9-3-3.1-7-3.8-10.7-1.9-10.3-4.6-20.4-6.9-30.6-1-4.4-2.1-8.7-3.1-13.1-.5-2.2-1.2-4.3-3.1-6.5.5,5.8,2.1,10.9,2.6,16.1,1.4,13.5,4.9,26.7,7.5,40,.3,1.7,1.1,3.4-.7,4.8h-2.2c-1.6-1.1-2.4-2.6-2.8-4.5-.7-3.5-1-7.1-2.2-10.5.4-10.5-3.2-20.2-5.8-29.8-3,5.2-1.6,10.4.9,15.7.5,1,.4,2.2.5,3.3,1.1,6.8,2.7,13.6,3.9,20.4.3,2,.7,4-1.3,5.4h-10.6c.7-10.1-3.7-33-3.7-33.6,0-11.7-2.6-22.5-9.7-32.1-4.7-6.4-8.8-13.2-11.3-20.9-.5-1.7-1-3.3-1-5-.2-4.9-.6-9.7-.9-14.5-.6-9.8,2.9-18.2,7-26.7,3.1-6.6,7.4-12.5,9.3-19.7.4-1.4,1.5-2.5,2.8-3.3,1.3-.3,2.5-.4,3.8.2,1.9,3.1.5,6-.8,8.8-1.1,2.5-2.2,5-2.9,7.6-1.4,5.2-5,9.1-7.7,13.5-.5.8-1.4,1.5-1.7,2.4-5.3,15.2-5.6,29.9,4.1,44.7-.2-3.9-1.2-6.9-.9-10.1.2-1.9.5-3.8,2.8-4.3,2.4-.5,3.6,1.1,4.8,2.8.3.4.3.9.5,1.4.6,1.9,1.8,3,3.9,2.7,2.1-.4,2.8-2,2.8-3.9,0-3.4-.4-6.8-3.7-8.9-.8-.5-1.5-1.3-2.3-1.9q-4.9-4.1-2-9.9c1.1-2.2,1.5-4.4.7-6.8-1.1-3.7-1.1-7.3.7-10.9,1-1.9.7-4.2,1.5-6.2,1-2.3,2.2-4.3,5.2-3.6,1.4.3,2.6-.2,3.7-.8,3.4-1.9,7-2.4,10.5-1.1,4.5,1.7,9.5,2.6,13.1,6.4.9,1,1.5,2,1.8,3.5,1.5,7.4,1.2,15.1,2.3,22.5,1.8,11.5,1.9,23.2,3.6,34.8,2.3,15.3,2.5,30.7,2.3,46.1,0,7.5,1.2,15,1.4,22.5,0,1.5.3,3-1.1,4.2h-1.5c-1.1-.8-1.6-1.8-1.7-3.1-1-9-2.3-18-2.3-27.1s-.9-23.4-1.6-35c0-2.4-.8-4.6-1.7-6.9-.2-.6-.5-1.2-1.2-1.3-.9-.1-1.3.6-1.5,1.3-1.5,4.8-3.5,9.6-3,14.9,1.7,16.6,3.3,33.1,7.6,49.3.7,2.5,2.4,5.5-.6,7.9h.2Z"/>
    <path class="cls-68" d="M125.6,508.7c-1.4-19.6-.6-39.4-2.5-59-1.7-17.8-3.2-35.7-5.4-53.5-.7-5.4-1-10.9-1.7-16.3-.4-3-1.9-4.9-4.4-6-3.7-1.7-7.6-3.1-11.6-4-2.8-.6-5.3.6-8,1.1-5.5,1.1-7.9,3.7-9,9.6-.8,4.4-1.8,8.3.3,12.5.9,1.8-.2,3.3-1.2,4.8-3.2,5.4-2.1,8.8,3.9,10.8,2.2.8,2.9,1.7,3.1,3.9,0,2.7,1,5.4.7,8.2-.2,1.9,0,4.1-2.9,4.5-4.7.5-7.2-.5-7.8-3.6-.4-1.9-.3-4.5-2.6-4.1-2.6.4-1.6,3.3-1.5,5.1.2,3.3.7,6.7,2.3,9.8.5,1,1,2.3-.2,3-1.3.7-2-.6-2.7-1.4-6.2-7.7-9.2-16.5-10.2-26.4-.8-7.8,1.5-14.9,3.5-21.9,1.2-4.2,4.8-7.7,7.4-11.4,1.1-1.6,2-3.2,2.4-5,1-5.4,4.4-10,5.6-15.3,1.2-1.4,2.6-1.3,4-.5s1.4,2.3,1.2,3.7c0,1.5-.9,2.8-1.1,4.3-.4,3.4,1.3,5.5,4.4,4.5,9.2-2.9,16.4,1.3,23.7,6,2.4,1.6,4.2,3.8,4.1,6.6-.4,9.2,2,18.1,2.7,27.1.4,5.3.5,10.8,1.7,15.9,2.2,9.7,1.6,19.6,3.4,29.3,1.2,6.4.4,13.1.4,19.7,0,11.8-.8,23.6.5,35.4.1,1.1-.2,2-1,2.7h-1.5Z"/>
    <path class="cls-13" d="M20.8,347.2c-3.7-1.5-5-4.7-5.8-8.2-1.2-5.9,0-11.9.3-17.8.4-6.5.8-13.1,2.2-19.5,1.8-8.5,3.3-17.2,5.4-25.7,3-6.3,4.1-13.2,5.7-19.9.7-2.8,2-5.2,3.2-7.6,2.7-5.3,4.7-10.7,3.1-16.8.5-1.5,0-3.2.8-4.6,1.6-6,1.6-12.3,3.2-18.3,1-3.7,1.8-7.3,4.6-10.2,1.9-2,2.7-4.7,3.8-7.2,1.4-3.2,2.8-6.3,5-9.1,3-3.8,5.9-7.6,7.6-12.2,2.9-1.4,4.8-4.7,8.6-4.5.4,0,.7.2,1,.5.9,2.8-2.3,3.6-2.9,5.7-.2.3-.5.6-.9.8-2.8,1.1-4.4,3.5-5.9,6-4.3,7.4-9.6,14.2-12.1,22.6-2.7,8.9-5.9,17.6-6.3,27,0,1.6.2,3,1.1,4.2,1.3,1.9,1,3.5-.2,5.4-3.3,5.6-5.4,11.7-7.7,17.7-.7,1.9-.6,3.4,1.4,4.8,2.9,2,3.8,4.9,2.9,8.5-.9,3.7-1.7,7.3-4,10.4-3.3,4.5-3.8,9.9-4.6,15.2-.1.7,0,1.5-.3,2.2-4.4,8.8-4.5,17.8-1.6,27-.5,3.4,1.3,6.9-.3,10.4-.6,1.3-1.1,2.8-1.5,4.2-1.1,3.5,0,5.1,3.8,5.3,1.8,0,3.4-.6,5.2-.5,5.7.2,11.3,1.6,16.8,2.9,1.5.3,3,.9,2.2,3-3,1.7-6.3.8-9.4.5-5.6-.7-11.3-.9-16.9-1.2-2.6-.1-5.1-.7-7.6-1.1h.1Z"/>
    <path class="cls-11" d="M127.1,508.7c-1.6-16.5-.3-33.1-.8-49.7-.3-12.1-2.8-23.9-3.9-35.9-1.1-12.6-2.5-25.3-4.4-37.8-.2-1.3-.2-2.7,0-4.1.2-3.4-1-6.1-4-7.9-2.8-1.7-5.6-3.2-8.4-4.8-4.5-2.7-9.1-1.9-13.6-.3-1.9.7-3.5,1.2-5.2,0-1.9-1.4-2.5-3.4-2.1-5.7.3-1.5.8-2.9,1.3-4.3,1.2-3.1.3-4.6-3-4.4h-3.7c-1.2.7-2.3,1.3-3.8,1-.7-.1-1.3-.4-1.6-1.1,0-.5,0-.9.3-1.3.9-.8,2-1.1,3.1-1.1,7.3,0,14.6-.7,21.9-.6,2.4,1.5,4.8,3,6.5,5.4,1.8,2.5,4,4.7,6.8,6.4.9.5,1.8,1.1,2.8.5,1.1-.6.8-1.7.6-2.7-.3-2-.6-3.9-1-5.9-.3-1.3-.7-2.7.8-3.8.4-.2.8-.2,1.2-.1,1.7.7,2.3,2.3,2.8,3.8,1.7,5.9,3.4,11.7,3,18.1-.5,10.1-1.1,20.3,1.3,30.4.8,3,0,6.1,0,9.2s1,6.9,1.5,10.3c-.5-1.9-.7-3.8-1.3-5.7-1-3.7,1.1-8.7,3.8-10,2.6,1.5,1.7,4.2,1.6,6.3-.3,7,1.8,12.9,6.2,18.5,2.8,3.5,4.3,8,4.8,12.7.9,7.8,1.5,15.6,1.9,23.4.3,4.6,1,9.3,2.7,13.7,1,2.5,2,4.9,2.3,7.6.3,2.9,1.6,5.3,3.4,7.6,2.2,2.8,3.1,6.2,3.7,9.6.2,1.1,0,2-.8,2.7h-2.2c-3.1-4.5-7.1-8.9-8.9-13.6-2.4-6.4-4.1-13.3-5.2-20.3-1.2-7.6-1.1-15.4-3.7-22.8-1.2-3.3-.8-7.2-1.8-10.6-.4-1.1-.5-2.9-2-2.6s-1.1,2.1-1,3.2c.5,4.8,1,9.7,1.6,14.5.6,4.4.5,8.6,0,13-1.4,10-2.3,20-1.7,30.1.1,2.2,1.8,4.2,1,6.5-.4,1.1-1.2,1.8-2,2.6h-.8Z"/>
    <path class="cls-9" d="M118.1,508.7c-.7-7.3-2.9-14.4-4.4-21.5-2.2-10.6-2.6-21.5-4.1-32.1-1.2-8.4,1-15.7,4.4-23,.5-1.1.9-3,2.6-2.7,1.9.3.8,2.2,1.2,3.4,4.9,16.2,3.4,33,4.1,49.6.4,8.8,2.2,17.5,2.2,26.4h-6,0Z"/>
    <path class="cls-22" d="M127.8,505.8c-.4-8.9-.7-17.8,0-26.7.2-3,0-6,.8-8.9,2-8.4-.5-16.6-1.1-24.9-.2-2.7-.3-5.5-.3-8.2s.3-2.9,1.9-3.3c1.6-.4,2.4.9,3.1,2.1,2,3.7,2.2,7.9,3.2,11.8,1.9,7.9,3,15.8,3.9,23.8.7,6.2,2.5,12.2,3.6,18.3.6,3.3,1.4,6.2,4.5,8.2,3.8,2.5,3.8,6.7,4.5,10.6h-8.2c-1.8-.6-2.4-1.9-2.7-3.6-.7-4.8-2-9.4-2.8-14.2-.1-.7-.2-1.5-.4-2.2-.7-1.9-1.2-4.2-3.7-4-2.3.2-1.7,2.6-2,4.2-.7,4-1.3,8-.9,12.2.1,1.9.3,4.7-3.1,4.8h-.3Z"/>
    <path class="cls-21" d="M153.9,508.7c-.7-5-2.7-9.4-5.3-13.8-3.7-6.3-4.9-13.7-6.7-20.8-2.2-9.3-.9-18.8-2.2-28.1-.8-5.8-2.8-10.7-6.5-15.1-4.3-5.1-6.2-11-5.2-17.7.3-2.1.8-4.2-.3-6.2-1.9-3.7-1.3-7.8-1.7-11.8-.7-6.7,2.9-11.4,7.3-15.8,4.2-4.2,5.2-9.4,2.9-15-1.1-2.6-2.1-5.3-2.2-8.2,0-2.4.6-4.2,3.5-4.1,1,.5,1.6,1.6,1.3,2.4-1.4,3.8.9,6.8,2.2,10s2.5,6.4,3.1,9.8c1,5.5-.3,8.4-4.9,11.3-.5.3-1,.8-1.6.9-8.1,1.7-8,7.8-7.4,14.1.2,4.9,1.2,9.6,3.1,14.1,1.7,4.2,3.1,8.6,5.1,12.7.5.8.8,1.7,1.1,2.7.8,4.3,2.6,8.2,3.4,12.5,1.5,9.9,1.9,20,3,29.9.3,3.3,1.4,6.3,2.5,9.3,2.2,5.8,1.7,12.4,5.8,17.7,1.9,2.4,2,6.1,1,9.3h-1.5.2Z"/>
    <path class="cls-68" d="M106.2,508.7c-3.5-15.2-7-30.3-9-45.8-.7-5.3-1.3-10.6-3.3-15.7-.6-1.6-.7-3.5,1.1-4.2,1.8-.7,2.5,1.3,3.2,2.5,3.2,5,4.1,10.9,5.5,16.6,2.5,10.1,5.2,20.3,7.1,30.5,1,5.3,3,10.5,2.8,16.1h-7.5.1Z"/>
    <path class="cls-29" d="M127.8,505.8c1.3-2.5,1.4-5.1,1.1-8-.5-5.1,1.3-10,1.8-15.1.2-1.9,1.5-2.1,3.3-1.3,3.6,1.6,5,4.5,5.7,8.2,1.1,6.4,2.5,12.7,3.7,19h-15.7v-2.9h0Z"/>
    <path class="cls-28" d="M174.1,460.3c-1.3.6-1.4,2-2.2,3-1.4-.6-1.1-2-1.2-3.1v-1.2c.8-3.1,1.8-6.1,2-9.3.2-1.7-.1-3.5.7-5.1.8-2.2,1.1-4.6,1.1-6.9s.1-5,1.4-7.5c1-2,.6-4.3.6-6.6,1.7-15.1-.6-30.2-.2-45.3,0-2.7-.6-5.5-2.3-7.8-.6-2.5-.9-5,.5-7.4,2.1-1,3.4-.1,3.9,2.6,2.7,17,2.7,34,1.8,51.1-.5,9.7-.4,19.4-.5,29.1,0,2.2.2,4.5-.4,6.7-.2,0-.3-.1-.5-.2-1.9-1.7-1-3.8-.9-5.8,0-1.8.6-3.6.5-5.4,0,4.8-1.5,9.4-1.9,14.2-.6,1.7-1.3,3.4-2.5,4.7h0v.2Z"/>
    <path class="cls-52" d="M111.9,43.1c2.2-.3,3.3-2,4.4-3.6,1.9-2.7,3.4-5.7,6.3-7.6.8.7.9,1.6.2,2.3-2.8,3.1-4.1,7.3-7.1,10.3s-3.2,4.9-3.1,8c-.8,10.8.8,21.3,4.2,31.6,1.3,4,1.6,8.3,2.1,12.5.3,2.5-1.7,3.9-2.6,5.8-3.6,7.8-7.6,15.4-13.1,22.1-1.6,1.9-3.3,3.7-5.7,4.7-.6.1-1.2,0-1.7-.3-1.1-1.9,1.1-2.7,1.4-4.1,6.9-7.7,11.8-16.8,16.7-25.9,1.2-2.2,1.4-4.3.8-6.8-2.7-11.1-6.2-22-5.6-33.7.3-5.2.6-10.4,2.8-15.3h0Z"/>
    <path class="cls-52" d="M36.7,227.3c-.9,1.4-.7,3-.7,4.5-.8,2.9-.3,6-1.3,8.9-.5,1.7-1.2,3-3.3,2.5-.4-.6-.4-1.2,0-1.8,4-11.8,4.3-24.1,5.9-36.3.9-6.5,2.9-12.7,6.6-18.1,4.1-5.9,7.9-11.9,9.8-18.9.7-.5.4-1.9,1.7-1.9,1.4.7,2.8.4,4.2-.2,2.5-1.1,5.1-1.9,7.6-2.6,1-.3,2,0,2.6,1,.7,1.2,0,1.8-1,2.3-3.4,0-5.1,2.9-7.5,4.5-6.1,7.9-11.8,16-16.4,25-2.4,4.6-5.3,8.7-6.1,14-.8,5.7-1.4,11.5-2.1,17.2h0Z"/>
    <path class="cls-40" d="M100.9,493.1c1,5.2,2,10.4,3,15.6h-6.7c-.4-7.4-2.6-14.4-3.8-21.7-.2-1.5-.4-2.9-.7-4.4-1.1-3.9,0-8.1-1.3-12-.4-1.3,0-3.3,2.1-3.5,1.9-.2,2,1.5,2.3,2.8,1.7,7.7,3.1,15.6,5.2,23.2h0Z"/>
    <path class="cls-70" d="M159.9,508.7h-.7c-.9-.7-1.6-1.4-1.9-2.6-2.5-8.7-3.9-17.7-5.2-26.7-1.8-12-3.5-24-6.1-35.8-.3-1.2-.7-2.4-1.2-3.5-1-2.3-2.3-4.4-2.5-6.9-.5-2.4-1.6-4.7-2.3-7.1-.4-1.4-1-3,.2-4.2,1.4-1.4,2.7-.2,4,.4.7.7,1.5,1.4,2.1,2.2.6,1.9,1.7,3.5,1.8,5.6-.6,8.1,2.7,15.5,4,23.2.2,1.2,1.2,1.8,1.9,2.7.9,2,1,4.3,2.2,6.2,0,5.4,1.8,10.6,1.9,16-.6,9.2,2.3,18.2,2.3,27.3s.3,2.2-.4,3.2h-.1Z"/>
    <path class="cls-46" d="M31.4,241.4v1.6c1.4,1,1.3,2.4.7,3.7-4.1,9.4-5.4,19.5-8.2,29.3-3,7.9-3.4,16.3-5.2,24.4-2.8,12.7-.6,25.9-3.8,38.5-1.9-3.5-1.9-7.4-1.8-11.3.7-16.6,4.3-32.8,8.2-48.9,2.8-11.4,4.7-22.9,8.6-34,.4-1.2.9-2.3,1.4-3.4h.1Z"/>
    <path class="cls-50" d="M62.1,417.4c0,5.5,2.9,10.1,5.6,14.5,3,5,6,10.1,10.1,14.3,2.2,2.3,2.8,5.4,3.3,8.2,1.2,6.8,4.1,13.6,1.9,20.7,0,0-.6-2.8-1-5.5-1.5-9.6-5-17.6-10-25.4-4.5-7.2-8.8-14.5-11.2-22.7-.4-1.5-.7-3.2-1-4.7-1.1-5.7-1.7-11.4-1.8-17.2,0-1.1-.7-2.5.9-3.3,2,1.5,1.7,3.6,1.7,5.7,0,5.2.6,10.4,1.5,15.5h0Z"/>
    <path class="cls-1" d="M175.6,363.6c-1,2.2-.7,4.5-.8,6.7,1.4,2.3.4,4.6-.3,6.8-.6,2-.3,4.2-1.2,6.2-1.1,1.1-.7,2.6-1.1,3.9-.5,1.5-.6,3.3-.8,4.9-.3,1.7-.4,3.3-.2,5,.4,3.6.3,7.2.3,10.8s0,6.4-.7,9.5c-.5,2.1-1.6,6.2-4.2,6.5-1.4-.2-1.7-1.2-1.8-2.4,0-2,.6-3.9,1.3-5.7,2.4-5.7,1.8-11.7,1.3-17.6-.2-2.1-.4-4.2-.3-6.3,3.1-14.6,4.7-29.4,6.1-44.2.2-2.2.5-4.5,1.8-6.5,1-1,2-1.1,3.1,0-.9,5.7-1.1,11.4-.2,17.1-.9,1.7-.6,3.8-2.2,5.2h-.1Z"/>
    <path class="cls-64" d="M155.4,508.7c-1-5.1-3.9-9.8-4.9-14.6-2.1-9.4-6.2-18.3-6.4-28.2-.1-7.9-1.4-15.8-2.1-23.7,2.3,0,2.3,1.9,2.5,3.4.9,6.5,1.5,13.1,2.4,19.7.6,4.1,1.6,8.1,2.8,12.1,1.2,4.1,2.4,8.3,3,12.6.4,2.5.7,4.9,2.1,7.1,1.2,2.4,1.7,5,2.3,7.6.3,1.4.3,2.9-1,4h-.8,0Z"/>
    <path class="cls-48" d="M55.4,166.7c-.5.5-1.1,1-1.6,1.5.9-3.9,3.3-6.9,6-9.7,3.7-1.9,7-4.4,9.4-7.9,1.4-2.1,2.7-4.3,4.6-6,.6-.4,1.2-.9,2-.5,1.5,1.8,1.8,4.1,3,6.1,1.3,2.1-.4,3.9-2.2,5.2-2.1,1.5-4.6,2.4-6.1,4.6-4.3,1.9-8.8,3.6-12.8,6.3-.8.5-1.6.6-2.4.4h0Z"/>
    <path class="cls-40" d="M156.2,508.7c.1-3.9-1.1-7.5-2.2-11.1-2.5-4.6-2.4-9.8-3.4-14.7-1.4-6.6-3.2-13.2-4-19.9-.6-5.1-1.9-10.1-2.3-15.3-.2-3.2-1.3-6.1-2.6-8.9-.5-1-1.2-1.9-.9-3.1,0-.4.3-.8.6-1,3.3,2,4.2,5.5,5.2,8.9,1.9,10.7,3.9,21.4,5.6,32.2,1.1,7.1,2.2,14.2,3.8,21.2.7,3,1.9,5.9,2.1,9,0,1,.5,2-.3,2.8h-1.6Z"/>
    <path class="cls-6" d="M59.1,396.5c-1.6,5.2.5,10.3.4,15.5,0,1.6.2,3.2.3,4.8-3.5-12-3.3-24,1.1-35.8,2.8-7.5,6.6-14.4,10.3-21.5.9-1.8,2.5-3.5,2.2-5.8.2-.3.5-.3.8-.1.5,0,.9,0,1.4.1,1.8,2.5.4,4.8-.7,6.9-3.7,6.7-6.7,13.7-10.1,20.5-2.1,4.2-3.3,8.7-4.4,13.2-.2.8-.3,1.7-1.2,2.1h-.1Z"/>
    <path class="cls-10" d="M197.3,309.7c2.4.1,2,2.6,3.2,3.9-.5.7-1.3,1.4-.2,2.2.5.5,1.2.6,1.9.6,2.7,1.4,2.8,3.2.8,5.3-.7.8-1.9,1.3-1.5,2.7.1.7.5,1.3.5,1.9.4,3.5-3.2,3.4-4.7,5.2l-.2.8c-.2.9.1,1.3,1,1.3,1,2.4,1.9,4.9-1.6,6.1-.9-.7-2-1-3.1-.8-2,.4-3-.6-3.4-2.4s.6-3.2,1.3-4.7c1.2-1.6,2.2-3.3,2.2-5.3s.7-2.8,1.7-4c.8-.9,1.3-1.8.6-3-.5-2-1.9-3.8-1.1-6,.2-1.7.7-3.2,2.6-3.7h0Z"/>
    <path class="cls-54" d="M157.7,508.7c-1.9-10.9-4.6-21.7-6.4-32.6-1.6-9.7-2.9-19.5-5.2-29-.3-1.3-.2-2.7-.3-4.1-.5-1.3-.6-2.5,0-3.8,2.7,6.3,3.1,13,4.4,19.6,2.7,14.3,3.9,28.8,7.7,42.9.6,2.3.9,4.6,1.4,7h-1.6Z"/>
    <path class="cls-49" d="M74.1,353.7c-.3,0-.5,0-.8.1-6-.1-12,0-17.9-1.4-4.8-1.1-9.5-2.6-14.5-2.2-6.7-.9-13.6-.8-20.2-3,11.3.5,22.6.9,33.9,1.4,2.8-1.8,5.4-.4,8,.6,1.1.4,2.2.9,3.3,1.4,1.5.7,3,.8,4.7.8s2.7.3,3.5,1.7c0,.2,0,.4,0,.6h0Z"/>
    <path class="cls-70" d="M200.2,324.6c-1.1.1-2.3.3-1.1-1.4.7-1,1.7-1.8,2.5-2.6,1.2-1.1,1.5-2.2,0-3.4,1.4-2.2,4.1-1,5.9-2.2,2,1.3,3,3.3,2.5,5.6-.5,2.4-2.8,2.3-4.8,2.6-.7,0-1.6.2-1.2,1.3-1.3,2-2.6.7-4,.1h.2Z"/>
    <path class="cls-52" d="M161.5,501.4v.6c-2.4-.9-2.1-3.1-2.2-5.1.6-2.8,1-5.5,1.2-8.4,1.2-5.5,3.4-10.8,4.6-16.4.2-1.2.5-2.3.5-3.5.1-2.7,0-5.4,2.3-7.4.6-.5,1.2-.9,2-.5,1.4,1.2.8,2.7.6,4.1-.8,4.6-2.3,9-3,13.7-1.2,6.3-3.4,12.3-5,18.5-.4,1.4-.3,2.9-.9,4.3h-.1Z"/>
    <path class="cls-18" d="M74.1,144.9c-1.3,1.9-2.3,3.8-3,5.9-1.2,3.6-7.6,7.8-11.2,7.5,4.4-5.4,9.3-10.2,14.2-15.1.6.5.5,1.1,0,1.7h0Z"/>
    <path class="cls-57" d="M161.5,501.4c-.2-4.8,1.9-9.1,3.1-13.6.8-3,1.4-6,2.1-9,1.1-6.1,3-12.1,3.8-18.3,0-.8.5-1.4,1.5-1.2,0,1.3,0,2.7.1,4-2.9,12.9-6.6,25.5-10.5,38.1h-.1Z"/>
    <path class="cls-30" d="M74.1,144.9v-1.7c3.4-4.1,7.6-7.2,11.9-10.1,3.9-2.6,7.8-5.3,11.3-8.5,0,1.5-.7,2.6-1.5,3.8-.4,2.1-2.3,2.9-3.8,3.9-2.9,1.9-5.6,4.1-8.1,6.6-3.1,1.2-4.9,4.5-8.3,5.2-.5.2-1,.5-1.5.7h0Z"/>
    <path class="cls-20" d="M191.3,336.6c2.1.5,4.8-.3,5.2,3-1.6.7-3,.8-4.6.7-4.7-.3-9.3-.4-13.9.8-.8.2-1.6.4-2.4.6-.7.6-1.5.7-2.3.2-.6-1.8.7-2.3,2-2.9,4.3-2.1,8.9-2.9,13.6-3.3.9,0,1.6.4,2.4.8h0Z"/>
    <path class="cls-60" d="M159.9,496.8c0,1.9.4,3.7,1.5,5.2-.8,2.1,0,4.6-1.5,6.6-.6-8.9-2.9-17.4-4-26.2-.2-1.5-.7-2.9.2-4.3,1.6.4,2.1,1.7,2.4,3,1.2,5.2,2.1,10.3,1.4,15.7h0Z"/>
    <path class="cls-57" d="M197.3,331.4c-.8-3.2,3.4-2.9,3.7-5.3.6-.9,1.5-.8,2.4-.6,1.6.4,1.9,3.5,1.2,5.7-2.4,1.7-4.9.5-7.4.2h.1Z"/>
    <path class="cls-38" d="M174.1,460.3c.4-1.6-.1-3.3.8-4.8,1.5-.8,1.1-4.3,4.1-3.1.1.1.3.2.4.3-.7,3.3-1.8,6.3-5.3,7.6h0Z"/>
    <path class="cls-56" d="M40.9,350.2c5.2-1.8,9.9,0,14.5,2.2-4.9-.2-9.7-1-14.5-2.2Z"/>
    <path class="cls-41" d="M207.6,315c-1.6,1.8-3.8,2-5.9,2.2-.5-.5-1-1-1.4-1.5,2.4-1.1,4.8-1.5,7.4-.7h-.1Z"/>
    <path class="cls-66" d="M175.6,363.6c.4-1.9.2-4,2.2-5.2.5,2.5,1,4.9.8,7.5-.9-.9-.7-3.2-3-2.2h0Z"/>
    <path class="cls-10" d="M204.7,331.2c.2-1.7-3.4-3-.7-5.1.3-.7.9-.8,1.6-.9,1.1,2.2.6,4.1-.9,5.9h0Z"/>
    <path class="cls-14" d="M198.1,333.5c-.4,1-.6,2.3-2.1,1.8-.5-.2-.9-.9-1-1.4-.2-1.6,1-1.6,2.1-1.7.3.4.7.9,1,1.3h0Z"/>
    <path class="cls-22" d="M205.5,325.3c-.5.3-1,.6-1.6.9h-3c-.3-.5-.5-1-.8-1.5,1.3,0,2.7,0,4-.1.6,0,1.1.1,1.4.8h0Z"/>
    <path class="cls-8" d="M189.9,48.9c2.2,8.8,1.6,17.8.8,26.7-1.2,13.2-3.5,26.2-8.6,38.4-1.6,3.8-3.4,7.6-7.8,9.4-.8-1.1-.1-2.1.6-2.8,2.3-2.5,3.3-5.5,4.1-8.7,3.8-14.3,5.4-28.9,7-43.6.6-5.8,0-11.9,2.9-17.4.4-.7.6-1.5,1.2-2.1h-.2Z"/>
    <path class="cls-45" d="M172.6,120.2c-1.7,1.5-3.5,3-5.2,4.5h-5.8c-.5.4-.9.7-1.5.9-.5.2-1.1.2-1.6.4-2.3.5-3.6,2-4.3,4.2-2.4,6.8-6.9,12.6-8.8,19.6-.5,1.7-2.2,2.9-4,3.6-4,1.5-4.2,2.3-1.6,5.7.4.5.7,1,.9,1.6.6,1.3,1.3,2.7,0,4-3.1-.2-5.8-2.1-6.7-5.3-1.3-4.6-.6-10.1,3.8-13.6,4.4-3.6,7.1-8.9,9.8-13.9,1.6-3,2.2-6.7,5.1-9,2.7-1,5.5-.5,8.3-.4,1.5,0,2.8-.4,4.2-.8.7-.2,1.5-.2,2-.9,3.9-5.9,7.7-11.7,7.4-19.3-.2-4.7,0-9.4.7-14.1.2-1.2-.2-2.7,1.5-3.1,1.9.7,1.5,2.3,1.5,3.7.1,4.2-.2,8.4,0,12.6-.4,7-1.7,13.8-5.6,19.8h0v-.2Z"/>
    <path class="cls-57" d="M189.9,48.9c-1.1,8.4-2.3,16.7-3.3,25.1-.8,6.2-.9,12.5-2.1,18.5-1.7,8.3-4.1,16.4-6.3,24.6-.7,2.5-3.4,3.8-3.9,6.4-1.2.5-2.8,1.1-4.6,1.2,5.2-3.8,8.1-9,9.2-15.2,3-16.4,5.2-32.9,6.1-49.5.2-3.3,0-6.7,2.6-9.5,1.1-1.2,1.4-2.9,1.6-4.5.4,1.3.7,2.4.8,3h-.1Z"/>
    <path class="cls-25" d="M185.3,243.1c-1.1,2.6-2.5,4.7-4.5,6.6-1.3-.5-1.5-1.6-1.5-2.7,0-3.8-.4-7.6-.3-11.5.3-7.5-1.2-14.8-4-21.7-1.8-4.4-3.8-8.7-5.6-13.1-.5-2.8-1.2-5.5-2.6-8.1-.7-1.3-1.6-2.9-.2-4.5,2-.6,2.7,1,3.4,2.2,7.5,12.6,12.9,25.8,14.2,40.5.4,4.1,2.1,8,1.2,12.2h0Z"/>
    <path class="cls-28" d="M170.4,200.3c4.8,8.6,8.7,17.4,9.6,27.5.7,7.3,1.1,14.6.8,21.9-.7.7-1.8,1.7-2.9,2.4-2.7-1.5-2.3-4.3-2.1-6.6.3-5.1.1-10.3.4-15.4,1.6-7.4-4-12.2-6.4-18.1-.6-1.1-.4-2.3-.6-3.4-.5-3.2-1.2-6.4-2-9.6-.3-1.2-1-2.6,0-3.9,1.5-.8,1.7.6,2.3,1.4.9,1.2.2,2.6.9,3.8h0Z"/>
    <path class="cls-1" d="M185.3,243.1c-2.2-18.9-6.2-37.1-17.2-53.1-.4-.6-1-1.1-1.5-1.6-3.4-1.5-6.2-3.4-6.9-7.6-1-6.1-.9-12.3-1.8-18.5.1-1.7-1.1-3-1.6-4.5,0-.8.5-1.3,1.3-1.5,3.6,1.9,4.2,5.7,5.9,8.9-.3,1.2.2,2.4,0,3.6.6,5.7,1.2,11.5,5,16.3,2.2,2.1,2.6,5.5,4.9,7.5,1.4,1.5,1.7,3.8,3.3,5.2.8,1.1,1.1,2.7,2.6,3.4-1.2,4.8.8,9,2.4,13.3,2.6,7.2,3.8,14.7,4.5,22.2.2,2.2.4,4.5-.7,6.5h-.2Z"/>
    <path class="cls-73" d="M177.8,229.5c-1,7.5-.8,15.1,0,22.6-1.5,1.3-3.1,2.2-4.5,2.9-2.4-1.1-3.2,0-3,2.3.4,3.8,1.5,7.5,1.1,11.4-.1,1.2.3,2.4-1.2,3-.4,0-.8,0-1.1-.3-1.2-2.1-.9-4.5-1.2-6.8-.4-2.7-1.1-5-2.9-7-.5-3.4-1.8-6.9,1.1-9.8,1.1-.9,2.5-.8,3.7-.8,1.8,0,2.9-.7,3.2-2.5.9-5.7,1.1-11.3-1-16.9-2.4-6.3-2.6-13.1-4.9-19.4-.3-.8-.1-1.7.4-2.5,2.7-.9,1.8,1.9,2.8,2.8,0,1.1.1,2.1.7,3,1.6,4.3,2.8,8.8,5.2,12.8.9,1.5,1.7,3.2,1.5,5.1h0Z"/>
    <path class="cls-16" d="M170.4,271.5c.3-5.4-.7-10.6-1.8-15.9-.3-1.6-2.4-4.3.9-4.8,2.6-.4,3.9,1.6,3.9,4.3-1.9,1.5-1.2,3.4-1.2,5.4-.2,9.9,2.6,19.6,2,29.5-.1,2.1-.5,4.2-.8,6.3-.6,3.8.7,6.3,3.9,7.3-.2.4-.5.8-.9,1-1.5.7-3.1,1-4.8.5-1.4-.7-1.6-1.9-1.6-3.4,0-3.6,1.3-7,1.5-10.5.3-5.1-.8-9.9-1.8-14.8-.3-1.8-.7-3.4.8-4.9h0Z"/>
    <path class="cls-28" d="M162.2,168.2c0-1.2.4-2.3,1.4-3,1.7,2.1,4.5,3.1,6.6,4.7,4.3,3.3,7.4,7.9,8.6,13.2.7,3,1,6,1.1,9.1,0,1.6,0,3.1-.1,4.7,0,1.3,0,3-.5,4.2-.8,1.9-1.6,2.9-2.8.2-.4-.9-1-1.7-1.5-2.5.8-7.6,0-15-3.1-22-1.5-3.3-4.9-3.9-7.7-5.4-.8-1-.9-2.4-1.9-3.2h-.1Z"/>
    <path class="cls-42" d="M158.4,124.8h1.5c.8,2.1-.8,3.5-1.5,5.1-2.6,5.8-3.7,12-5.1,18.1-.4,1.9-.2,3.1,0,5.4v.5c.1,4,1.1,8-.5,12-1.5.6-1.8-.5-2.1-1.6-.3-4-.2-8.1-2.6-11.6-1-1.5-.1-3.2.3-4.6,1.7-6.3,3.4-12.7,6.1-18.6.6-1.4,1.3-2.7,2.5-3.7.5-.4,1-.6,1.5-.9h0Z"/>
    <path class="cls-44" d="M153.3,153.4c-1.9-8.7.9-16.6,4.6-24.2.7-1.5,1.4-2.9,2.1-4.4h1.7c-4.1,9.1-6.3,18.8-8.3,28.5h-.1Z"/>
    <path class="cls-15" d="M197.3,309.7c0,1.5.1,3.1-.7,4.5-2.5-2.4-2.9-5.3-2.6-8.5,1.5-1.7,3.2.4,4.8-.4h10.5c-.7,2.2-2.8,2.1-4.5,2.6-2.5.7-5.1.6-7.5,1.7h0Z"/>
    <path class="cls-10" d="M152.4,165.9c.4-4-.9-8.1.9-12.1,1.4.8,2.9,1.6,4.3,2.4-.2.5-.5.9-.7,1.4-.2.7-.8,1.1-1.3,1.4-1.3.9-.7,2.2-.7,3.4.1,2.3,1.2,4.5.7,6.9-.6,1.3-1.6,2.1-2.8,1-1.2-1.2-2-2.8-.5-4.4h.1Z"/>
    <path class="cls-23" d="M196.5,303.7h-.3c-.5-.1-1,0-1.5,0-.9,0-1.8-.1-2.6-.2-1.8-.2-3.6-.5-5.4-.6-3.2-.3-6.4-.2-9.4.8-.3,0-.6,0-.9.1-.9,2.5.5,3.4,2.6,3.7,2.4.4,4.9.3,7.4.2.9,0,1.8-.2,2.6-.4,1.7.7,3.2.3,5.3-1.3h2.3c.4,0,.8,0,1.1-.2.2,0,.4-.1.5-.2.2,0,.4-.1.5-.3-.2-.2-.5-.3-.7-.5s-.4-.3-.7-.5-.6-.4-.9-.5h0Z"/>
    <path class="cls-17" d="M111.4,52.1c-.3-3.4,1.5-5.9,3.5-8.4,3-3.7,5.3-7.8,7.7-11.9,5.2-6.7,12.7-8.9,20.6-9.6,12.2-1,23.3,2.3,33.2,9.6,6.9,5.1,9.2,15.6,5.6,23.4-1.3,2.7-1.9,5.7-1.8,8.7.3,7.6-.6,15.2.4,22.7.3,2.4-.1,5-1.2,7.3-1.5-1-1.4-2.6-1.4-4,0-10.6-1.5-21.2-1.2-31.9,0-2.1,0-4.3,1.6-5.9,2.4-2.6,2.9-5.5,1.4-8.7-.9-5.1-4.5-8.1-8.6-10.6-1-.6-2.2-1.1-3.2-1.8-4.7-3.6-10.3-4.9-15.8-5-4.4-.1-8.9-.1-13.4.9-7.8,1.9-13.3,6.4-17.2,12.9-2.5,4.2-6.1,7.6-8.5,11.8-.3.6-1,.7-1.6.4h-.1Z"/>
    <path class="cls-2" d="M180.8,42.4c2.3,2.9,1.9,5.8-.3,8.5-2.1,2.6-2.9,5.4-2.7,8.6l1.5,34.5c.2,8.5-.9,16.7-5.2,24.1-.4.7-1,1.4-1.6,2,2.9-6.2,4.6-12.6,4.5-19.5.9-8.4.4-16.7-1-25v-1.9c-.1-5.7-1-11.3-.8-17,0-3.3.7-6.4,3-8.7,1.7-1.7.6-4.4,2.7-5.7h0Z"/>
    <path class="cls-64" d="M94.7,372.7c3.8,1.1,8.1.2,12.3,1.2,4.3,1.1,6.7,3.6,7.6,7.7.5,2.4.8,4.9,1.1,7.4.2,1.3.3,2.7-1.2,3.2s-2.4-.6-2.8-1.8c-.9-3-1.8-1.8-3.4-.5-3,2.5-6.3,4.4-10.4,2.1-.4-.2-.9-.3-1.4-.5-9.5-3.1-10-3.9-8-13.6.6-2.7,3.4-5.2,6.3-5.2h0Z"/>
    <path class="cls-2" d="M59.1,396.5c.4-7.3,3.4-13.8,6.1-20.5,3.1-7.6,7.8-14.4,10.3-22.1h3.7c-3.4,11.7-10.9,21.5-15.5,32.7-3.1,7.5-2.5,15.3-2.1,23.1,0,2.6.5,5.2.5,7.8-1.9-3.5-1.5-7.5-2.1-11.3-.5-3.2-.6-6.4-.9-9.7h0Z"/>
    <path class="cls-49" d="M100.9,493.1c-3.1-6.2-3.5-13.1-5.2-19.8-.4-1.7-.2-5-1.8-4.7-2.4.4-.9,3.2-.9,5.1,0,3-.2,5.9-.4,8.9-3-7.8-2.5-15.8-1.4-23.8,0-.6.3-1.3,1-1.4s1.1.5,1.4,1.1.5.9.6,1.4c2,11.1,5.6,21.9,6.7,33.3h0Z"/>
    <path class="cls-7" d="M64.3,352.3c-2.7-2.7-6.6-2.2-9.7-3.7-7.4-2.3-14.9-4.9-22.8-3.1h-.4c-8,.5-9.6-1.5-6.3-8.4,2.1-4.4,2.9-8.6,1.9-13.3-2.3-8.6-1.6-17.1,1.1-25.5,1-3.1,1.7-6.2,2.4-9.4.8-3.7,2.3-7.2,4.4-10.2,2.7-3.9,2.9-8.3,4-12.6.3-1.1-.2-2.2-.8-3.2-3.8-6-3.3-12-.3-18.1,2.4-4.9,5.3-9,10.5-11.6,3.8-1.8,5.1-5.9,6.2-9.8.3-1.2-.2-2.4-1-3.5-.5-.6-1-1.2-1.5-1.6-3.7-2.6-.5-7.6-3.7-10.5-3.9-3.5-.5-6.7.4-10.1,2.2-8.9,8.9-15.3,12.9-23.2.9-1.7,2.5-2.7,3.6-4.3,3.9-3,8.5-4.6,13.1-5.9,2.3-.6,4.2-2.7,6.9-2.1,1.7,2.8-1.4,3.5-2.4,5.1-.3.2-.6.5-.9.8-1.8,1.5-3.6,2.5-6.2,2.6-4.4.2-8.9,5.5-9.1,10-.2,5-1.7,9.4-5.7,12.7-1.6,1.3-2.7,3-2.8,5.1,0,3.4-.3,6.7-.6,10-.3,2.6,1.2,4.4,3.6,5.5,3.3,1.5,3.5,2.4,1.9,5.7-1.3,2.7-4.3,4.6-3.8,8.2-.5.9-1,1.7-1.4,2.6-.7,1.4-2.3,2.3-2.7,3.9-.7,2.7-2.3,4.4-5.1,5.8-3.9,1.9-8.8,11.2-6.9,17.4,1.4,4.7.8,9.3-.5,14.2-1.8,6.7-5.7,12.4-7.9,18.8-1.5,4.2-2.1,8.7-2.4,13.2-.3,4.8,2.6,7.4,7.4,7.8,6.6.6,13,1.9,19,4.9,1.4.7,2.5,1.7,3.4,2.8,1.3,1.5,1.3,3.2.6,4.9-.8,1.8-2.4,1.9-4.1,1.8-1.1,0-2.2-.5-3.3-.7-2.4-.5-4.6-.2-6,1.9-1.7,2.4-3.8,2.9-6.5,2.3-2.9-.6-6.2,0-8.7-2.5-1.2-1.2-2.3-.4-2.6,1.2-.2,1.1-.2,2.2-.2,3.2-.2,5.6.2,7.3,6.2,6.5.4,0,.8.2,1.1.3,2.5,1.4,5.4,1.7,7.9,3.1,2.1,1.2,3.6.2,4.8-1.9,2.5-4.6,2.6-4.4,7.5-3.6,4.6.7,9,2,13.6,2.4,1.2.1,2.7.3,3,1.9s-.7,2.5-2,3.1-1.3.6-2,.9q-3.5,1.5-1.5,4.7c.8,1.2,1.2,2.5-.5,3.4-1.6-.1-3.2.4-4.8-.3h0l-.3.4Z"/>
    <path class="cls-67" d="M65.1,170.4c-3.9,6-7.7,12.1-11.7,18.1-3,4.4-3.7,9.7-5.8,14.5-.7,1.6.2,3,2.3,2.8,1.9-.1,2.5.9,2.1,2.6-.8,4.1-.9,7.9,3.3,10.5,1,.6,1.3,2.1,1.4,3.3.3,3.7-4.8,12-8.3,13.3-7.7,2.8-11.3,9-12.1,16.5-.3,3.2,1.8,6.5,2.5,9.9,1.1,5.3.3,10.4-2.1,14.9-7.7,14.4-12,29.4-9.9,45.9v1.1c-1.8-3.4-1.8-7.1-1.9-10.8-.3-9.1,3.7-17.2,5.1-25.9.5-3.2,2.1-6.2,3.9-8.8,2.5-3.5,3.1-7.6,3.8-11.6.4-2.4-.6-4.5-3.2-4.5-4.4,0-3.6-2.8-2.7-5,2.4-6,5-11.9,7.8-17.7,1.4-2.8,2.6-5.1-.2-7.6-.7-.7-.9-1.9-.5-2.8,1.6-4.4.6-9.3,1.9-13.6,1.7-5.8,4.5-11.3,6.3-17.1,3-9.6,9.7-17,14.5-25.4.7-1.2,1.9-1.9,3.1-2.5h.4Z"/>
    <path class="cls-2" d="M55.4,166.7c3.6-4.8,9.2-5.9,14.2-8.2,7.5-2.9,15.2-4.4,23.1-2,.4.2.7.5.9.9.2.4.2.8,0,1.2-.4.5-.9.8-1.5,1-3.8.4-7.4,1.4-10.1,4.2-3.6,3.7-8,3.2-12.5,2.9h-.8c.3-.9.5-2.1-.9-1.6-3,1.1-6.2,1.6-8.8,3.5-1.1.8-2,2.8-3.6,1.9-1.3-.8,0-2.5,0-3.8h.1Z"/>
    <path class="cls-49" d="M36.7,227.3c-.4-7.9,1.3-15.7,1.9-23.6,0-1.5.8-2.9,1.9-4,5.9-6,8.6-14.1,13.9-20.5,2.3-2.8,4-6,7-8.1-1.7,4.7-5.6,7.9-8,12-6.8,11.7-14.2,23.1-15,37.2,0,2.3-.5,4.7-1.6,6.9h-.1Z"/>
    <path class="cls-49" d="M24,276c.4-7,2.4-13.7,4-20.4,1-4.2,2.3-8.4,3.5-12.5,2.4-3.4,2.1-7.9,4.5-11.2,3.1,7.6-.2,13.8-4.3,20-2.6,3.9-2.5,8.7-4,13-1.3,3.7-.9,7.9-3.7,11.1h0Z"/>
    <path class="cls-67" d="M69.6,166.7c1-.2,2-.9,2.9-.6,4.6,1.3,7.3-1.6,10.4-4.1,2.6-2.1,5.6-3.7,9.2-3.5.6,1,0,1.9-.5,2.8-1.8,1.4-3.9,2-6.3,1.7-5.9,4.8-13.7,4.2-20.2,7.5,1-1.9,3.1-2.4,4.5-3.7h0Z"/>
    <path class="cls-24" d="M64.3,352.3h5.2c4.3-6.5,10.6-8.8,18.1-9.4,7.8-.7,15.6-.5,23.4,0,2.3.2,4.4.8,6.5,1.4,4.9,1.4,9.7,1.6,14.6.1h2.5c3.2.9,2.2,3.4,1.1,4.6-4.4,4.9-3.8,10.1-2.1,15.7.5,1.7.3,3.4-.7,5-2.6,4.4-6.2,4.5-8.9.2-1.8-2.9-2-6.2-2.9-9.4-.7-2.7-1.3-5.3-2.6-7.8-.6-1.1-1-2.4-2.7-2h0c-5.1,2.3-10.2,3.3-15.7,1.5-8.7.6-17.4.9-26.2.8-3.2-.4-6.5.5-9.7-.8h0Z"/>
    <path class="cls-51" d="M115.9,350.8c2.2-1.2,2.8.6,3.6,2,2.4,3.9,2.3,8.6,4.3,12.6.5.9.6,1.9,1.2,2.7,1,1.4,1.5,3.9,3.9,3.1,2.1-.7,3.2-2.7,3.2-5s-.3-2.5-.6-3.7c-1.2-4.7-1.2-9,2.4-12.9.9-1,2.5-2.5.6-4.1.3-2,1.6-1.7,3-1.3,1.9,2.5,0,4.7-1,6.5-2.7,4.3-2,8.4-.4,12.8.8,2,1.5,4.1,1.5,6.4s-.7,4.4-2.2,6.2c-2.5,3-4.5,6.4-7,9.4-3.3,4-1.5,8.9-1.9,13.4-.2,2.6,1.1,5.3.3,7.9-.4,1.3-.4,3-2.3,2.9-2,0-2.1-1.8-2.3-3.3,0-1.1.3-2.2-.4-3.3-1.1-8.7-1.7-17.4-1.3-26.3.3-6.4,1.5-13-1.1-19.4-1-2.4-1.4-5-3.6-6.8h0v.2Z"/>
    <path class="cls-22" d="M121.8,403.2c.3.9.6,1.9.8,2.8.3,1.2.3,2.8,2.1,2.5,1.5-.3,1.7-1.9,1.5-3.1-.8-4.2-.4-8.5-.8-12.7-.3-3.6.5-6.9,2.8-9.8,2.3-2.8,3.8-6.1,6.3-8.8,1.6-1.8,2.3-4.5,1.3-6.7-3.6-8-1.4-15.3,1.8-22.7-.3-.3-.3-.7-.2-1.1,1-1.3,2.2-1.6,3.8-1.2,1.1,2.1,4.1,3,4.1,6s-.3.7-.5,1c-.8.6-1.6.5-2.3-.1-2.7-2.3-3.6-.9-3.8,1.9-.2.5-.5.9-1,1.1-2.3,1.4-2.5,3.6-1.8,5.9.8,2.6,1.5,5.3,2.6,7.8,2.6,5.8.3,10.3-3.3,14.7-.7.9-1.5,1.8-2.4,2.4-5.4,3.6-5.4,9.2-5.2,14.6,0,3.1.4,6.2.4,9.3-4.1,6-2,12.5-1.2,18.9-3.1-7.3-4.4-14.9-4.8-22.7h-.2Z"/>
    <path class="cls-67" d="M100.2,352.3c5.2-.8,10.3-2.4,15.7-1.5.8,3.8,1.7,7.5,2.4,11.3.6,3.2-.9,4.5-3.9,3.5-2.5-.9-4.7-2.3-6.5-4.3-2.7-2.9-5.1-6-7.7-9Z"/>
    <path class="cls-17" d="M137.5,427.9c-3.8-8.6-7.9-17.2-8.2-27-.8-1.8-.5-3.7-.3-5.5.8-6,3.5-8,9.5-7.5,3.4.3,5.9-1.1,7.3-4.1,1.6-3.5,3.7-6.4,7.7-7.5,2.6-.8,4.6-2.3,4.3-5.6-.1-1.1.5-2.2.6-3.3.3-1.2.4-2.5.6-3.8,1.1-6,1.2-12.9,2.5-18.9.4-.3.8-.3,1.3-.1,1,.9,1.1,2.8,1.1,4v17c-.6,2.9-1.4,5.8-2,8.7-1,5-.6,10.1,2.8,14.4,2.5,3.2,2.1,7,3,10.6,0,5.1.4,10.3-.4,15.4-1.1,1.6-.4,4.2-2.7,5.3-2.2-1.1-1.6-3-1-4.5,1.4-3.4,1.3-6.8.4-10.2-.6-2.6.2-5.3-.8-7.9-.9-2.2-2.4-3-4.3-2-5.4,3-10.8,6.2-12.8,12.6-.9,3-2.5,5.9-2.1,9.3.2,1.7-.5,3-2.6,2.6-.4-.2-.7-.5-1-.8-1.1-4-.3-8,0-11.9.4-1.3.8-2.5,1.3-3.8,1.9-4.8-1.7-9.3-6.9-9-1.6.1-2.3.8-1.9,2.3.3,1.1.4,2.2.2,3.3-1.4,5.7.7,10.8,2.5,15.9.8,2.2,1.6,4.4,2.2,6.7.2,1.8,1.6,3.7-.4,5.3h0Z"/>
    <path class="cls-63" d="M160.7,368c-.6,5.1-2.3,9.3-8,10.8-2.6.7-3.8,3-4.9,5.4-.7,1.6-1.3,3.2-2.1,4.8-.8,1.6-2.1,2.3-4,2-10.7-1.9-12.3-.6-12.4,10.1-1.9-6.1,0-12,4.6-14.6,9.6-5.4,11.1-9.9,6.7-20.2-.5-1.3-1-2.5-1.7-3.7-1.6-3.2-2.3-6.5-1.5-10.1v-1.5c2.6-3.4,2.6-3.3,6.1-1.2,1.2.8,2.5,1.5,3.5,2.6,1.7,2.3,3.5,4.4,4.4,7.1-.6,2.2.6,3.9,1.3,5.7,1.8,4.2,2.7,4.5,6.8,2.7.3-.1.7,0,1,.2h.2Z"/>
    <path class="cls-3" d="M141.2,434.7c3.6,9.6,4.5,19.8,6.6,29.6,2.4,11,4.1,22.1,6.1,33.2-1.2-.8-2-2-2-3.4,0-3.8-1.3-7.3-2.2-10.9-3.1-12.2-5.4-24.7-6.4-37.3,0-1.4-.6-2.7-1.4-3.8-1.6-3.9-2.7-7.9-3.7-12,3.9-.5,2.6,2.6,3,4.5h0Z"/>
    <path class="cls-40" d="M141.2,434.7c-1.5-1.2-1-3.6-3-4.5-.2-.7-.5-1.5-.8-2.2-.2-1.7-.5-3.5-.7-5.2.2,0,.5-.2.7,0,2,1.3,5.1,9,4.5,11.3,0,.4-.4.6-.8.8h0v-.2Z"/>
    <path class="cls-6" d="M171.9,459.4c-1.3,5.1-2.6,10.2-3.9,15.3-.4,1.4-.9,2.8-1.4,4.2.1-6.1,2.6-11.9,3-18,0-.2-.1-.4-.2-.6-.5-3.1,1-5.9,1.5-8.8.7-3.8,1.6-7.6,1.3-11.5-.6-9.8,2.5-19.4,1.5-29.2-1.3-4.7-.3-9.5-.9-14.2-1-3.2-.4-6.6-1.8-9.8,0-1.3.2-2.5.8-3.7,1.6-.4,2.8,0,2.9,1.8.3,3.5,2.1,6.7,2,10.3-.2,7.6.6,15.2.6,22.8s-1.1,8.5-.4,12.9c-.5,5-1.2,10.1-2.2,15-1,1.1-.4,2.5-.7,3.8-.7,3.2-1.5,6.5-2.2,9.7h0Z"/>
    <path class="cls-57" d="M173.4,377c.2-2.3.5-4.6,1.5-6.8,1.2.3,1.9,1.1,2.2,2.3,0,.5.3,1,.3,1.5.5,16.3,1.4,32.5,1.1,48.8,0,.5-.3.9-.5,1.4-.2-.1-.4-.3-.5-.4-.2-8.1-1.8-16.1-1.2-24.2.4-5.5-.6-10.8-1.5-16.1-.3-2.1,0-4.5-1.2-6.5h-.2Z"/>
    <path class="cls-51" d="M179,452.4c-1.7.6-2.3,2.7-4.1,3.1,1.3-6.1,2.5-12.2,3.8-18.3h.3v15.2h0Z"/>
    <path class="cls-57" d="M174.8,445.9l1.5-15c.7-1.4-.3-2.9,0-4.3.2-1-.3-2.4,1.5-2.4h0c0,7.4-.9,14.6-3,21.7h0Z"/>
    <path class="cls-57" d="M171.9,459.4c0-3.4.8-6.6,2.2-9.7-.1,3.4-.8,6.6-2.2,9.7Z"/>
    <path class="cls-34" d="M111.4,52.1c4.9-6.2,8.7-13.2,14.1-19.1,5.8-6.3,13.2-7.8,21.1-8.3,6.4-.4,12.5,1.2,18.5,2.9,1.6.5,3.1,1,3.7,2.7-.9,1.4-2.1.8-3.3.5-7.2-2.3-14.4-3.4-22-2.3-8.9,1.3-15.8,5.7-20.3,13.5-1.4,2.5-2.9,4.9-5,6.9-4.5,4.3-5.2,9.4-4.5,15.4.9,8.8,4.2,16.9,5.7,25.4,1,5.1,1.5,9.7-1.4,14.6-3.1,5.3-5.7,10.9-9.1,16-1,1.5-1.8,3.3-3.2,4.1-5.7,3.2-7.9,9.4-12,13.8-2.3,2.5-2,4.8-.2,7.2,2,2.6,2.5,5.2.9,8.1-1.5.9-2.5-.1-3.6-.8-2.3-1.6-4.1-3.8-6.3-5.5-1.8-1.4-1.6-7.6.2-9.3,3.8-3.6,8.1-6.6,12.4-9.5,8.4-6.6,12.2-16.4,17.5-25.2,3.6-6.1,2.6-12.1,1-18.2-2-7.5-4.7-14.9-4.4-22.9,0-3.3,0-6.7.2-10h0Z"/>
    <path class="cls-4" d="M97.2,128.5c-2.3,4.3-7.3,5.7-10.2,9.4-2.7,3.4-2.6,7.4,1.2,9.6,2.5,1.5,2.7,5.2,6,5.7.8-.5,1.6-.4,2.4-.2.5.1.9.3,1.4.4,1.2.3,2.6.4,2.7,2s-.9,2.4-2.4,2.7c-1.6.2-3.3,1.5-4.8-.3h0c-.4-.7-.8-1.4-1.6-1.5-5.2-.3-8.7-3.9-12.7-6.7-2.5-1.8-2.7-3.8-1.3-6.3,1.3-2.3,2.9-4.3,5.1-5.8,4.2-3,8.5-6,12.7-9h1.5Z"/>
    <path class="cls-27" d="M159.9,496.8c-1.3-6.2-2.5-12.5-3.8-18.7-.7-5.2-1.5-10.5-2.2-15.7.4-7.5,4.9-13.5,7.7-20.2,1.2-2.8,2.4-5.7,4.1-8.3.8-1.3,1.7-2.6,3.6-1.5.9,1.1.6,2.3.6,3.5-.2,1.7-.5,3.3-1.1,4.9-3.4,3.4-4.6,7.7-4.9,12.3,0,1-.3,2.1.1,3,3.2,5.7,1.4,11.7.9,17.5-.5,5.3-1.4,10.6-2.9,15.7-.8,2.5-1,5.1-2.2,7.5h0Z"/>
    <path class="cls-37" d="M146.4,430.2c-.6-1.6-1.2-3.1-2-4.6.3-2,.2-3.9,0-5.8,1.7-3.7,2.9-7.6,4.7-11.3,1.1-2.3,2.8-4.9,5.8-4.4,3.1.5,5.1,3,6.2,5.9,1.4,3.5,0,6.8-1.3,10.1-2.3,5.8-6.6,10.6-8.2,16.8-.2.7-.9,1.2-1.8,1.2-2.7-2-3.6-4.7-3.3-7.9h0Z"/>
    <path class="cls-51" d="M168.9,432.4c-4.8,7.3-7.6,15.6-11.5,23.4s-2.3,4.4-3.4,6.6c-.5-2-1-4-1.5-6.1-.8-.6-1.1-1.3-1-2.3.7-7.8,6.4-13,9.9-19.4.4-.7.9-1.6.9-2.4s-.3-1.7-.2-2.7c0-.5.3-1,.6-1.5.5-.9.9-1.9,1.6-2.7.7-.9,1.6-1.5,2.3-2.4.7-1,1.2-2.3,1.7-3.4,1-2.4,1.6-4.9,2-7.4.6-4.3.6-8.8-.1-13-.2-.9-.4-2.1.5-2.8,2.4,1.1,2.3,3.6,2.3,5.3-.2,5.6,1,11.2.8,16.8v2.7c.3,3.6-2.1,6.5-2.6,10-.2.9-1,1.7-2.2,1.4h-.1Z"/>
    <path class="cls-9" d="M145.7,420.4c0,1.9-.4,3.6-1.4,5.2,0,0-.6-1.5-.8-2.2-.7-1.5-1.2-2.6-1.4-3.7-.4-5.7,3.2-10.5,3.7-16,.2-2,.7-3.7,3.2-3.8,1.2,0,2-.9,2.8-1.7.8-.8,1.6-1.6,2.4-2.3,2.4-1.9,5.1-3.8,8.1-2.7,3,1.2,2.3,4.6,2.8,7.2,1.1,6.4.9,12.8-.7,19.2.2.7.4,1.4,0,2.1-2.3,4.8-5.6,8.9-8.8,13-.6.8-1.5,1.3-2.6.8-1.7-2.6.7-4.2,1.6-6.1,2.9-5.6,6.5-10.8,7.6-17.2.7-4.1-1-7.6-2.3-11.2-.7-2.1-2.5-.6-3.7.1-6.6,3.9-9.6,9.9-10.1,17.4,0,.6.1,1.3-.4,1.8h0Z"/>
    <path class="cls-48" d="M141.3,434.7c-.3-4.4-2.5-8.2-4.5-12-2.8-7.5-5.9-14.9-5.2-23.2,0-2.7.8-4.9,3.9-5,3.6,0,6.8,2.5,7.2,5.9.2,2.2.4,4.5-.7,6.6-1.6,4-.3,8,0,12-3.4.2-3.5-2.5-3.9-4.7s0-4.5-.3-6.7c-.1-.7-.4-1.6-1.3-1.5-1,.1-.9,1-.9,1.8s.2,1.2.4,1.8c2.5,7.8,3.9,16,7.5,23.5,0,2.2,1.3,4,2.2,6v3.8c-1.3-2.8-2.5-5.7-4.5-8.2h.1Z"/>
    <path class="cls-73" d="M143.5,433.2c-3.2-4-4-9-6.2-13.5-1.8-3.7-2.9-7.7-3.8-11.7-.4-1.9-.4-3.8,1-5.2.8-.8,1.9-.3,2.8.1,1.9.9,2.7,2.6,2.6,4.6-.2,4-.7,8,2.1,11.5v.8c.4,1.4.5,2.3,1.4,3.7-.8-.3-1.4-1.3-2.3-.7-.9.6-.4,1.5-.2,2.4.5,2.8,2.6,5.1,2.5,8h0Z"/>
    <path class="cls-60" d="M151.8,454.1c.2.7.4,1.5.7,2.2,0,.3,0,.9-.1,1.2-.5.8-.6,0-.8-.5-.5-1.8-1-3.7-1.3-5.5-1.1-6.3-2.5-12.6-4.5-18.7-.3-1-.6-1.9.6-2.6.7,2.6,1.6,5.1,3.1,7.4,1,.6,1.6,1.5,2.1,2.4,2.1,4.6,1.9,9.3.3,14h-.1Z"/>
    <path class="cls-28" d="M173.3,341.8h2.2c-1.1,7.3-1.1,14.8-2.1,22.1-1.4,9.4-3.2,18.8-5.3,28.1-1-.6-1.1-1.6-1.1-2.6.3-9.1-.8-18.2-1.1-27.3,0-1.5,0-3.1.2-4.6.7-5.6-1.7-10.1-4.7-14.5-.5-1.2-1.4-2.6-.2-3.8,1.1-1.1,2.4-.8,3.8-.2,1.1.4,2.4.5,3.5,1.2,1,1.3,1.2,4.5,3.8,1.4.4,0,.7,0,1,.2h0Z"/>
    <path class="cls-55" d="M162.2,342.6c2.8,3.4,4.9,7.1,5.1,11.6.3,6.2.3,12.3,1.3,18.5,1,6.3-.9,12.8-.4,19.3.6,5.9.9,11.9.7,17.8,0,2.4-.3,4.7-1.5,6.8-.5-.5-.4-1.2-.4-1.8.7-7.5.2-14.9-.7-22.3-.2-.4-.3-.8-.4-1.2-.4-8.2-3.3-16-2.5-24.3.5-5.9.9-11.8.3-17.8-.1-1.2-.1-2.5-.7-3.6-.3-.4-.4-.6-.7-.8-1-1-1-1.2,0-2.2h-.1Z"/>
    <path class="cls-5" d="M177.8,424.2c-1.3,2.1-.1,4.7-1.5,6.7-.2-1.8-.9-3.7-.7-5.5,1-8.8-.6-17.6,0-26.4.3-4.5-1-8.6-1.8-12.9-.2-1.3-.9-2.3-2-3.1l1.5-6c1.7.2,2.1,1.4,2.3,2.9.8,6.7,1.1,13.3.8,20.1,0,2.2-.3,4.5,0,6.7,1,5.8,1.5,11.6,1.2,17.5h.2Z"/>
    <path class="cls-46" d="M170.4,396.5v2.3c-1.2-4.1-.9-8.1.8-12.1,3.6,2.1,2.8,5.7,3,9-.9.7-1.5-.6-2.3-.4-.5.4-.9.8-1.4,1.2h-.1Z"/>
    <path class="cls-55" d="M167,422.3c-.9,2.4-2.6,5.7-4.1,7.9l-1.1,1c-2.5-1.5-.4-3.1-.2-4.7.1-.3.3-.7.5-1,1.7-1.1,1.5-2,3.8-4.3.8-.8,1.4-.3,1.1,1.1h0Z"/>
    <path class="cls-30" d="M165.9,421.2c-1.6,1.4-1.1,4-3,5.2-1.3-2,.2-3.5.8-5.2.2-.5.5-1,.7-1.5,1.6-1.1,1.5-3,2.3-4.5.2-.5.5-.5.7,0v1.5l-1.5,4.5h0Z"/>
    <path class="cls-45" d="M170.5,401c1,3.7,1,7.4,0,11.1v-11.1Z"/>
    <path class="cls-31" d="M83,137.5c-4,5.4-3.4,10.1,1.9,14.2,2.5,1.9,5.5,2.3,8.2,3.3,1.8.7,2.2,1.5.3,2.7-8-1.4-15.9.6-23.9.8,2.1-1.6,4.1-3.1,6.2-4.7,1.7-1.3,2.7-2.8.3-4.3-2.5-1.6-.7-3.5-.5-5.3,2.5-2.2,4-5.6,7.5-6.7h0Z"/>
    <path class="cls-7" d="M139,327.6c-2.6,1.2-5.3.4-7.6-.6-4.6-1.9-8.8-5.2-15.3-3.5,1.9-2.4,4.5-1.6,4.7-3.3.2-1.2,2.2-2.5.2-3.8-.2-.5-.2-.9.2-1.2,3-2,6.4-2,9.9-1.8,6.7.6,13.3-.8,19.9-1.3.8-.3,1.6-.7,2.1-1.5,1.1-.8,1.8-1.7,1.8-3.4s-.2-4.2.7-6.2c.1-.4.2-.7.4-1.1,1.2-2.6,1.5-4.7-1.5-6.6-2.3-1.5-2.1-5.4.5-7.5,4.4-3.5,3.2-7.6,2.2-11.9-.8-3.6-3.8-6.3-4-10.1.5-.9,1.2-1.6,2.1-2.1,2-.7,2.9.2,3.6,2.1,1.3,3.4,2,6.9,2.1,10.5.2,8-.8,15.9,0,23.8.3,3.4-1.6,6.2-2,9.4,0,.6-.3,1.2.3,1.6,1.7.4,2.1-1.6,3.3-2,2.4-.3,3.4-2.8,5.6-3.3,1.1-.6,2.4.6,3.5-.2h4.4c1.4,2.6,3.9,2.1,6.1,2.2h11.8c2.5,2.2,2.3,5.3,2.3,8.2-.6,1.9,1.1,3.4.7,5.2-3.2.9-6.4,0-9.6.2-8.4.3-15.9,3.7-23.7,6.1-4.3,1.3-8.6,2.6-12.9.1-1.5-.8-2.8-.7-4.1,1-2.1,2.6-5.1,1.7-7.9.8,1-1.4.8-2.4-1.1-3.1.3,1.2,2,1.8,1.1,3.1h0l.2.2Z"/>
    <path class="cls-21" d="M132.3,345.6c-4.6-1-9.3-2.1-14-3.1.5-2,1.8-1.9,2.8-2,5-.3,9.8-1.5,14.5-3.3,2-.8,4.3-1,6.3-.4,7.7,2.1,14.5-.9,20.6-4.5,5-3,9.5-2.8,14.5-2.1,4.8.7,9.6,1.9,13.3-3.6.5,2.4.5,4.4,2.5,5.4-.5,1.5-.9,3-1.4,4.6-.5.3-1,.5-1.5.8-4.5,1.9-9.5.4-14.1,2-.9.3-2.1,0-3.1-.8-5.8-4.6-7-4.6-12.8-.4-2.1.9-4.1,1.8-6.1,2.8-4.8,1.1-9.8.2-14.6,1.5-.9.3-2.4-.1-1.6,1.7v.7c-1.1,0-2.1.1-3,.7h-2.3Z"/>
    <path class="cls-14" d="M162.2,489.3c1.1-8.1,2.6-16.2,2.3-24.5,0-2.3-.2-4.4-1.7-6.3-2.1-2.6-.9-5.6-.2-8.2,1-3.7,2.5-7.3,4.9-10.4,2.1,1,1.8,2.9,1.6,4.5-.5,3.7-.1,7.3.6,10.8.2.9.4,1.7,0,2.5-1.9,3.5-1.7,7.6-3,11.3-1.4,6.8-1.8,13.7-4.5,20.2h0Z"/>
    <path class="cls-3" d="M166.6,469.1c.6-3.5.6-7.2,1.6-10.7.2-.8.5-1.9.2-2.5-2.5-5.2-1.5-10.6-1.1-16,.5-1.2,1-2.5,1.5-3.7.5-2.8,2.3-5.3,2.5-8.2,0-.7.7-1.2,1.6-.6.7,4-.6,8-.4,12,.3,7.3-1.2,14.4-2.9,21.5h0c-2.2,2.3-1,5.9-3,8.2h0Z"/>
    <path class="cls-53" d="M159.2,337.3c5-4.7,9.3-4.8,14.4-.3,1.3,1.1,2.6,1.7,4.4,1.5,3.9-.5,7.9-.7,11.8-1.1-2,1.4-4.4,1.5-6.8,1.5-3.6-.1-6.8,1-9.7,3h-.7c-1.5,1.5-3,1.5-4.5,0-1.1-.5-2.2-1-3.3-1.5-2.6-1.2-3.4-.3-2.7,2.3v17.8c0,1.5.1,3-1.5,3.9-1-.5-1.5-1.4-1.3-2.5,1.5-6.5.7-12.9-.6-19.3,0-.8-.5-1.6-.8-2.3-.1-.4-.1-.7,0-1.1,1.2-1.8,3.5-.7,4.7-1.8-1-.2-2.2,1.6-3.5,0h.1Z"/>
    <path class="cls-11" d="M176.3,84.3c-1,9.4.4,19-2.6,28.1-1.5,4.5-4.2,8.5-7.9,11.6-3.4-4.3-3.3-7.4.8-10.9,2.5-2.2,3.9-4.7,4.2-8,1.2-13.8,1.7-27.6-2.5-41.1-.5-1.6-.5-3.8-2.7-4.1-2-.3-3.2,1.4-4.1,2.8-2.5,4.2-4.1,8.7-4.4,13.7-.6,9.7-1.9,19.3-1.6,29,0,3.4-1.6,4.8-5,4.4-4.3-.5-8.6-.5-12.8-2.3-5-2.2-6.5-1-7.5,4.6-4.4.5-9.8-5.6-8.3-9.8.8-2.2,1.5-4.5,2.6-6.6,2.1-4,4.3-4.5,8.1-2.2.6.4,1.2.8,1.9,1.2,3.5,2.3,5.7,1.7,7.3-2.2,2.3-5.5,4.1-11.2,3.8-17.4-.1-2.3.7-4.4,1.3-6.6,1.8-7.2.4-10.6-6.2-14-4.4-2.2-8.2-4.8-8.8-10.2,0-.9-.5-1.8,0-2.6,2.7-4.3,5.5-8.7,11.3-9.4,8.7-1.1,17.3-1.2,25.5,2.7,2.4,1.1,4.4,2.7,6.3,4.6,1.5,1.5,2.1,3.6,1,5.1-3.3,5-2.6,10.4-1.5,15.7,1.2,6.2,1.6,12.5,2.4,18.7.3,1.7.7,3.4-.6,5h0v.2Z"/>
    <path class="cls-37" d="M130,112c-.2-2.1-3.5-3.7-1.3-6s5.2-2,7.7-.8c4.3,1.9,8.9,2.2,13.4,2.8,2.7.4,4-.6,4.1-3.4,0-2.1.2-4.3,0-6.4-.8-8.6,1.5-17.1,1.9-25.6.3-5.7,3.2-11.2,7.8-15.3,2.2-1.9,4.4-1.7,5.2,1.1,3,9.8,5.4,19.7,4.7,30-.4,6,.2,12-.8,17.9-.5,2.7-1.2,5.4-3.4,6.8-3.5,2.2-4.6,5-3.4,8.8.2.6,0,1.2,0,1.9h-4.5c-4.4-4.7-9.8-7.6-16.1-8.8-1.9-.4-3.8-1-5.5-2.2-3.4-2.5-4.5-2.3-7.9.3-.4,0-.7,0-1.1,0-.6-.3-1-.6-.8-1.3h0v.2Z"/>
    <path class="cls-43" d="M152.4,124c-2.7,7.6-6.2,14.8-11,21.3-.6.8-1.2,1.5-2.1,2-5.2,3.1-6.2,7.5-2.8,12.8,1.1,1.7,2.4,3.2,4.1,4.3.8-.5,1.5-.3,2.3,0,1.6,1.4,3.4,2.9.1,4.4-2.8-.5-5.3-1.9-8.1-2.5-5.9-2.4-11.8-4.3-17.9-6-3.1-1.1-6.4-1.5-9.2-3.3-1.8-3.8,0-6.7,2.6-9.3,1.4-1.4,2-2.6.2-4-1.3-.9-2.2-1.5-2.4,1.1-.4,4.7-5.7,8.9-9.5,7.9-.2-.3-.4-.6-.4-1,.2-1.4,1.1-2.4,1.6-3.5,1.2-2.1.9-4.3.4-6.5-.6-2.7-.6-5.3,1.9-7.1,2.5-1.9,5.1-1.2,7.4.5,1.9,1.4,4.2,2,6.3,2.9,4.5,2,8,.9,9.5-3.9,1.3-4,3.7-7.2,5.5-10.8,1.4-2.8,2.2-5.7,2.9-8.6.7-.5,1.4-.4,2.2,0,2.7,2.4,3.1,5,1.8,8.6-2.2,6.2-4,12.6-8,18-1.1,1.5-2.5,2.8-3.7,4.2-2.5,2.8-1.3,7.6,2.1,9,1.4.6,2.1,0,2.5-1.4,2-8.4,7.2-14.9,12.6-21.2,1.6-1.9,2.8-4.1,4.1-6.2,1.1-1.8,2.3-3.3,4.7-2.9.5.3.9.6.7,1.3h-.4Z"/>
    <path class="cls-39" d="M135.3,115.8c-.5-.3-1-.5-1.5-.8-.5,0-1,0-1.5-.4-.5-.5-.8-1.1-.8-1.9.6-3.4,2.7-5.2,5.6-3.4,6.6,4.3,14.9,4.4,21.3,9.2,2,1.5,3.3,2.9,3,5.4h-8.9l-.7-.7c-6,1.9-10.6-.2-14-5.2-.6-.9-1.4-1.7-2.4-2.3h-.1Z"/>
    <path class="cls-12" d="M142.7,168.1c1.7-1.5-.7-1.9-.8-2.9-.8-1.4.9-4.8-3-3.8-3.5-5.2-3.1-7.2,2.4-10.1,1.6-.8,2.7-2.2,3.3-3.8,2.4-6.8,6.8-12.7,8.9-19.6.7-2.3,2.4-3.3,4.9-3.2l-.7.7c-2.6,3-3.8,6.6-5,10.3-1.5,4.6-3.3,9.1-4.5,13.8-.5,1.8-.7,3.7,1.7,4.6,1.5.5,1.5,1.8,1.4,3.1,0,1.6.2,3.2-.1,4.8-2.6.8-4.1,2.3-3.8,5.2,0,.9-.3,1.7-1.1,2.2-.3.2-.7.3-1.1.3-1,0-2,0-2.5-1.2v-.6h0v.2Z"/>
    <path class="cls-6" d="M139,161.4v-1.1c.3-1.3-1.3-3.5.4-3.9,1.9-.4,2.9,1.9,3.6,3.6.8,1.9,0,3.6-1,5.2-.5-.3-1-.5-1.4-.8l-1.5-3h-.1Z"/>
    <path class="cls-9" d="M176.3,84.3v-4.5c.2-1.5-.6-3.2.7-4.5.2.8.7,1.7.7,2.5v19.7c0,1.1-.1,2.2-.8,3.2-1-4,0-8.1,0-12.1s0-3-.7-4.3h.1Z"/>
    <path class="cls-44" d="M160,160.6c1.2,2.4,1,4.9.5,7.3-.9,4.2,0,8.2.7,12.2.5,3.6,3.5,5.6,5.5,8.2.8,4.1,4.3,7.4,3.7,12-1.1-1.7-1-4-3-5.2-2.2-.6-1.8-3.1-3-4.4-.9-1-1.4-2.5-3.1-2-1.6.5-2.6,1.8-2.6,3.5,0,3.4.5,6.6,1.6,9.8,0,2.6,2.1,4.4,2.8,6.7.2.8.5,1.5.6,2.3.3,2.6-.6,5.1-.4,7.6-.6,2-.7,4-.2,6.1.3,1.4.8,3.2-1,4.3-1.8,0-2.3-1.3-2.6-2.8-1.4-5.7-3.3-11.3-4.5-17.1,0-.4-.2-.8-.4-1.1-2.5-8-3.5-16.1-3.2-24.5.1-2.6-2-4.1-3.5-5.9-.5-2.5-3.5-4.3-2-7.4,1.9-1.4,3.1.1,4.4,1,1.1,1.1,1.1,2.8,2.2,3.9.3.5.6,1.1,1,1.6.7.9,1.4,1.8,2.7,1.2,1.3-.5,1.5-1.5,1.6-2.7.1-2.7,0-5.4,0-8.1s-.3-4.2,1-6.1c.3-.3.5-.4.9-.5h.3Z"/>
    <path class="cls-55" d="M159.2,201.8c-2-3-1.6-6.5-1.7-9.8,0-2.4,1.6-4,3.7-4.7,2.1-.7,3,1.2,4,2.6,1.1,1.5,1.8,3.3,2.2,5.1.9,4.5,2.6,8.8,3,13.5-.7-1-1.5-2-2.2-3-1.7-.4-1.8-1.9-2.1-3.2-.6-2.4-1.1-4.8-1.8-7.2-.4-1.2-.8-2.5-2.4-2.3-1.8.2-2,1.7-1.9,3.1,0,1.4.5,2.7.4,4.1,0,.8-.3,1.5-1.1,1.8h0Z"/>
    <path class="cls-55" d="M177.8,229.5c-3.2-5.6-6.2-11.3-6.7-18,2.3,4.7,4.5,9.3,6.8,14.1.6,1.3.9,2.6,0,3.9h-.1Z"/>
    <path class="cls-20" d="M165.1,169.7c2.2,1.3,4.1,3.1,6.6,4.1.7.3,1.5,1.1,1.7,1.8,2.1,6.4,4.8,12.7,3.5,19.7-.3,1.4-1.1,2.5-2,3.5-1-1.7-2-3.5-3-5.2-.6-4.9-1.4-9.7-3.1-14.3-.7-2.1-1.9-4-3.4-5.7-1-1.2-1.9-2.4-.3-3.8h0Z"/>
    <path class="cls-23" d="M165.1,169.7c1.3,3.3,4.8,5.2,5.2,9-1.3,1-1.1,2.4-.9,3.8.2,1.8,0,3.2-2.1,3.7-3.8-5.3-6.1-11.2-5.2-17.9,1,.5,2,1,2.9,1.5h.1Z"/>
    <path class="cls-15" d="M167.4,186.1c.6-1.7.1-3.4,0-5.1,0-1.9.6-3.2,2.9-2.4,2.1,3.6,2.1,7.6,2.8,11.5.2,1.3-.4,2.4-1.2,3.4-1.7-2.4-3.3-4.8-4.5-7.5h0Z"/>
    <path class="cls-71" d="M160,160.6v.8c-1.6.9-3.3,1.3-4.7-.2s-1.6-3.3-.5-5.1c.7.5,1.5,1,2.2,1.5l3,3Z"/>
    <path class="cls-71" d="M159.2,201.8c.3-2.6-1.2-5.1-.3-7.7.6-1.6.7-3.7,2.9-3.9,2.1-.1,2.8,1.8,3.3,3.5,1.1,3.9,2.1,7.9,3.1,11.8,1.8,7.1,3.6,14.1,5.3,21.2,1.5,6.1,2.9,12.2.7,18.5-.8-.3-1-1.1-1.2-1.8.1-4.7-1.4-8.9-2.9-13.3-2-5.8-4.5-11.6-4.4-17.8,0-4.2-1.1-8-2.8-12.3-.5,1.3-.2,2.2-.1,3.1,0,.9.4,1.7.4,2.6-.1,1.6.5,3.7-2.3,3.7-.2-2.5-1.7-4.9-1.6-7.5h0Z"/>
    <path class="cls-40" d="M168.9,305.2c-1.7,1.2-3.5,2.5-5.2,3.7-.9-.5-1.8-1.4-1.4-2.4,1.1-2.8,0-5.9,1.2-8.5,2.4-5.3.6-10.5.2-15.7-.3-4.6-.8-9.1.3-13.7.3-.4.7-.5,1.2-.5.9.2,1.4.8,1.6,1.7.8,3.5-.7,7,.1,10-.4-2.1-.2-4.5.1-7,0-4.5-.7-8.9-1.4-13.3,0-1,.2-1.8,1.1-2.3,3.5,4.2,2.7,9.3,3,14.2-.4,4.5.8,8.8,1.4,13.2,1,7.1.1,13.8-2.1,20.5h-.1Z"/>
    <path class="cls-20" d="M168.9,305.2c-.4-3.4,1.4-6.5,1.5-9.8.2-5.3-.4-10.6-1.2-15.9-.4-2.7-.8-5.4.4-8h.8c-.1,2.4.3,4.7.9,7,1.6,6.8,1.8,13.5.2,20.3-.4,1.6-1.3,3.4.4,4.9l-3,1.5h0Z"/>
    <path class="cls-50" d="M166.6,257.2v2.2c-1.4,1.4-.7,3-.3,4.6.3,1.6.9,3.4-1.2,4.4h-.8c-1.3-.6-1.9-1.7-1.8-3,.3-4.9-1.1-9.7-.8-14.6.1-2,.4-3.9,1.8-5.4,1.7-.5,3.3-.6,4.6.8.5,1,0,1.5-.8,2-2.1,2.8-1.8,5.9-.7,9Z"/>
    <path class="cls-61" d="M167.4,248.3c.2-.5.5-1,.7-1.5-.3-.6-.1-1.1.2-1.5,2-.6,3.3-2.8,5.7-2.2v2.3c-.7,4.4-4.2,2.5-6.7,3h.1Z"/>
    <path class="cls-15" d="M151,162.2v-3c0-2-.1-3.7-3-3.3-2,.3-2.7-.9-2.1-2.8,2.7-7.6,5.3-15.1,8.1-22.7.7-2,1.8-3.8,3.7-4.9-3.6,6.8-5.6,14.2-7.8,21.6-.7,2.3-.8,4.2.9,6.5,2.1,2.9.6,6.7.9,10.1-.3.2-.6.2-.9,0-.3-.5-.3-1,.2-1.5h0Z"/>
    <path class="cls-34" d="M151,163.7h.7c.2.8.5,1.5.7,2.3.2.9.2,2,.7,2.8,1.1,1.8,1.3.4,1.5-.6,1.8-1.7,3.4-1.4,3.6.7.4,3.1.3,6.2,0,9.3-.2,1.9-1.5,2.2-2.9,1.1-1.3-1.1-2.7-2.2-3.8-3.5-1.1-.7-1.9-1.7-2.3-3,.7-1.4.7-2.7.3-4.2-.5-1.7-1-3.7,1.3-4.8h.2Z"/>
    <path class="cls-40" d="M151.6,175.7c.7.3,1.3.7,2,1,1.2.5,2.4,2.8,3.2,1.7,1.9-2.4.8-5.6.7-8.5,0-1.5-1.1-2.5-2.8-1.8-1.7-4-2.8-8,0-12-.4,3.9,2.6,4.4,5.2,5.3,0,5.3-1.2,10.6-.8,15.9,0,1.4-.1,2.9-1.5,3.5-1.6.8-2.4-.8-3.4-1.6-1.1-1-2.2-2.1-2.6-3.6h0Z"/>
    <path class="cls-9" d="M95.7,153.9c-.5-.3-1-.5-1.5-.8.2-2.9-.2-5.2-2.9-7.1-2.4-1.7-1.7-4.6,0-6.3,4.7-4.9,7.3-11.3,13-15.6,5.2-3.8,7.1-10.7,10.7-16.1,5-7.4,4.7-15,2.2-23.1-2.1-6.8-3.9-13.6-4.6-20.8-.7-6.8,0-12.9,5.5-17.7,3.5-3,4.4-8,8-11.1,8.9-7.8,19.2-10,30.5-8,4.1.8,8.2,2,12.3,2.9,5.5,2.5,10,5.9,11.9,12,.2,2.8-.6,5.1-2.3,7.5-3.5,4.9-2.1,10.7-1.8,16.2.2,2.6,1.1,5.1.4,7.7-1.7,0-1.3-1.4-1.3-2.1-.6-5.7-1.4-11.3-2.2-16.9-.4-2.7.2-5.4,1.6-7.9,2.2-3.7,1.9-5.6-1.4-8.5-5.5-4.9-12.2-6.4-19.3-6.9-1.9-.1-3.8.2-5.6,0-7.8-1-13.6,3-19.1,7.7-1.6,1.4-2.9,3.2-3.5,5.2-.9,3.1-2.7,5.6-5.2,7.6-4.1,3.3-5.3,7.7-4.8,12.7.7,7.9,2.8,15.4,5.2,22.9.3,1.1.8,2.1,1.1,3.2,1.1,4.2,1.1,7.9-.7,12.2-3.5,8.4-8.6,15.7-14.1,22.8-3,3.9-7.4,6.6-10.5,10.5-1.2,1.5-1.8,2.9-1.3,4.7.9,3.4,2.5,6.6,1.7,10.3-.2.9.8,1.5,1.1,2.3-.9,1.3-2,.9-3.1.4h0Z"/>
    <path class="cls-68" d="M98.7,153.2c-2.6-2-5.6-13.1-3.9-15.6,2.2-3.1,4.6-6.2,7.4-8.9,7.1-6.7,11.7-15,16.6-23.3,3.7-6.3,2.7-12.1.5-18.5-2.7-8.1-5.1-16.5-4.9-25.2,0-4.2,1.1-8,5-10.7,2.5-1.7,4.1-4.1,5-7.2,1-3.6,3.7-6,6.7-8.3,12-8.9,33.2-8.1,44.4,1.8,3.5,3.1,3.9,6.2,1.3,10.2-1.8,2.8-2.7,5.8-1.9,9.2,1.2,5.6.7,11.4,2.3,17v1.5c0,1.5.1,3.1-.7,4.5-1.3-9.8-3.6-19.6-3.7-29.6,0-1.1.3-2.2.7-3.3,1.8-4.8.8-7.2-3.8-9.5-8.6-4.2-17.7-4.7-26.9-2.9-5.9,1.1-9.8,7.3-8.1,12.3.6,1.9,1.9,3.2,3.5,4.2,1.3.8,2.6,1.4,3.9,2.2,7.5,4,9.3,8.3,6.7,16.5-.9,2.8-.7,5.6-.9,8.4-.4,6.2-2.5,11.9-4.9,17.5-1.6,3.6-4.8,4.3-7.9,2-6.8-5.1-6.6-5-10.2,2.6-1.6,3.4-1.1,5.9,1.5,8.3,1.3,1.2,2.6,2.3,3.9,3.5l.7.7c1.6,1.3,1.7,2.7.9,4.6-1.5,3.8-3.7,7.3-5.5,11-1.5,3-4.3,4.7-7.3,6-1.7.7-3.4.2-4.9-1-3.5-2.9-7.2-2-10.6,0-3.4,2.1-4.4,5.4-3.4,9.1.8,3.3.8,6.4-1.3,9.2v.8c0,.1.2.3.3.4,0,.1-.2.2-.3.4h-.2Z"/>
    <path class="cls-22" d="M81.5,166.7c-.9,2.7-2.6,4.4-5.6,5.4-5.2,1.6-8,5.7-7.8,11.2,0,5.4-2.2,9.9-5.6,13.8-1.2,1.4-1.8,2.5-1.3,4.3.4,1.4.8,2.9.5,4.4-.4,2,.4,2.3,2.3,1.9,3.5-.7,4.3.4,3.1,3.8-.9,2.6-1.8,5.1-2.8,7.7,1.9,3.8-1.8,5.2-3.3,7.5-.9,1.4-2.5,2.2-4.1.8,1-2.8,3.1-4.7,4.6-7.2,1.2-1.9,1.7-3.6-1.5-4.3-3.9-.9-5-3.9-4.5-7.4s.7-6.9.6-10.4c0-2.1.7-3.9,2.5-5.1,4.5-3.1,5.8-7.9,6.4-12.9.5-4.9,3.3-8.8,8.2-9.8,3.1-.6,5.8-1.6,8.3-3.6h0Z"/>
    <path class="cls-24" d="M56.9,227.3c3.7-1.6,5.4-5.1,7.5-8.2,1.3-1.5,2.6-2.9,4-4.4,1-1,1.6-.8,2,.6.7,2.6,1,5.2-.3,7.6-2.4,4.5-3.5,9.5-5.6,14.2-.9,2-1.4,4.6-4.6,3.5-2.9-1-5-2.8-4.6-6.3.2-1.6.5-3.2.8-4.7.2-.7.5-1.5.8-2.2h0Z"/>
    <path class="cls-14" d="M40.4,317.1c3.8.2,6.2,2,6.2,4.5s-2.8,4.4-6.4,4.3c-1.9,0-4.8-3.3-4.7-5.5.2-3.4,2.9-3.2,5-3.3h0Z"/>
    <path class="cls-22" d="M90.5,159.9c-2.4,3.1-5.2,5.5-9,6.7l3.7-3.7c1.7-1,3.2-2.5,5.2-3h.1Z"/>
    <path class="cls-24" d="M100.2,159.9c-1.5-1-3-.6-4.6,0-1.4.5-2.5.5-2.1-1.5v-.7c1.5-.3,3-.5,4.5-.8,4.8-2.4,9.3-.5,13.7,1.1,1.5.5,3,1,4.6,1.5,2.8.6,5.6,1.6,8.4,2.4,1.1.3,2.6.3,2.8,1.9-2,2.1-6.3,2.4-10.1.6-3-1.4-6-2.9-9.4-2.7-2.8.3-5.5.4-7.7-1.7h-.1Z"/>
    <path class="cls-37" d="M158.4,339.6h.8c-.4,4.1-.4,8.2-1.2,12.3-.3,1.7-.6,3.4-1.4,4.8-1.7,2.9-4.6,3.1-6.4.2-1.7-2.9-4.7-5-6-8.2-.7-1.9-3.6-2.5-3-5.2,1.5-2.6,4.2-1.9,6.4-2.2,2.3-.3,4.6-.5,6.8-1.2,1.3-.4,2.5-1.7,4-.4h0Z"/>
    <path class="cls-51" d="M144.2,348.6c2.6,1.7,4.2,4.2,6,6.5,2.3,2.9,4.1,2.7,5.5-.8,1.2-3,1.8-6.2,1.9-9.5,0-1.9.3-3.7,1.5-5.3.3.5.5,1,.8,1.5,1.4,7.4.2,14.8-.9,22.1-.2,1.7-1.1,3.1-2.9,3.4-2,.3-2.9-1-3.7-2.6s-1.2-3-2.2-4.2c-.5-2.6-2.4-4.5-3.7-6.7-.5-1.4-2.5-1.9-2.2-3.7v-.8h-.1Z"/>
    <path class="cls-15" d="M154.7,340.4c-4.4,1.6-9,1.8-13.5,3-1.2.2-2.5.5-3.7.7-1.8-.2-3.7.3-5.8-.5,2-2.2,4.5-2,6.8-2.5,4.9-1,9.9-.2,14.8-1.5.4.5,1.2.1,1.5.8h-.1Z"/>
    <path class="cls-21" d="M144.2,349.3c.8,1.2,2,2.2,2.2,3.7-2.6-2.4-5.1-4.9-9-2.2.8-5.1,1.9-5.3,6.7-1.5h.1Z"/>
    <path class="cls-22" d="M150.2,359.8c1.7.6,2.4,2.1,3.2,3.5.6.9,1,2.3,2.4,1.8,1.2-.4,1.5-1.6,1.7-2.7.5-2.8,1.3-5.6,1.5-8.4.4-4.3,1.5-8.5.9-12.9,2.4,7.7,1.7,15.4.8,23.2v3.7c-1.4,1.6-1.2,4.9-4.1,4.6-2.7-.3-3.6-3.2-4.4-5.4-.9-2.4-2.3-4.7-2-7.4h0Z"/>
    <path class="cls-71" d="M162.9,345.6c2,3.8,2.5,7.9,2.1,11.9-.9,8.5-.9,16.8,1.3,25.2.8,2.9.3,6.2.4,9.3-4.1-4.3-5.2-9.7-5.1-15.2.1-3.6.7-7.3,1.3-11v-.7c.6-5.5.6-11,0-16.5v-3h0Z"/>
    <path class="cls-56" d="M162.9,365.8c0,2.9.3,5.8,0,8.6-.7,6.3,1.4,12,3.8,17.6h0c.6,2.2.6,4.5,0,6.7,0-6.2-4.9-10.5-5.9-16.4-.5-3.3-1-6.2.2-9.4.9-2.3,1.3-4.8,1.9-7.1h0Z"/>
    <path class="cls-31" d="M142,407c0-1.8.1-3.7-.1-5.5-.4-3.1-2.5-4.5-5.4-5.1-2.8-.5-4.2.7-4.9,3.1-.7-2.6-.7-5.3,2.1-6.3,2.9-1.1,6.1-.7,8,2.2,2.4,3.7,2.9,7.6.3,11.6h0Z"/>
    <path class="cls-71" d="M166.6,398.7v-6.7c.9,6.1,1.7,12.2,1.2,18.4-.1,1.6-.3,3.2-.4,4.8h-.7v-16.5h-.1Z"/>
    <path class="cls-56" d="M162.9,348.6c1.2,5.5,1.2,11,0,16.5v-16.5Z"/>
    <path class="cls-46" d="M151.4,370.2c0,1.3-.3,2.5-1.4,3.2-1.3.8-2.5,0-3.3-1-3.3-4.1-5.4-8.9-6.7-14-.5-1.9.7-3.4,2.5-4.1,1.5-.6,3,0,3.5,1.3,2,4.8,5.2,9.1,5.4,14.6h0Z"/>
    <path class="cls-52" d="M169.6,460.9c.2-2,.3-4,.7-5.9,1.4-5.9.7-12,1.1-18,.2-3.3,1.5-6.5,1.1-9.9-1.3-2-.3-4,0-6v-2.2c.3-.3.5-.6.6-1,.2-1.7.1-3.4,0-5.1,0-1.1-.1-2.3,1.6-2.1,0,6.7-.1,13.4-1.2,20.1-1,6.2.3,12.7-1.1,18.9-.8,3.8-1.4,7.6-3,11.1h.2Z"/>
    <path class="cls-3" d="M174.8,410.7c-1.5,2.6,0,5.2-1.6,7.7-.5-3-.7-5.6-.5-8.6.4-5.6.2-11.1-2.4-16.3.1-.8-.2-1.9,1-2.1,1-.1,1.5.7,1.8,1.6s.6,1.8,1,2.8c.6,5,.9,10,.7,15h0Z"/>
    <path class="cls-34" d="M116.6,159.9c-6.1-1.5-12.2-3.7-18.7-3,1-.9,2.7-1.8-.2-2.3-.7-.1-1.4-.5-2-.7,1.1,0,2.1-.1,3-.7h0c3.6,0,7.2-.5,9.7,3l9,3c.2.7,0,1-.7.8h0Z"/>
    <path class="cls-14" d="M172.6,421.2v6c-1.1,3-1.7,6.3-3.7,9v-3.7c2.4-3.3,1.7-7.8,3.7-11.2h0Z"/>
    <path class="cls-11" d="M150.3,440.7c-.4-1.6-.8-3.1-.8-3.1,3-6.6,6.2-13,9-19.7,1.5-3.5,2.1-7.1-1.2-10.4-2.4-2.4-4.2-2.1-6.2.2-2.5,2.7-2.7,6.4-4.1,9.5-.4,1-.8,2.1-1.2,3.1-1.1-10.2,3.6-17.4,12.1-22.5,3.3-1.9,4.8-1,4.7,2.9,0,1.1,0,2.2.5,3.3,2.8,6.6.7,12.5-2.5,18.4-2.3,4.3-5.8,8-7.3,12.8.7.5,1.8.6,2,1.7-.5,3-2.3,4.3-4.9,3.6h0v.2Z"/>
    <path class="cls-72" d="M150.3,440.7c1.9-1.6,3.2-2.6,4.4-3.8,0-1.6,1.3-2.3,2.3-3.1,1.8-.8,3.6-1.4,5.1-3,.3-.2.5-.4.8-.7,1.6,1.1,1.4,2.5.7,4-.8,1.7-1.4,3.6-2.6,5-3.8,4.5-6.3,9.9-9.2,15-.1-4.5-.6-8.9-1.5-13.4h0Z"/>
    <path class="cls-45" d="M170.4,393.5c4,4.4,4,9.8,3.5,15.1-.3,3.5-.6,6.3-.6,9.8.1.3-.6,1-.6,1-1.2-7.4.3-15.6-2.2-22.9v-3h0Z"/>
    <path class="cls-4" d="M157.7,434.7c-1,.8-2,1.6-3,2.2-.7-.3-1.2-.8-1.5-1.5,4.4-4.1,7-9.4,10.5-14.2-.3,1.7-.5,3.5-.8,5.2h0c-1.9,2.7-3,5.8-5.2,8.3h0Z"/>
    <path class="cls-55" d="M168.2,341.8h4.5c-.2,1.8,0,4.4-2.1,4.5-2.5,0-2.2-2.6-2.4-4.5h0Z"/>
    <path class="cls-30" d="M157.7,434.7c.2-3.7,2.9-5.9,5.2-8.3,0,1.5-1.6,2.7-.8,4.4-1.5,1.5-2.7,2.8-4.4,3.9h0Z"/>
    <path class="cls-36" d="M58.4,287.9c-.5.4-1.1.7-1.4,1.2-3.6,6.3-9.6,6.2-15.7,5.8-1.5-.1-3-.2-4.3.7-.7.5-1.5,1.2-2.3.5-.9-.8-.5-1.9-.2-2.8,1.5-4.6,3.1-9.2,4.7-13.8,2.3-6.8,4.5-13.7,6.8-20.5.3-.9.4-2.7,1.9-2.2,1.3.4.9,2,.8,3-.4,3.3-1.2,6.6-1.6,9.9-.2,1.7-.3,3.7,1.8,4.4,2,.6,3.1-1.1,3.6-2.5,2.2-6.4,8.1-10.6,9.9-17.2.2-.6.6-1.2,1.3-1.1,1,0,1,.9,1.1,1.6.4,2.4,1.3,4.8.4,7.3,0,.2,0,.5,0,.7.6,7.8,0,15.3-4.6,22,.7,2.1,0,3.2-2.2,3h0Z"/>
    <path class="cls-24" d="M71.1,337.3c-4.1.5-7.8-1.3-11.6-2.1-1.2-.3-2.7-.6-2.6-2.1,0-1.5,1.6-1.9,2.8-2.1,10.1-1.4,20.1-3.7,30.6-1.7,7.2,1.4,14.8,1.7,22.1,2.7,1.3.2,2.4-.5,3.6-.9,1.8-.7,3.7-1.6,5.6-2,2.8-.6,4.9,1.1,5.5,3.4.7,2.4-2.2,2.2-3.6,2.8-1.1.5-2.5.8-3.6.6-13.4-1.6-26.7,1.6-40.1.9-2.9-.2-5.6,1-8.6.7h0v-.2Z"/>
    <path class="cls-14" d="M92,194.4c.7-2,0-4,0-6-.4-.5-.5-1.1,0-1.6,1.6-.2,2,1,2.5,2.1.2,6,.7,12-2.2,17.5-.8,1.5-.5,3.1-.4,4.7,0,1.5-1.3,2.2-2,3.4-2.1,2.6-5.3,3.9-7.4,6.5-1.9,2.3-3.2,4.6-1.9,7.7.6,1.5.4,3.2,0,4.7-.8,2.1-.9,4.3-.9,6.5.3,4-1.2,7.8-1.6,11.7,0,.6-.5,1.1-1.1,1.4-1.5-.1-1.6-1.1-1.6-2.3,0-4-.7-7.9-.5-10.9,0,4.1.5,9.3.5,14.4s-.9,5.1-1,7.7c0,1.1-.7,1.8-2,1.6-1.6-.9-1.4-2.5-1.4-4,.2-7.1,0-14.2-1.8-21.2,0-.5-.2-1,0-1.4,1.9-5.9,1.2-12.8,5.8-17.8h0c3.1-6.2,7.4-11.3,12.9-15.5,2.8-2.2,3.4-5.8,4.3-9.2h-.1Z"/>
    <path class="cls-24" d="M96.4,167.4c2.4,3.5,2.3,4.2-1.3,6.3-9.2,5.3-9.8,7-6.2,17,.5,1.3.9,2.6.8,4-.3,2.8-1.9,3.8-4.3,2.4-2-1.2-3.7-.9-5.6,0-.7.3-1.4.9-2.1.3-.8-.7-.4-1.6,0-2.4,1-2.9,3.3-4.9,5.1-7.3,1.8-2.5,2.4-4.7,1.3-8.1-.9-3.1-1-7.1-.7-10.3.4-4.9,7.2-5.9,11.7-2.3.8-.4,1.2,0,1.5.8h0v-.4Z"/>
    <path class="cls-27" d="M121.1,315.6v.7c-14.2.2-27.8-2.4-41.1-7.5-2.2-1.8-3-4.4-2.9-7,.2-5.9-2.9-10.5-5.4-15.3-1.4-2.4-3.6-4.3-4.5-7,0-.8.4-1.5.9-2,4.6-2.7,4.7-2.6,7.2,2s5.2,9.1,9.1,12.8c2.8,2.7,3.6,6.5,5.3,9.7,1.3,2.4,3,4.6,3.7,7.2.4,1.3,1.6,1.4,2.7,1.6.7.1,1.4.4,2.1.5,1.1.1,2.1.7,3.3.6,1.8.2,3.5.3,5.3.4,3.5,1.4,7.1.3,10.6.7,1.7,0,3,.8,3.7,2.5h0Z"/>
    <path class="cls-22" d="M197.3,319.4c-2.3-2.3-5.3-1.9-8.1-1.7-6.8.4-13.5,1.7-20,4.2-6.1,2.4-12.4,4.8-19.1,1.8-1.3-.6-3-.5-3.7.9-1.7,3.5-4.1,2.2-6.6,1.3h-1.2c-2.9,1.6-5.3.4-7.9-.9-2.8-1.5-5.3-4.3-8.8-3.3,1.6-1.1,2.1-3,1.8-5-.3-1.8-2.1-1.4-3.4-1.4-13.6-.3-26.8-2.7-39.4-8.1-1.9.6-3.2-1.1-4.9-1.3-.9,0-1.8-.4-2.7-.4-.8-.1-1.6-.3-2.4-.5,0,.8-.5,1.5-1.4,1.1-2.9-.9-5.8-1.8-8.7-2.8-2.1-.7-4.4-2.3-4.5-4.7-.4-.2-.8-.4-1-1-.3-2.5,1.8-4,2.8-5.9.7-1.4,2-2.8,0-4.2-1.2-.4-2.3,0-3,.9-3.6,5.3-9,5-14.4,4.6-4.2-.3-4.4-.5-3-4.4,2.7-7.7,5.7-15.3,7.8-23.2-.5,2.2-.9,4.4-.4,6.8.4,1.8,1.1,3.3,3.1,3.8s3.7-.2,4.8-2c1.2-1.9,2.5-3.6,3.4-5.8,1.5-3.6,3.8-6.6,7.2-9.5-.4,2.8-.6,5.2-.5,7.5.2,5.2.4,10.4-3.1,15-1,1.3-1.4,3,.5,4.2,1.2.3,2.1,0,2.8-1.1,3.2-5,6.4-10.1,7.9-15.9,0-1.4-.4-2.6-.5-4-.3-7.6,1-15.3-1.2-22.8-1.5-5.1,1-9.6,1.6-14.4.4-2.9,3.7-4,4.9-6.4.2-.3.3-.7.5-1.1.8-4.9.7-9.5,6.5-12.4,4.8-2.4,8.7-7,9.9-12.9,1.1-2.1.2-4.1-.3-6.1-3.7-4.3-3.4-7.1,1.1-10.8,1.4-1.2,3-2.2,4.4-3.3,2.4-1.9,3.1-4.1.9-6.6-.6-.5-1.3-.9-2.1-.8-.4,0-.7.2-1,.5-.6,3.3-2.5,5.3-5.3,7-2.1,1.3-4.1,2.8-5,5,0-2,0-4,.7-5.9,0-.3-.2-.7-.4-1-.9-1.6-.9-3.1.5-4.4,1.4-1.4,3.1-2.1,5.1-1.3,1.1.5,2.2,1.3,3.5.5,1.4-1.6.5-4.7,3.4-5.2.9-.3,1.7-.7,2-1.7,0-2.4-1.8-2.2-3.3-2-1.3.2-2.5.9-3.8.2h-1.5l-1.5,1.5c-3.1,2.1-5.7,4.9-9,6.7h0c-1.7,2.8-4.5,3.6-7.4,4.8-4.3,1.7-7.8,4.5-7.6,10.1.2,5.4-1.9,10.2-5.5,14.3-1.8,2.1-2.1,10.4-.3,12.6.2.3.5.7.8.7,3.9.9,3.3,3.4,2.6,6.2-.3,1.1-.8,2.5,0,3.7.6.6,1.3.5,2.1.4.9-.1,1.6-1.7,2.5-.6.8.9.2,2.2-.2,3.2-1.2,3.2-3,6.2-3.8,9.6-.4,1.8-1.2,3.5-2.3,5.1-1.2,1.9-3.3,1.7-4.4-.3-.7-1.1-.5-2.4-.4-3.6.2-1.4.3-2.8-1.4-3.4-1.2,1.3-2,2.8-2.5,4.5-.4,1.4-1,2.9-2.5,3.5-6.2,2.3-8.2,7.8-9.9,13.5-.8,2.5-1.4,5.2,0,7.7,2,3.3,1.5,6.6.5,10.1-2.1,7.2-5.4,13.9-8,20.9-1.6,4.2-2.7,8.6-3.5,13-1.2,6.9,3.1,10.7,9.8,11.1,6.4.3,12.8,1.8,18.5,5.1,1.6.9,3.4,2.4,2.4,4.5-1,2.2-3.1.9-4.6.5-3.6-1-6.9-1.2-9,2.7-.7,1.4-2,1.7-3.5,1.8-3.6.2-7,0-9.1-3.6-.7-1.2-1.9-2.1-3.5-1.5-1.5.6-1.9,2-1.9,3.4s.2,3.7.3,5.6c.4,6.1,1.7,7.5,7.8,8.2,1-2-.9-2.5-1.7-3.6-1.4-1.9-1-3.2,1.3-3.8,3.2-.9,5.5.5,7.3,3,.6.9,1.6,1.8.8,3-.7,1-1.8.7-2.8.5-1.8-.4-3.7-1.2-4.9,1,3.3,2.2,7.1,2.7,11,2.9,1.9,0,4.1-.4,4.5-2.6.7-3.9,3.1-3.8,6-3.2,3.5.7,7.1,1.3,10.6,2,1.5.3,3.2,0,4.4,1.6-3.1,2.2-6.7,2.6-9.8,3.9-.8.3-1.8.6-1.8,1.6s1.1,1.2,1.9,1.5c2.3.8,4.3,1.8,5.4,4.2,1.4-.1,3.3.5,4.1-1.1,2.9-5.5,8.4-5.8,13.5-6.3,11-1,22-1.2,32.8,1.9,4.2,1.2,8.3,0,12.4-1.3,0-1-.5-1.7-1.5-1.9-2.2-.5-4.3-1.5-6.5-1.8,3.2,0,6.4-.9,9.6-2.2,2.9-1.1,5.7-1.5,8.8-1.1,5.8.9,11-.4,16.1-3.2,5.1-2.9,10.6-5.2,16.6-3.5,5.8,1.7,11.5-.4,17.2,0,3.7-2.9,2.7-8,5.3-11.4.1-.1-.5-.8-.7-1.2h.1ZM82.7,190.3c0-.2.3-.4.4-.6,1.8-1.8,2.4-3.8,2.6-5.9.6,2.5.5,5.2,1.3,7.8.3,1.1.7,2.5-.8,2.8-1.7.3-3.9.4-5-.7-1.2-1.1.9-2.2,1.4-3.4h0ZM46.6,261.8c0,.5-.3,1.1-.4,1.6,0-.5.3-1.1.4-1.6Z"/>
    <path class="cls-36" d="M37.5,340.3c-.2-.2-.4-.3-.6-.5-2.4-1.5-5.1-2.9-4.6-6.5.2-1.2.8-2.3,2-2.3,3.5-.2,7.3-1.4,10.1,2,1,1.1,1.9,2.3,2.9,3.4.9,1.1,1.6,2.3.9,3.7-.8,1.6-2.4,1.8-3.9,1.6-2.3-.3-4.6-.9-6.9-1.4h0Z"/>
    <path class="cls-22" d="M74.8,219.1c-3.2,5.1-3.1,11.1-4.2,16.7-.5,2.4.6,4.7,1,7,1.1,6.8,1.1,13.6,1,20.5,1.9,2.3.2,3.8-1.1,5.3-.4.2-.8.2-1.2-.1-1.7-5.1-1.6-10.2-.9-15.4.5-3.8-.3-7.4-.8-11.1-1.2-8.4.4-16.3,6.2-22.9h0Z"/>
    <path class="cls-3" d="M100.2,159.9h8.2q4.3,1.4,3.1,5.9c-.8,2.8,0,5.4.3,8.1-1.1,3-.4,6.2-.9,9.3-1.7,2.2-2.5.9-2.7-.9-.4-3-1.3-5.8-1.4-8.8,0-3.2-2-5.8-2.4-8.9,0-1-.9-1.5-1.9-1.4-.5,0-1,.3-1.1.8-.4,1,.3,1.6,1,2.1.6.4,1.3.6,1.9,1.1,2.8,2.4,2.6,5.9-.3,8.1-2.7,2-5.6,3.6-8.4,5.3-2.3.6-1.9,3.8-4.2,4.4-1.8-1.8-1.3-5,1.1-7,1.9-1.6,4.2-2.5,6.1-4.1,2.4-1.9,3-3.2.3-5.7-.5-.3-1-.5-1.5-.8-3.4-3.1-3.3-4.2.7-6.7.7-.3,1.5-.5,2.2-.8h0Z"/>
    <path class="cls-22" d="M92,194.4c0,4.7-1.7,8.7-5.4,11.8-4.5,3.8-7.2,9.2-11.8,12.9,1.2-3.9,2.2-7.9,2.4-12,0-1.1.3-2.4,1.5-2.8,1.3-.5,1.1.9,1.6,1.6,1.1,1.7,2,.5,3.1-.2,4.2-2.8,6.9-6.6,8.7-11.3h0Z"/>
    <path class="cls-68" d="M70.3,268.5h.2c.4,0,.8-.2,1.2-.3.4,0,.7.1,1,.1.7.4.4,1.8.3,2.5-.2,1-.5,2-1,2.9-1,2-2.8,3.6-3.8,5.6s.2.8.2,1.4c-.2,1.5-1.9,1.2-2.6,2.2-1.2,1.8-3.4,4.7-4.5,6.3-2,2.9-3.3,4.3-4.6,7.7-1.3.9-2.5,1.9-3.6,3-1.2-2,0-3.5,1.3-5.1,1.5-2,2.4-4.3,3.7-6.4,1.8-2.9,4.3-5.2,6.2-8,2-2.9,3.6-6,4.9-9.3.3-.8.6-1.5.8-2.3,0-.1,0-.2.2-.3h.1Z"/>
    <path class="cls-13" d="M72.6,285.7c2.8,4.2,5.2,8.6,6,13.7.5,3.2,1,6.3,1.4,9.5l-4.5-1.5c-2.6-3.7-2.3-7.9-2.2-12,0-2.1,0-4.1-1.1-6-.7-1.2-1-2.6.3-3.7h0Z"/>
    <path class="cls-4" d="M72.6,285.7c3.6,6.9,1.9,14.5,3,21.7-.7-.2-1.5-.5-2.2-.7-2.3-4.8-2.9-9.8-2.7-15,0-1.7,0-3.2-1.1-4.5,0-2.3-2.2-4.1-1.4-6.6v-.8c2.3,1.4,2.8,4.1,4.5,6h-.1Z"/>
    <path class="cls-22" d="M81.2,184.2c-.3,3.2-3,6.3-5.9,6.9-1.4.3-1.9,0-1.6-1.4.5-2.2.8-4.4,1.6-6.4.6-1.7,2.2-2.8,4.1-2.3,1.5.4,1.9,1.8,1.7,3.3h.1Z"/>
    <path class="cls-71" d="M70.3,286.4c1.2.8,2.4,1.9,2.1,3.3-1.4,5.8.2,11.3.9,16.9-1.3,0-2.6.2-3.7-.6,1.7.4,1.6-1.5,1.4-2.7-.6-4.4-1.3-8.1-2.2-13,0,0,0-3,1.6-3.9h-.1Z"/>
    <path class="cls-22" d="M98.7,168.2c3.5,2.2,3.6,4.1.4,6.4-1.8,1.3-3.8,2.3-5.7,3.6-2.3,1.6-2.9,4-1.9,6.7.6,0,.7,0,.9.6,0,.5.2,1.1-.2,1.4-.2.7-.2,1.6-.2,2.1-3.9-3.4-3.9-8.7.2-12,1.5-1.2,3.1-2.1,4.6-3.2,2.1-1.4,3.1-3.2,1.9-5.7h0Z"/>
    <path class="cls-4" d="M53.2,299.9c.6-1.8.4-4.5,3.6-3-.5,1.1-.5,2.3,0,3-1.4,1.4-3.3,1.2-3.6,0h0Z"/>
    <path class="cls-22" d="M70.8,200.4c-.9,0-1-.7-.8-1.3.3-1.1.8-2.2,2-2.5.8-.2,1.1.4,1,1.1-.2,1.3-1,2.2-2.2,2.7Z"/>
    <path class="cls-22" d="M97.9,160.7c-2,2.1-3.3,4.2-.7,6.7h-.8c-.5-.2-1-.5-1.5-.8-.9-2.9-1.1-5.5,3-6h0Z"/>
    <path class="cls-69" d="M100.9,313.4c-1.1,0-2.1-.1-3-.7-2-5.1-3.4-10.5-5.8-15.4-4-8-7.9-16-15.2-21.7-2.4-1.8-3.1-4.4-3.2-7.2-.3-2.5.9-4.6,1.7-6.9.3-.5.7-.9,1.2-1.2,3.2-.7,4.3,1.8,5.4,3.9,1.1,2,1.7,5,4.5,4.7,3-.3,3-3.5,3.7-5.8s.4-4.6,0-7c-.3-2.2-.7-4.6,2.2-5.6,2.5,0,3,1.8,3.3,3.7.4,3.5,1.1,6.9,2,10.3.8,3,1.6,3.3,3.8,1,2.4-2.4,5-2,7-.2,4.2,3.7,9.3,4.6,14.4,5.6,4.8.9,8.6,3.4,10.9,7.8,1,1.8,1.9,3.6,3.9,4.8,2.8,1.8,1,4.2.1,6.2-.5,1.1-1.7,1.8-2.2,3-.6,1.4-1,2.8.1,4.2,1,1.2,2.2,1.5,3.6.8.8-.4,1.7-.2,2.6-.3,3.1-.6,6.2-1.1,9.4-.7,3.7.4,5,2.9,2.8,6-1.7,2.5-3.6,4.6-1.3,7.8.7.9,0,1.9-.7,2.7-6.9,1.6-13.9,1.8-20.9,2.2-3.4-.8-6.8-.1-10.2-.4-1.3,0-2.7.3-4-.4-3.7-.3-7.6.7-11.2-.8,0-1.2.8-2.1,1.3-3,1.6-2.9,2.5-5.9,1.8-9.3-.4-1.7-.6-3.6,1.3-4.7,1.8-1,2.9.2,4.2,1.3,2.2,1.8,4,1,4.3-1.8.3-2.9-.7-5.5-2.9-7.4-2.9-2.4-5.4-5.1-7.7-8.1-1.1-1.5-2.6-2.4-4.5-1.9-2.9.8-5.8.9-8.8.2-1.4-.3-2.2,0-1.7,1.7,1,4.2,2.5,8.2,4.7,12,3,5.1,3.5,11.1,4.4,16.8.2,1.4-.2,2.7-1.7,3.4h0l.4.4Z"/>
    <path class="cls-26" d="M152.4,313.4c-2.2-4-2.7-7.5.9-11.3,1.6-1.7-.1-3.6-2.5-3.5-2.9,0-5.9.4-8.8.7-.4.4-.9.3-1.4.4-1.9.2-4.2,1.3-5.5-.8-1.2-2.1-1-4.6,0-6.8.7-1.6,1.7-3,2.9-4.3,1.5-1.7,1.8-3.4-1-4.2-2-.6-3-1.7-3.5-3.8-1.3-5.3-5.2-7.7-10.4-8.4-3.2-.4-6.2-1.3-9.2-2.5-2.3-.9-3.6-2.2-2.8-4.7.8-2.4,2.8-2.4,4.9-2,2.8.6,5.4,1.9,8.1,2.8,2.2.8,4,1,3.6-2.4-.2-1.8,1.6-3.4.6-5.3-.8,0-.9.5-1.1.9-2.6,4.7-7.6,4.9-10.4.3-1.6-2.6-3.4-5.2-4.8-8s-4.4-5.9-7.4-8.2c-2.5-1.9-5.4,0-7.9-1.3-4.3-1.5-8.1-3.7-11.5-6.7-1.5-1.2-2.9-2.6-1.9-4.8,1-2.1,3-2.8,5-2.3,4.1.9,8.2,1.7,11.8,4,.8.2,1.5.8,2.9,1-3.4-3.7-4.2-7.6-2.3-12,2.2-.4,2,1.4,2.4,2.6.8,2.4,1.3,4.8,3.2,6.6,2,1.8,3.2,1.5,4.1-.9,0-.2,0-.5.2-.7.6-1.7.4-4,2.8-4.4,2.6-.5,4.6,1.2,5.6,3,4.1,6.9,10.4,12,15.2,18.3,2.6,3.5,4.1,7.8,4.5,12.3.2,2.3,1.2,3.6,3,4.8,3.4,2.1,3.7,4,.9,6.8-1.6,1.7-2.5,3.6-3.6,5.5-.5.8-1.1,1.9,0,2.6.9.6,1.6-.4,2.1-1,2.1-2.5,4.7-4.6,6-7.6.5-.3,1-.6,1.5-.6,4.5-.1,7.8,3,9.3,8.6,1.7,6.3.3,8.6-6,10.2-2.5.6-5.1,1.1-7.3,2.6-1.2.8-2.6,1.9-2.1,3.6s2.3,1.2,3.6,1.1c2.5-.1,4.9-.5,7.4,0,4.2,1,5.6,3.5,4.2,7.8h0c-3,3.2-2.5,7.4-3,11.2-.7.2-1.5.5-2.2.7h0Z"/>
    <path class="cls-22" d="M157.7,301.4c-.2-5-.6-5.5-5.5-6.1-3.4-.4-6.7,0-10,.6-1.1.2-2.3.5-3.2-.4-.9-1,0-2.1.4-3.1,1.6-3.6,4-6.2,8.1-7,1.9-.4,3.9-.9,5.8-1.4,4.1-1.1,5.5-3.5,3.5-7.2-1.9-3.4-3.1-7.9-8.1-8.3-.5-.6-.4-1.3-.1-1.9.6-.8,1.3-1.6,2.2-2.1.8-.3,1.4-.9,2.3-.9s.6.2.8.5c4.1,4.6,5.6,10.1,5.3,16.2-.1,2.4-.6,4.3-2.3,6-2.4,2.4-2.6,4.7,0,7.4,2.1,2.2,3.6,4.9.9,7.9h0v-.2Z"/>
    <path class="cls-15" d="M153.9,264h-.7c-3.6,1.1-4.7.4-4.9-3s.4-6.6,2.4-9.6c2.6-4,2.2-5-1.8-7.4-1.3-.7-2.6-1.5-3.7-2.6-3.2-3.1-4-7.1-1.5-11.1,4.4-7.2,4.2-14.8,3.5-22.8-.5-5.9-.4-11.9-.4-17.8s0-5.2-.8-7.8c-.6-2.2-1.2-4.4-3.3-5.8-.9-.6-1.5-1.5-1.1-2.8,1.6-1.7,2.9-.6,4.2.4,1.5,1.2,1.5,3.5,3.4,4.5.2.3.4.7.4,1,.1,1.7,0,3.5.1,5.2-.2,5.4.5,10.6,1.3,15.9,0,.4.1.8.1,1.2-.7,4.9.7,9.6,1.9,14.3.8,3.2,1.3,6.3,1.1,9.6-.2,2.7-1,4.9-3.4,6.6-4.9,3.3-4.8,4.9.4,7.8.8.4,1.7.5,2.4,1.1,2.6,1.8,5.5,3.4,3.7,7.4,0,.4-.1.7-.2,1.1-.8,1.7-1.9,3.1-2.9,4.7-2.2,3.6-2,5,1,7.9,0,.2,0,.3.1.5l-1.5,1.5h.2Z"/>
    <path class="cls-59" d="M162.9,250.5c.3,6,.5,12,1.5,18-.2,7.2.2,14.4,1.3,21.6.6,4.1-.2,8.2-1.2,12.2-.6,2.2-1,4.4-.9,6.6-1.5,1.3-3,2.5-4.5,3.8-1.5.1-1.4-1.1-1.5-2-.1-3.2.5-6.1,2.4-8.8,4.9-2.4,3.3-6.9,2.9-10.7-.4-4.4-1.5-8.7-1.2-13.2.4-6.8-.9-13.4-1.5-20.1-.2-1.7,0-3.5,0-5.2.4-1.2.7-2.5,2.5-2.3h.2Z"/>
    <path class="cls-15" d="M160.7,302.2c-2.2,3.2-3,6.7-1.5,10.5-.8.6-1.6,1.6-2.6,1-.9-.6,0-1.6,0-2.4.4-3.2,1-6.4,2.5-9.3.3-.6.6-1.5.5-2.1-1.3-10.3,1.5-20.6-.7-30.9-.5-2.4-.3-5.4-3.6-6.3h0c-.4-1.5.7-2,1.7-2.7,1.9-.7,2.7.3,3.2,2,.7,2.8,1.3,5.6,1.3,8.4.2,10.3.4,20.5,0,30.8-.2.4-.5.8-.9,1.1h.1Z"/>
    <path class="cls-34" d="M139,327.6c-2-1-3.9-2-5.9-3.1-.4-.2-.8-.7-.8-1.1,0-.8.8-.9,1.4-.8,2.3.3,4.7-.5,7,.4,1.1.4,2.7.5,2.7,2s-1.4,1.9-2.6,2.3c-.6.2-1.2.2-1.8.3h0Z"/>
    <path class="cls-22" d="M154.7,312.6c-2-4.5-.7-8.2,3-11.2-1.8,3.5-.7,7.8-3,11.2Z"/>
    <path class="cls-22" d="M117.4,314.9c4.7.3,9.5-.8,14.2.7h-10.5c-1.3,0-2.6,0-3.7-.7h0Z"/>
    <path class="cls-42" d="M154.7,340.4c-.5-.3-1-.5-1.5-.8,2-.8,3.9-1.5,5.9-2.3,3.1-.4,6.2-1.4,10.3,0-4.2,1.2-8,.2-11,2.2-1.2.3-2.4.5-3.7.8h0Z"/>
    <path class="cls-11" d="M98.7,151.7c.9-3.5.8-7-.5-10.3-1-2.5-.3-4.1,1.2-6.1,2.5-3.3,6.2-4.5,9.8-5.8,1.5-.6,2.9,0,4.2.9,4,2.5,7.7,2.5,10.6-1.2,3.2-4.1,5.5-8.9,7.1-13.9.2-.7-.2-1.7-.3-2.6h.8l1.5,1.5c.8,1.8.4,3.4-.4,5.3-2.1,5.4-5.6,10-7.8,15.4-1.8,4.3-4.6,5-9,3.2-2.2-.9-4.4-1.7-6.4-3-2.4-1.6-4.9-1.6-7.2.2-2.2,1.7-2.5,3.9-1.6,6.6.8,2.4,1.5,5,.2,7.5l-2.2,2.2h0Z"/>
    <path class="cls-21" d="M109.9,183.9v-10.5c2.6-.7,3,1,3.1,2.9s0,3.7.7,5.5c.6,1.6,2.1,1.9,2.6.3,1.5-4.9,6.4-8.7,4.6-14.8-.6-2.1,1-2.7,2.9-2.5,1.2,0,3,1.5,3.3-1.2-3.2-2-7.2-1.9-10.5-3.7.2-.3.5-.5.7-.8,6,1.8,12.2,3.2,17.9,6,.5,2.1-.7,3-2.4,3.4s-2.6,1.1-2.6,3-.3,2.1-1.3,2.6c-3.8,1.8-4.7,5.4-6,8.8-1.1,1.8-2.5,4.1-.9,5.8,1.3,1.4,3.4-.6,5.1-1.1,1.5-.4,2.6-1.4,3.7-2.4,1.2-.8,2.3-1.9,3.6-2.5.5-.2.9-.4,1.4-.6,6.9-2.4,9.9.2,8.9,7.5-.5,3.6-.3,7.2-.2,10.8.3,7.1-3,12.2-8.5,16.1-1.8,1.3-3.8,2.3-5.5,3.8-2.7,2.3-3.2,5.3-.9,7.8,4.5,4.9,8.3,10.3,13.5,14.6,2.6,2.1,5.7,4.7,3.9,9-.5,1.2.8,2.3,1,3.5v1.1c-2.3,2.3-.3,5.1-1,7.6-.2.3-.5.5-.9.6h-1.1c-1.3-.6-2-2-3.2-2.7-1.5-.9-1.7-2.4-1.4-3.9,1.2-4.9-.3-8.5-4.1-11.8-3.8-3.2-5.9-8-9-11.8-2.2-2.7-4.1-5.6-6.8-7.9-2.6-2.1-2.5-4.4,0-6.5,3.5-2.9,7-5.9,11.1-8.1,4.5-2.3,7.2-6,6.8-11.5-.2-2.5.5-4.9.6-7.4.1-3.9-1.6-5.1-5.1-3.4-5.4,2.7-10.8,5.5-16.7,7.2-2.9.9-4.1,3.8-5.4,6.4s-2.9,4.9-5.5,6.4c-3.2,1.9-4.8.9-5.1-3.1,2.2-1.4,2.8-3.9,3.9-6.1,3.9-4.5,5.7-9.6,3.9-15.6,0-.3.3-.6.6-.9h.3Z"/>
    <path class="cls-12" d="M121.8,182.4c1.3-3,2.1-6.3,4.9-8.5,0,0,.3-.1.3-.2.8-4.7,4.9-6.3,8.3-8.5,2.7.4,5.3,1.2,7.5,3h0c-1.4,3.6-1.9,3.9-5.4,2.5,1.1,1.4,3.8.4,4.6,2.8,5.2,4.6,6,10.5,6.2,17.2.2,8.2-.3,16.6,1.3,24.8,1,5.1-.4,9.9-3.2,14.1-5,7.4-1.3,11.2,4.2,13.9,4.2,2.1,4.7,3.8,2.2,7.9-1.5,2.5-3,4.8-3.2,7.8-.1,2.8.6,4.7,3.7,4.8l-1.5,1.5c-4.1,1.1-3.9,1-4.6-3-.7-3.9.9-6.9,2.4-10.1,2-4.2,1.7-4.9-2.4-7.5-3.9-2.5-6.2-6.5-8.6-10.3-.3-.4-.5-1-.4-1.4,1.9-6,.2-12.7,4.4-18.2,4.1-5.5,3.2-12.3,3.1-18.7,0-2.8-.5-5.7,0-8.5.4-3-.3-5.7-2.4-8-.9-1-2.1-2-3.2-.9-3.3,3.4-8.1,5-11.1,8.7-.3.2-.6.5-.9.6-2.1.5-4.3,2.6-6.2.8-1.8-1.8-.8-4.4,0-6.6h0Z"/>
    <path class="cls-37" d="M135.3,115.8c3.9,2,7,5.4,11.4,6.5,1.7.4,3.3,1,5,1-1.8.9-2.5,2.6-3.5,4.2-4.2,6.3-9.1,12-13.1,18.3-1.9,3-2.6,6.1-2.8,9.5-.1,2.9-1.4,3.4-3.9,2-2.7-1.6-4.5-3.9-5.9-6.6-1.1-2.1-1-4.3,1.2-6,6.2-4.9,8.8-11.8,11.1-19,.4-1.2.6-2.5,1.2-3.5,1.4-2.4,1.2-4.5-.6-6.5h0Z"/>
    <path class="cls-11" d="M100.9,149.4c.2-2.5-.2-5.1-1-7.4-1.1-2.9-.6-5.1,1.7-7,2.4-1.9,5.1-2.8,8-1.3,2.4,1.2,4.9,2.4,7.5,3.2,3.1.9,5.4.2,6.7-2.9,2.3-5.3,5.9-9.8,8-15.2.6-1.5,1.2-3,1.2-4.7l.7.7c.8,2.2.3,4.1-.8,6.1-2.8,5.4-5.2,10.9-8.3,16.1-2.4,4-5.4,4.3-9.5,2.2-2.4-1.2-4.9-2.4-7.3-3.7-1.8-1-3.6-1.2-5.2,0-1.7,1.3-1.9,3.1-1.4,5.1.7,2.9,1.9,5.8-.3,8.6h0v.2Z"/>
    <path class="cls-24" d="M108.4,156.2c-3.4-.5-6.7-1.4-9.7-3v-.7c4.3-.2,4.9-4.6,7.4-6.8.8-.7-.7-1.7-1.2-2.5s-.9-1.5-.4-2.4c.6-1,1.7-1.1,2.6-.8,2.2.8,4.4,1.7,6.1,3.5,2.3,2.5,2,3.8-1.1,5.4-2.9,1.5-3.6,4.2-3.8,7.2h0Z"/>
    <path class="cls-45" d="M151,163.7c-.2,2.7.4,5.1,1.9,7.4.6.9,1.9,1.8,1,2.9-1.1,1.4-2.2-.2-3.2-.6-.5-.2-.9-.4-1.3-.6-1-.8-1.9-1.5-2.9-2.3-.7-.3-1.1-.6-.8-1.5v-5.5c0-1.7.3-3.3,2.2-3.8,2.1-.6,2.1,1.6,3,2.6v1.5h.1Z"/>
    <path class="cls-31" d="M142,173.4c-3.2.3-5.7-1.4-8.4-2.6-.7-.3-1.4-.8-1.2-1.7s1.1-1,1.8-.9c1,0,2.1,0,2.9.5,2.2,1.4,3.9.7,5.7-.6.7.2,1.5.5,2.2.7.6,2,2.4,3.8.7,6l-3.7-1.5h0Z"/>
    <path class="cls-71" d="M145.7,174.9c-.2-2-.5-4-.7-6h.7c.3.5.5,1,.8,1.5,0,2.5,1.8,4.4,2.3,6.7.4.5.4,1,0,1.5-1.8-.6-2.2-2.3-3-3.7h-.1Z"/>
    <path class="cls-35" d="M160.7,301.4c-.4-11.4.8-22.8-.8-34.1-.2-1.6-.5-3.2-.7-4.8-.2-1.4-.8-2-2.2-1.5-1.5.8-3,.9-4.3-.6-1.4-1.6-.9-3.1-.2-4.7,1-2.3,2.8-4.3,3.7-6.7h0c1.9-3.1.9-5.5-1.7-7.6-3.5-2.9-3.8-4.1-1.1-7.3,3-3.4,2.6-7.1,2-10.9-1.1-8-4.1-15.5-4.9-23.6-.7-6.7-1.4-13.5-1.2-20.3,3,.9,2.6,3.5,2.7,5.7.3,6.9.4,13.9,3,20.5.3.8.7,1.6,1.2,2.3v.7c2.6,9.7,4.2,19.5,4,29.6,0,3.6-.2,7.1-.7,10.6,0,.6,0,1.2-.4,1.7-2,3-3.3,5.8,1,8.1.6.3.5,1.3.9,2,.7,3.8,1.4,7.5,1.2,11.4-.6,8,.9,15.9,1,23.8,0,2.2.7,4.8-2.5,5.7h0Z"/>
    <path class="cls-4" d="M174.1,243c-1.7,1.1-2.9,3.1-5.2,3-.8-.9-.7-1.9,0-2.7,2.1-2.9,1.6-5.8.1-8.8s-.8-2.1-1.1-3.2c-.6-2.4-1.7-3-3.7-1.4-2.3-1.2-1-3.5-1.5-5.2-.2-4.6.2-9.3-1.3-13.8-.2-.5-.5-1-.7-1.5,1.5-2.7-.2-5.4-.3-8,0-1-.4-2-.4-2.9,0-1.5,0-3.3,1.9-3.5,1.7-.1,1.9,1.5,2.4,2.8,2.9,7.1,2.9,14.8,4.1,22.3.7,4.4,2.1,8.7,3.8,12.8,1.3,3.3,2.1,6.6,1.8,10.2h0Z"/>
    <path class="cls-19" d="M158.4,249.8c1.4-13.8.4-27.6-2.2-41.2,2,3.1,2.4,6.6,2.9,10.1.4,2.4.7,4.8,1.6,7.1,2.7,6.6,2.2,13.3,1.1,20.1-.3,1.9-.5,4.1-3.3,3.9h-.1Z"/>
    <path class="cls-10" d="M158.4,249.8c3.1-2.7,2.5-6.5,2.9-10,.5-4.7-.1-9.3-.7-14l1.5,3c3.1,7.7,3,15.3-1.2,22.6-.9,1.4-.3,2.9-.3,4.3s.6,2.7-.7,3.8c-1,0-1.9-.2-2.9-.3-2.6-.3-3.3-1.8-2-4.1,1.1-1.8,2.3-3.6,3.4-5.3h0Z"/>
    <path class="cls-58" d="M159.9,252c3.9-6,3.2-12.5,2.5-19.1-.1-1.4-.2-2.7-.3-4.1.1-2.4-.7-4.7-1.1-7-.2-1.1-1.1-2.6,1.1-2.8,1.8,1.7.5,4.1,1.5,6-.4,1.6,0,3.1.7,4.6.8.4,1.4,1,1.5,1.9.6,4.1.6,8.3,0,12.5-.1.9-.7,1.5-1.5,1.9-.5,1.5-1,3.1-1.4,4.6-.5.7-1,1.5-1.5,2.2-.3.5-.7,1.1-1.4.8-.6-.3-.6-1-.1-1.5h0Z"/>
    <path class="cls-19" d="M156.2,207.8c-2.8-3.2-3.2-7.2-3.7-11.1-.4-3.6-.5-7.2-.9-10.7-.2-2.3-.5-4.7-2.2-6.6-.2.3-.5.3-.7,0v-2.2c2.7,1.2,4.2,3.6,4,6.2-.5,8.4.7,16.6,3.4,24.5h0Z"/>
    <path class="cls-55" d="M163.6,225.1c-1.2-1.8-1-4-1.5-6-.2-2.7-.5-5.5-.7-8.2,1.9,4.6,2.1,9.4,2.2,14.2Z"/>
    <path class="cls-9" d="M165.1,268.5c-.2-1.8-.5-3.6-.6-5.4-.2-1.7,0-3.2,2.1-3.6,1.9,4.6,1.5,9.4,1.5,14.2-3.7,1.7-2-2-3-3v-2.2h0Z"/>
    <path class="cls-50" d="M165.1,270.7c.8,1.2,1,2.9,3,3,.1,3.3-.3,6.7.4,10,.2.9.3,1.9-.8,2.2-1.4.3-1.6-.8-1.7-1.8-.7-4.4-1-8.9-.8-13.4h0Z"/>
    <path class="cls-27" d="M164.3,245.9v-16.3c.2-1.2.3-2.5.5-3.7.2-.9-.6-2.4.7-2.6,1.6-.3,1.9,1.3,2.3,2.5.9,2.6,1.5,5.3,2.8,7.7,2.6,4.8,1.9,8.8-1.8,12.5l-.7.7c-1.3,0-2.9,1-3.8-.8h0Z"/>
    <path class="cls-14" d="M144.5,68.3c0,5.3-1,10.4-2.8,15.4-.8,2.3-1.7,5-4.8,5s-4.1-2.5-4.9-4.9c-1.9-6.3-4.1-12.5-5.6-18.9-1.4-6.1.3-9,4.6-9.6,6.9-1,12.5,2.4,13.1,7.8.2,1.7.2,3.5.3,5.2h0Z"/>
    <path class="cls-22" d="M127.1,163.7c1,.2,2.7-.4,2.6,1.2,0,1.2-1.5,1.5-2.7,1.3-.9-.1-1.7-.3-2.6-.5-1.7-.4-2.6.3-1.7,1.9,1.7,2.9.5,5.1-1,7.5-1.6,2.6-2.6,5.6-3.9,8.4-.7,1.5-1.4,3.6-3.6,3.3-1.9-.3-2-2.3-2.4-3.9-.5-2.1-1.1-4.1-.8-6.3.2-1.4,0-2.5-1.3-3.3-.7-3.5-1.5-6.8.6-10.2,1.2-1.9-1.3-2.2-2.1-3.2,3.6,0,6.7,1.3,9.9,2.8,2.8,1.4,5.7,2.5,8.8,1h.2Z"/>
    <path class="cls-32" d="M100.2,232.5c-3.7-1.1-7.4-2.2-11.1-3.3-1.6-.5-3.5-.6-4.3,1.1-.8,1.6,1.1,2.2,2.1,3.1,3.1,2.8,6.9,4.4,10.3,6.7,1,1.1.7,2.3-.4,2.8-3.1,1.4-3.9,3.8-3.3,6.9,0,.6-.4,1.1-.8,1.6-.7,1.5-.9,3.1-.5,4.7,1.2,4.7,0,9.1-2,13.3-1.5,3.2-3.7,3.6-6.4,1.2-1.4-1.3-2.5-2.7-3.1-4.5-.7-2.1-1.9-3.7-3.7-4.9-1.3-1-1.3-2.4-.9-3.7,1.5-4.6,1.6-9.2,1.3-14,0-1.3-.4-2.7.3-4,0-2.3,0-4.5.7-6.7.6-7.6,4.4-13.2,10.2-17.8,1.3-1,2.4-2.1,3.5-3.3,1.4-1.5,2.9-2,4.4,0,2,3.7,2.9,7.7,3,11.9,0,2.5,0,4.9,1.9,7,1,1.2,1.1,2.7-1.4,2.1h0l.2-.2Z"/>
    <path class="cls-31" d="M109.9,183.9v.7c.7,3.3.9,6.5-.5,9.7-2.3.8-2.5-.9-2.7-2.3-.3-2,0-4,0-6s-.6-4.2-2-5.9c-.5-.6-1.3-.9-2-.5-1,.5-.5,1.2-.2,1.9.5,1,.3,2.1.4,3.2,0,3.1.6,6.1,1.4,9.1,0,2.4.3,4.8-.7,7-1.9,1.5-2.6.5-2.9-1.4-.3-1.7.3-3.3.3-4.8,0,.9-.4,1.9-.4,2.9-2.6,2.7-3.3,6.5-5.6,9.4-1.1,1.1-1.9,2.5-2.9,3.7-.5.3-1,.4-1.5.3-2.2-.5-.5-1.8-.3-2.4,2.6-6.2,3.7-12.8,3.3-19.5.2,0,.3,0,.5-.1.4,0,.7.2.9.4,1.5,1.5.3,3.8,1.2,5.4.6,0,.9,0,.9-.2,1-4.4-.5-8.8-.9-13.1,0-.6-.9-.8-1.4-1.1-.3-.2-.5-.5-.6-.9.8-1.3,1.8-1.9,3.3-2,2.9-.1,4.6-2.6,6.2-4.4,1.7-1.8.3-3.7-1.7-4.8-2.1-1.2-5.5-1.9-4.1-5.1,1.2-2.8,4.6-2.5,7.3-2.3.9,0,2.1.7,1.7,1.5-1.6,3.9,1,7.3,1.6,10.8.5,3.6-.2,7.3,1.3,10.7h0Z"/>
    <path class="cls-62" d="M72.6,268.5s-.2.2-.3.3c-.5.5-1.4,1.2-2.2.8-.3-.2,0-.4,0-.7.4-1.1.9-2.1,1.4-3.2s.9-2.1,1.3-3.2c2.2-7.2,1.3-15.2.3-22.6h0c-.2-1.5-.4-2.9-.2-4.3,0-.9.5-1.9,1-2.6.6-.7,1.9-1.2,2.6-.4.4.4.3,1.1.3,1.7-.4,2.8-.6,5.7-.6,8.5s.2,5.4,0,8.2v1.7s0,.2,0,.2c.5.8.6,1.7.4,2.7,0,.4-.2.8-.3,1.2s-.2.9-.2,1.4c0,.9-.2,1.8-.4,2.7-.2,1-.6,1.9-.8,2.9-.2.9-.5,1.9-1,2.7-.4.7-.9,1.4-1.4,2h0Z"/>
    <path class="cls-73" d="M97.7,180.3c-.7-1.3-1.6-1.4-2.8-.9,0,0-.7,1.4-.9,1.6-.4.5-.9,1-1.3,1.5-.7,1-1,2.2-.8,3.3,0,.6.3,1.3.5,1.8.4.9,1.3,1.5,1.5,2.6.3,1.3.2,2.7.2,4.1s0,3.7.5,5.6c3.9-4.1,5.3-15.4,3-19.6h.1Z"/>
    <path class="cls-11" d="M89,215.3c-4.4,5.2-8,10.8-10.5,17.2.2-2.4.4-4.8,0-7.3-.6-2.9,1.9-4.6,3.8-6.3,2.2-1.8,4.5-3.4,6.8-5.1.5.5.4,1,0,1.5h0Z"/>
    <path class="cls-37" d="M89,215.3v-1.5l1.5-3c.2-.2.5-.5.7-.8,1.3-2.1,3.3-2.6,5.6-2.8,2.7-.3,3.9.7,3.5,3.5-1.3,1.3-2.7,2.3-4.5.9-3.2-.4-4.1,3.3-6.7,3.7h0Z"/>
    <path class="cls-24" d="M75.5,260.2c.3-2.5.5-5,.8-7.5,1.3-2.6.6-5.4.7-8,0-1.8-.2-3.7.7-5.4.3,7.3.7,14.5-.7,21.7-.2.2-.5.5-.7.8-.7-.3-1.2-.7-.8-1.5h0Z"/>
    <path class="cls-32" d="M100.9,313.4c-.4-8.4-2.1-16.5-6.8-23.6-2.4-3.6-2.1-8-3.6-11.9-.3-.7-.3-1.9.6-2.4.8-.5,1.3.5,1.9.8,3.3,1.9,6.7,2.5,10.3,1,2.9-1.2,4.9-.4,6.6,2.3,1.8,2.8,3.9,5.4,6.7,7.4,3.7,2.6,4.8,6.5,4.3,10.9-.2,1.7-.6,3.3-2.4,3.9-1.9.6-3.6.1-5-1.5-.6-.7-.9-2.5-2.3-1.7-1,.7-.4,2.1,0,3.1.9,3.8-.4,7.1-2,10.4-.6,1.3-1.6,1.8-3,1.9-1.8,0-3.6,0-5.2-.8h0v.2Z"/>
    <path class="cls-24" d="M74.8,268.5c.5,2.8,2.1,4.7,4.5,6.4,3.4,2.4,6,6,7.9,9.6,2.8,5.2,5.7,10.4,8.1,15.9,1.7,4,2.9,7.9,2.6,12.2h-2.2c-3.2-4.2-5-9.1-6.9-14-1.3-3.4-2.9-6.3-5.7-8.5-5.1-4.1-7.5-10.2-10.9-15.5-1.5-2.3,0-4.8,2.5-6.2h0Z"/>
    <path class="cls-22" d="M74.8,268.5c-2.4,2.1-2.1,4.4-.7,7,3.1,5.4,6.4,10.6,11.6,14.3.6.4,1.2,1,1.5,1.6,3.7,6.7,6.8,13.7,8.5,21.3-3.8-.2-4.4-3.4-5.6-6-3.3-7-7.4-13.5-12.1-19.7-1.5-1.9-2.6-4.3-3.5-6.5-1.2-3-2.8-3.8-5.6-2.2,0-3.7,3.2-6.2,3.7-9.8,1-2.7,2-5.5,3-8.2.3.5.5,1,.8,1.5,0,2.3-1.7,4.3-1.5,6.7h-.1Z"/>
    <path class="cls-57" d="M70.3,286.4c-.5,1.3-1,2.6-1.6,3.9-.4-2.7-.5-3.9-.9-5.6-.2-1.1-.6-2-2-1.9.3-1.1,1.2-1.8,2.2-2.3.8,2,1.5,3.9,2.2,5.9h.1Z"/>
    <path class="cls-61" d="M95,179.4c.2,0,0,1.6,0,1.7-.2.6-.6,1-.9,1.5-.4.5-.9,1.1-1.3,1.6-.2.2-.4.9-.8.9s-.6-.7-.5-1c0-.6.4-1.1.7-1.7.5-1.1,1.1-2.2,2.1-3.1h.8Z"/>
    <path class="cls-26" d="M92.7,251.3c-.4-1.2-.8-2.3-1.3-3.5-1.2-2.8,0-4.5,2.5-5.5,1.2-.5,2.6-.8,3.2-2.2,6.3-1.6,12.8,2.1,16.7,9.5,1.4,2.6,2.9,5.2,4.4,7.8,1.1,1.8,2.8,3,4.9,2.7,2.4-.4,2.5-2.5,2.6-4.4,0-1.6.3-2.8,2.2-2.7,1.6.1,3,.9,3,2.7s-.2,3.7-.6,5.5c-.3,1.2-.4,2.1.5,3.1,2.1,2.5.7,3.2-1.7,3.4-1.9.1-3.7-.2-5.5-.9-2.7-1-5.4-2-8.1-2.8-.9-.3-2.1-.7-2.6.5-.6,1.3.4,2.2,1.4,2.7,2.4,1.3,4.7,2.7,7.6,2.8,8.1.4,10.1,1.8,12.5,9.4.8,2.6,2.6,3.1,4.8,3.3,2.3.1,2.5,1.2,1.3,2.8-1,1.3-2,2.5-3,3.8-1.8,2.4-2.9,5.2-1.7,8.1s4.1,1.4,6.3,1.8c-2.4,1.3-5,2.6-7.1.2-2-2.2-1.3-5.2-.2-7.8.4-.9,1-1.8,1.6-2.5,1.9-2.2,2.5-4-.8-5.5-.8-.4-1.6-1.4-1.8-2.2-1.9-5.7-6.6-7.8-11.8-9.3-5.1-1.4-10.5-1.7-14.9-5.5-2-1.7-4-.7-4.6,2.1-.2,1.2-.5,2.6-2,2.8-1.7.2-2.3-1.3-2.9-2.5-2.1-4.2-2.5-8.8-3.3-13.4-.3-1.6-.4-3.2-1.6-4.5h0v.2Z"/>
    <path class="cls-22" d="M99.4,197.4c.3-2.2.7-4.4,1.1-7.1,2.2,3.7.2,7.6,1.8,10.9,2.1,1.7,1.9,3.4,0,5.1.2,2.3,1,3.2,3.3,1.7s3.7-3.6,4.8-6c2-4.1,4.5-7.2,9.7-8.2,5-1,9.6-4.1,14.2-6.4,4.7-2.4,6.7-1.1,6.7,4.2s-.4,8.7-.9,13c-.5,4.6-4,7.1-7.6,9-3.9,2-7.1,5-10.6,7.6-1.9,1.5-1.7,2.8,0,4.1,5,3.7,7.7,9.4,11.5,14.2,2,2.5,3.5,5.3,6.5,7,2.1,1.2,4,8.9,2.8,11-.8,1.5-.7,2.6.6,3.6,1,.8,1.7,1.8,2.2,3,0,2-.7,4.4,2.2,5.2-2.2,3-4.3,6.1-6.5,9.1-1.1,1.4-2.5,2.7-4.5,1.6-2.2-1.3-1.4-3.2-.7-5,1.2-2.7,3.1-4.8,5-6.9,2-2.2,2.1-3.7-1.1-4.9-2.8-1-3.8-3.1-3.8-6.4s-1.7-7.9-4.1-11.1c-4.5-6-10.8-10.6-14.4-17.5-.4-.8-1.4-1.4-2.1-2-1.8-1.6-2.8-1.3-3.1,1.1,0,.9-.3,1.7-.5,2.6-.3,1.4,0,3.3-1.8,3.8s-3.3-.6-4.7-1.8c-3.3-3-3.2-7.4-4.8-11.2-.9-.7-1.1-1.5-.7-2.5,3.9-2.2,2.9,2.1,4.6,3.1-3.9-4.5-3.4-10.9-7.2-15.5-.8-.9-.5-2.1,0-3.2.6-1.7.9-3.5,1.9-5.1h.1Z"/>
    <path class="cls-26" d="M100.9,217.6v3c-1,6.2,1.5,10.8,6.5,14.6-3.2.3-5.2-1.2-7.2-2.7.6-.3,1.2-.8.8-1.4-3.4-6.1-2.8-13.2-5.3-19.5,1.2-.4,2.3-1.5,3.7-.7,1.5,2,2.6,4.1,1.5,6.7h0Z"/>
    <path class="cls-67" d="M148,269.2c-.9.4-1.8.9-2.7,1.3-1.1.5-2.2,1.8-3.3.6-1.1-1.2.2-2.2,1-3.2,1-1.3,1.9-2.6,2.8-3.9h.7c.9,1.1,1.9,2.1,3,3-.2.5-.5,1-.7,1.5-.2.2-.5.5-.7.7h-.1Z"/>
    <path class="cls-3" d="M149.5,267c-2,0-3-.9-3-3h0c.7-.9.5-1.9,0-2.7-1.3-1.9-.5-3.4.8-4.8v-.7c-.7-1.2-.5-2.6-.1-3.5,1.9-4.2-.9-6.5-3.5-8.7-5.5-4.6-9.5-10.6-14.3-15.9-1.8-2-1.5-4.7.6-6.7,1.7-1.7,3.8-2.8,5.7-4.1,6.1-4.2,9.4-9.7,8.6-17.4-.4-3.4-.3-6.9.3-10.3.5-2.7.3-5.2-1.8-7s-4.1-.2-6,.5c-.8.3-1.6.8-2.3,1.3-1,.7-2,1.5-3,2.2-1,.4-1.7,1.8-3,.8,3.1-3.8,7.9-5.6,11-9.5,1-1.2,2.3-.4,3.3.4,3.4,2.5,4.9,5.9,4.2,10.1-.5,2.9,0,5.7,0,8.5,0,7.5,1,15.2-4.1,21.9-1.4,1.8-1.7,4.1-1.4,6.4.2,1.3,0,2.7-.3,4.1-1.3,6.4,1.1,11.8,6.8,15.1,5,2.9,5.2,3.6,2.6,8.8-1.4,2.8-2.7,5.5-2.5,8.8.2,2.7.9,4,3.6,3.9-.7.5-1.5,1-2.2,1.5h0Z"/>
    <path class="cls-71" d="M148.7,179.4h.7c1.2,14.6,3.7,29,7,43.3,1,4.5,1.7,9.3-2.2,13.4-1.7,1.8-.3,3.3,1.1,4.8,2.3,2.5,3.7,5.1.9,8.2.5-2.9.6-5.7-3-6.7-1.4-1-3.3-1.1-4.7-2.2-2-1.6-2.6-3.4-.7-5.5.7-.7,1.2-1.6,2.2-2.1,3.8-1.8,4.3-5.1,4-8.8-.4-4.5-1.7-8.8-2.9-13.1-.8-2.9-1.4-5.8-.7-8.8v-.7c-1.1-5.7-.9-11.5-1.5-17.2.2-1.5-.7-3,0-4.5h-.2Z"/>
    <path class="cls-31" d="M150.2,201.8c.2,7.6,3.6,14.7,4.4,22.2.4,3.4.2,6.3-2.9,8.6-5.5,4-5.3,5.2.4,8.6.4.2.7.7,1.1,1-1.1-.2-2.2-.4-3.2-.8-2-.8-3.9-2.2-4.2-4.4-.4-2.3,1.2-4.2,3-5.2,5-2.6,4.7-6.9,4-11.3-.6-3.9-1.9-7.7-2.8-11.6-.6-2.4-1-4.9.2-7.3h0v.2Z"/>
    <path class="cls-71" d="M156.2,249c-.1,2.4-1.8,4-2.7,6.1-1.7,3.9-1,5.2,3.4,5.9l-1.5,1.5c-4.4-1.2-5.4-3.4-3.4-7.3,1.2-2.2,2.7-4.1,4.1-6.1h0Z"/>
    <path class="cls-31" d="M148.7,183.9c1.1,5.7,1.3,11.5,1.5,17.2-1.8-5.6-1.5-11.4-1.5-17.2h0Z"/>
    <path class="cls-33" d="M159.9,252c.2.8.8,1,1.5.7,1.6,12.7,1,25.6,2.7,38.3.5,3.8,1.4,8-1.7,11.4-.9,1-1.5,1.5-1.8-.4v-.7c1.8-3.2,1.8-6.7,1.4-10.1-.9-6.3-.6-12.6-.6-18.9s-.6-8.6-1.5-12.9c-.1-1.8.3-3.6-1-5.2-.9-1.2.3-1.7,1-2.3h0Z"/>
    <path class="cls-67" d="M134.5,183.9c2.5-1.9,4.8-5.2,8.3-3.3,3.5,1.8,2.7,5.6,2.7,9s-.3,7.9,0,11.9c.4,6.4-2.5,11.5-7.4,15.5-1.9,1.6-4.1,2.9-6,4.4-2.2,1.8-2.8,4.1-.6,6.1,4,3.5,5.9,8.5,9.5,12.3,1.5,1.6,3.2,3.1,4.9,4.5,2.9,2.3,4.5,4.9,2.3,8.6-.5.8-.6,1.9-.9,2.8-.9-1.3-1.6-2.7-1.3-4.2.8-3.6-1.2-5.8-3.5-8-4.5-4.3-9-8.6-13.3-13.1-4.4-4.7-3.6-9.1,1.9-12.6,2.3-1.5,4.7-2.8,6.8-4.6,3.5-2.9,5.5-6.7,5.6-11.3.2-4.8-.2-9.7.4-14.5.5-3.3-2.2-5.3-5.5-4.7-1.3.3-2.6.7-3.9,1.1h0Z"/>
    <path class="cls-54" d="M102.5,206.3v-12.7c1-3.3,1.1-6.6-.8-9.7-.9-1.5-1.7-3.1-1-4.9.5-1.1,1-2.5,2.3-2.7,1.4-.3,1.6,1.3,2.3,2,5.3,4.6,2.5,10.6,3.1,16.1,1.2,2.8-1,5-1.5,7.5-1.7,1.3-.9,5-4.4,4.4h0Z"/>
    <path class="cls-67" d="M128.6,186.9c1-.2,2-.5,3-.8-2.2,3.3-6.1,3.5-9.3,4.8-1.4.6-2.5-.5-2.3-2,.3-2.2,0-4.8,2-6.5,0,.4.2.7.2,1.1,0,1.7-1,3.9,1.2,4.9,2,.9,3.7-.3,5.3-1.5h0Z"/>
    <path class="cls-3" d="M106.9,201.8l1.5-7.5c1-3.2,1.4-6.4,1.5-9.7,3.1,6.5,0,11.9-3,17.2h0Z"/>
    <path class="cls-67" d="M147.2,256.5c-1.2,2.4.7,5.1-.7,7.5-.3-.9-.4-2-.9-2.7-1.6-2.4-.7-3.8,1.6-4.8h0Z"/>
    <path class="cls-46" d="M124.8,182.2c.6-2.1.2-5.1,3.5-5.1s3.4,1.5,3.6,3.6c.1,1.6-3.4,5-5,5-2.2-.1-1.9-1.9-2.1-3.5h0Z"/>
    <path class="cls-14" d="M100.9,217.6c-1-2.1-1.3-4.4-1.5-6.7,0-2.1-1-2.2-2.9-2s-3.7.3-5.3,1.3c.3-1.5,1.5-2.5,2.3-3.7,2.2-.6,3.2-3.5,6-3,.5,4.4,1.7,8.5,4.3,12.1,1.8,2.6,2.7,5.6,3.9,8.5.4.9.8,2-.3,2.7-1.1.6-1.9-.3-2.6-1-2.2-2.2-2-5.6-3.8-8v-.2Z"/>
    <path class="cls-50" d="M99.4,203.3c-.7,3.7-2.8,4.3-6,3,2-3,2.8-6.8,6-9v6h0Z"/>
    <path class="cls-55" d="M101.7,183.9c0-1.7.2-3.5,1.7-4.9,0,4.9,2.1,9.8-.9,14.6-.3-3.2-.5-6.5-.8-9.7h0Z"/>
    <path class="cls-47" d="M94.3,189.1c-.2-.6-.2-1.2-.3-1.9-.3-1.1-.3-2.2.7-2.9.6-.5,1.5-.4,2.1,0,1.1.9,1.3,2.1,1.1,3.4,0,.9-.2,1.8-.3,2.7,0,.7-.3,2-1,2.4-.2,0-.4.1-.6,0-.7,0-.8-.8-1-1.4-.2-.7-.4-1.4-.6-2.1v-.3h0Z"/>
  </g>
</svg>