<?xml version="1.0" encoding="UTF-8"?>
<svg xmlns="http://www.w3.org/2000/svg" version="1.1" viewBox="0 0 524.4 840">
  <defs>


  </defs>
  <g>
    <g id="Legs">
      <path d="M242.72,437.76c-5.97-5.51-6.54-22.1-11.24-34-8.78-22.24-18.46-27.03-22.21-29.4-3.54-2.24-5.36-2.96-7.49-3.75-2.3-.86-4.81.61-5.14,3.05-.37,2.74-.84,6.57-1.1,9.88-.18,2.32-2.86,23.16-2.86,23.16,0,0-5.83,30.04-6.49,36.65-.66,6.6-2.47,15.84-2.51,24.83s-2.55,37.02-2.9,41.1c-.29,3.38-.71,15.72-.85,19.86-.02.01-.05.02-.07.03,0,0-.8,19.39-1.98,26.12-2.79,15.97-9.12,31.08-13.54,46.62-1.92,6.74-5.28,21.29-1.91,47.11.11,5.27.94,10.63,1.41,15.88.48,5.4.96,10.8,1.44,16.2.7,7.84,1.48,15.67,2.13,23.52.57,6.84,1.58,14.54,0,21.3-1.71,7.37,6.13,10.28,6.13,10.28,0,0,15.69,3.69,16.3-4.33.61-8.02,1.73-21.2,2.62-23.7,0,0,6.28-30.44,7.82-36.28,1.54-5.84,3.71-18.39,7.19-27,3.48-8.61,5.97-26.11,5.22-40.7,0,0-1.57-10.07,1.65-16.89,3.22-6.82,8.49-30.52,8.73-33.62s1.77-14.93,1.77-14.93c0,0-.04-.02-.07-.03.11-.86.27-2.06.49-3.82.66-5.24,2.29-9.34,2.29-9.34,0,0,5.25-11.6,7.12-19.04s10.36-28.17,11.82-31.33,6.06-18.01,7.32-23.99c1.25-5.98-5.16-7.92-11.13-13.43Z"/>
      <path d="M362.4,691.99c.92-10.11,2.07-39.23,1.71-55.41-.36-16.18.36-25.03-7.81-47.4-8.17-22.37-13.78-36.3-15.63-44.05-.8-3.35-.67-12.66-.55-17.39.61-6.08,1.46-14.71,1.68-17.27.58-6.7,1.61-20.09.13-31.37-1.91-14.58-3.25-24.12-4.56-31.34-1.19-6.53-6.75-35.4-6.75-35.4,0,0-4.17-23.38-4.32-25.7-.22-3.31-.65-7.15-.98-9.89-.3-2.44-2.79-3.94-5.1-3.11-2.13.77-3.96,1.46-7.53,3.66-3.77,2.33-13.5,7-22.54,29.14-4.84,11.84-5.66,25.35-11.69,30.79-6.03,5.44-14.08,8.01-12.12,13.81,2.19,6.5,9.1,30.46,10.53,33.64s9.71,25.99,11.05,33.54c1.08,6.07,2.17,12.29,2.83,16.1l-.26.05.21.49s3.24,24.18,11.16,40.07c7.92,15.89,7.21,30.52,7.59,36.77.39,6.24.66,22.21,8.74,40.37,0,0,8.35,23.02,12.33,41.8,3.99,18.78,6.74,24.27,8.38,42.13,0,0,.86,6.38,11.37,3.45,10.51-2.93,13.24-4.99,12.6-10.2-.64-5.21-1.4-27.18-.47-37.29Z"/>
    </g>
    <g id="Abdomen">
      <path d="M192.62,243.28c-.23-2.21,1.97-3.86,4.03-3.04,5.21,2.07,14.64,5.21,24.6,5.56,14.99.53,29.63-7.18,31.51-8.36s5.67-1.54,7.27-.46c3.27,2.21,14.57,8.85,33.64,6.27,11.23-1.52,20.45-3.55,26.12-4.95,2.97-.73,5.73,1.76,5.32,4.79l-.81,5.92-2.16,12.35s-1.68,12.34-2.24,17.29c-.56,4.95-1.22,18.19-1.22,21.21s.98,13.19,1.9,18.49c.92,5.3,3.53,15.87,2.8,30.21-.18,3.58-.19,6.6-.04,10.14,0,.13.24,4.66.25,4.78.08,1.09.66,1.46-6.73,5.17-23.97,12.04-23.09,22.1-37.78,30.17-9.04,4.97-29.39,6.43-39.3-1.96-9.91-8.39-22.85-31.18-40.2-31.11,0,0-1.91-.27-1.52-2.46s-.08-4.4,3.1-13.06c0,0,1.45-3.49.31-8.35-1.14-4.86.45-22.32.66-25.06s.78-22.14-2.98-36.69c-.02-.07-.03-.14-.04-.21-.22-1.35-2.56-15.65-4.83-26.62-.93-4.47-1.41-7.71-1.64-10Z"/>
    </g>
    <g id="Arms">
      <path d="M176.7,159.04s-16.15,5.99-20.76,17.91c-4.6,11.92-7.65,23.6-6.02,37.6,0,0,.29,2.32-.13,3.17s-7.35,12.65-9.35,31.81c0,0-1.88,10.04-3.2,14.92-1.33,4.87-5.86,18.8-5.73,26.13.13,7.33,1.63,24.15,1.83,33.96s-.43,9.41,1.91,22.78c2.35,13.38,9.09,49.68,9.09,49.68,0,0-.05,1.42.6,1.29s11.81,1.01,17.42-1.28c0,0,.69-.22.43-.83s-1.13-2.04-1.18-6.56.82-12.45.82-12.45c0,0,.75-7.78.94-10.44s1.82-16.36,2.03-17.9,3.96-29.2,3.96-29.2c0,0,1.31-11.87,1.59-16.82s.86-21,.71-23.46c0,0-.07-.84.45-1.93s10.77-16.56,12.5-44.16c0,0,.33-5.32.61-8.54s3.35-5.35,3.93-6.63c0,0-3.84-2.68-2.92-18.66.82-14.17,26.33-52.7-9.55-40.41Z"/>
      <path d="M357.95,381.5s.42,2.66.67,3.27c0,0-.08,1.06.41,1.14s10.67,4,18.16,1.19c0,0,.48-5.71,1.81-10.53s5.56-18.65,6.64-25.29c0,0,1.68-7.3,2.06-12.67.39-5.37.9-12.04.9-12.04,0,0,.76-8.91,1.54-11.79s1.78-12.22,1.59-15.78c-.2-3.56-.9-14.32-4.29-24.18-3.4-9.87-2.51-4.67-7-30.25,0,0-1.64-13.31-6.62-21.76l-3.59-7.26s-1.04-3.01-.9-5.82.32-12-.57-16.41-.73-15.36-10.15-26.79c0,0-3.19-6-21.3-12.07,0,0-6.7,1.83-7.56,4.88-.86,3.05-4.45,6.6-1.14,16.56,3.31,9.96,10.03,23.81,7.64,34.43-1.67,7.4-3.75,5.72-3.38,9.6.37,3.87,1.2,23.28,4.71,32.8,3.52,9.52,3.31,16.57,12.99,32.13,0,0,1.72,2.17,1.26,7.46s-2.49,23.15.77,35.71c3.27,12.56,4.1,34.79,4.1,34.79l1.24,18.72Z"/>
    </g>
    <g id="Chest">
      <path d="M192.36,231.73s12,8.47,34.96,8.04c14.43-.27,20.95-4.93,23.09-6.91,1.02-.95,2.16-1.78,3.46-2.31,2.31-.95,5.64-1.54,7.87,1.46,3.72,4.99,14.12,7.48,33.61,5.92,19.49-1.56,31.14-4.9,31.5-13.29.36-8.4,3.76-13.47,3.76-13.47,0,0,4.73-6.31-3.73-22.24-8.45-15.92-1.81-25.66-6.32-26.14s-44.95,11.31-64.33,10.35c-19.38-.96-42.21-.79-54.97-12.53,0,0-2.28-.4-2.38,2.79s3.98,5.75-5.28,30.86c-5.28,14.32-2.41,24.46-1.25,37.48Z"/>
    </g>
    <g id="Head">
      <path d="M250.41,22.25s-14.45-.38-25.56,13.76c-9.86,12.55-5.56,25.05-5.56,25.05,0,0,.98,9.36.73,11.13s-1.61,2.48,1.46,13.06c0,0,2.6,5.06,3.13,8.5.53,3.44,2.46,14.09,6.04,17.2,0,0,.16,13.48-1.57,17.56s-5.19,7.15-17.64,14.46c-12.45,7.31-7.05,4.67-8.56,5.09-1.81.5-11.04,4.83-2.95,8.27s29.25,14.61,55.94,13.44c10.74-.47,39.81-3.17,64.98-11.2,0,0,12.92-4.75,8.37-7.39-4.55-2.64-19.97-7.92-26.5-11.69-6.53-3.77-16.06-7.25-17.79-10.64s-5.94-16.88-6.28-23.52c0,0-.15-.45.56-2.01s1.41-7.73,1.65-9.98,1.64-5.46,2.24-6.99,2.69-8.76,2.52-12.37-.05-4.35-2.04-6.41c0,0-.29-1.95.38-5.24.66-3.29,3.64-15.39-4.81-26.48-8.45-11.09-21.15-13.79-28.74-13.63Z"/>
    </g>
  </g>
</svg>