<?xml version="1.0" encoding="UTF-8"?>
<svg xmlns="http://www.w3.org/2000/svg" width="117.168" height="217.842" viewBox="0 0 117.168 217.842">
  <g isolation="isolate">
    <g id="b" data-name="Layer 2">
      <g id="c" data-name="Vectors">
        <g>
          <path d="M78.162,100.995c9.889-1.766,13.729-4.755,17.443-7.645,3.548-2.762,5.555-3.578,13.653-7.069,2.33-1.005,3.596-11.849,3.627-12.078.889-6.485-.01-11.97-1.093-17.482-.83-4.217-.709-8.544-.824-12.859-.035-1.293-1.05-6.56-.927-8.024.217-2.581-4.266-7.064-7.115-6.842-1.104.088-2.376,1.019-4.486,2.561-7.732,5.65-23.822,15.407-51.718-1.544-10.577-6.427-19.551-13.652-26.762-19.458C10.604,3.022,4.959-1.522,1.843.468-.61,2.039-1.165,6.864,3.646,26.038c9.851,39.265,11.241,62.343,11.432,68.481.053,1.704,1.316,3.121,3.003,3.37,7.621,1.125,29.194,4.065,46.243,4.065,5.21,0,10-.275,13.837-.96Z" fill="#c8b275" mix-blend-mode="difference" stroke-width="0"/>
          <path d="M117.167,145.686l-1.141.163c-.056.007-4.998.789-8.93-.784l-.683-.275c-3.984-1.617-7.131-2.895-16.901.252-1.668.537-3.843,1.326-6.361,2.24-12.628,4.582-33.756,12.237-52.923,11.519-.703-.026-1.419.21-1.876.745-.567.665-.678,1.563-.307,2.332,4.307,8.949,19.45,38.882,33.49,48.341,6.103,4.111,14.582,7.624,23.017,7.624,3.227,0,6.448-.514,9.526-1.706,8.329-3.223,13.508-10.97,16.299-22.401,6.727-27.548,6.791-46.708,6.791-46.897v-1.152Z" fill="#c8b275" mix-blend-mode="difference" stroke-width="0"/>
        </g>
      </g>
    </g>
  </g>
</svg>