<?xml version="1.0" encoding="UTF-8"?>
<svg xmlns="http://www.w3.org/2000/svg" width="128.876" height="136.034" viewBox="0 0 128.876 136.034">
  <g isolation="isolate">
    <g id="b" data-name="Layer 2">
      <g id="c" data-name="Vectors">
        <path d="M110.383,47.14c-1.239-2.067-3.878-6.101-5.172-8.067-4.613-7.009-7.669-13.629-8.178-22.094l-.022-.437c-.035-.785-.327-1.802-1.042-2.302-.419-.293-.921-.369-1.413-.212-.769.243-1.094.947-1.233,1.248-1.545,3.336-1.76,7.009-1.969,10.562-.068,1.157-.138,2.354-.254,3.505-.052.513-.122,1.041-.356,1.354-.567.759-2.144.368-3.366-.315-4.006-2.237-7.447-5.443-10.774-8.544-1.598-1.489-3.251-3.029-4.957-4.457C56.766,4.932,36.954-1.327,17.623.236c-1.808.146-3.67.377-5.241,1.286-3.226,1.867-2.845,5.403-2.018,8.494,5.696,21.306,7.15,49.151-7.14,67.078C1.598,79.133.059,81.459.002,84.066c-.106,4.82,5.223,9.635,8.23,12.605,10.993,10.855,20.708,17.6,33.22,26.643.482.348.965.694,1.454,1.032,4.812,3.325,11.247,7.443,18.363,9.789,3.842,1.267,7.743,1.899,11.682,1.899,4.618,0,9.289-.871,13.971-2.609,3.475-1.291,6.68-2.973,9.93-4.728.348-.188.711-.399,1.086-.617,1.309-.763,2.793-1.627,4.095-1.68,3.67-.166,7.317,3.544,7.353,3.582l.553.574.683-.41c.334-.201.776-.449,1.3-.744,4.987-2.804,15.365-9.572,16.642-19.8,1.328-10.621-1.784-22.461-5.345-33.675-3.318-10.449-6.774-18.674-12.835-28.788Z" fill="#c8b275" mix-blend-mode="difference" stroke-width="0"/>
      </g>
    </g>
  </g>
</svg>